v -0.25000000000000006 -0.4 0.4330127018922193
v -0.25000000000000006 -0.36363636363636365 0.4330127018922193
v -0.25000000000000006 -0.32727272727272727 0.4330127018922193
v -0.25000000000000006 -0.2909090909090909 0.4330127018922193
v -0.25000000000000006 -0.2545454545454545 0.4330127018922193
v -0.25000000000000006 -0.21818181818181817 0.4330127018922193
v -0.25000000000000006 -0.18181818181818182 0.4330127018922193
v -0.25000000000000006 -0.14545454545454545 0.4330127018922193
v -0.25000000000000006 -0.10909090909090907 0.4330127018922193
v -0.25000000000000006 -0.0727272727272727 0.4330127018922193
v -0.25000000000000006 -0.03636363636363632 0.4330127018922193
v -0.25000000000000006 5.551115123125783e-17 0.4330127018922193
v -0.25000000000000006 0.036363636363636376 0.4330127018922193
v -0.25000000000000006 0.07272727272727275 0.4330127018922193
v -0.25000000000000006 0.10909090909090913 0.4330127018922193
v -0.25000000000000006 0.1454545454545455 0.4330127018922193
v -0.25000000000000006 0.18181818181818188 0.4330127018922193
v -0.25000000000000006 0.21818181818181825 0.4330127018922193
v -0.25000000000000006 0.25454545454545463 0.4330127018922193
v -0.25000000000000006 0.290909090909091 0.4330127018922193
v -0.25000000000000006 0.3272727272727274 0.4330127018922193
v -0.25000000000000006 0.36363636363636376 0.4330127018922193
v -0.25000000000000006 0.4 0.4330127018922193
v -0.21826235225288676 -0.4 0.44984613546082264
v -0.21826235225288676 -0.36363636363636365 0.44984613546082264
v -0.21826235225288676 -0.32727272727272727 0.44984613546082264
v -0.21826235225288676 -0.2909090909090909 0.44984613546082264
v -0.21826235225288676 -0.2545454545454545 0.44984613546082264
v -0.21826235225288676 -0.21818181818181817 0.44984613546082264
v -0.21826235225288676 -0.18181818181818182 0.44984613546082264
v -0.21826235225288676 -0.14545454545454545 0.44984613546082264
v -0.21826235225288676 -0.10909090909090907 0.44984613546082264
v -0.21826235225288676 -0.0727272727272727 0.44984613546082264
v -0.21826235225288676 -0.03636363636363632 0.44984613546082264
v -0.21826235225288676 5.551115123125783e-17 0.44984613546082264
v -0.21826235225288676 0.036363636363636376 0.44984613546082264
v -0.21826235225288676 0.07272727272727275 0.44984613546082264
v -0.21826235225288676 0.10909090909090913 0.44984613546082264
v -0.21826235225288676 0.1454545454545455 0.44984613546082264
v -0.21826235225288676 0.18181818181818188 0.44984613546082264
v -0.21826235225288676 0.21818181818181825 0.44984613546082264
v -0.21826235225288676 0.25454545454545463 0.44984613546082264
v -0.21826235225288676 0.290909090909091 0.44984613546082264
v -0.21826235225288676 0.3272727272727274 0.44984613546082264
v -0.21826235225288676 0.36363636363636376 0.44984613546082264
v -0.21826235225288676 0.4 0.44984613546082264
v -0.18539790959798041 -0.4 0.4643572063796352
v -0.18539790959798041 -0.36363636363636365 0.4643572063796352
v -0.18539790959798041 -0.32727272727272727 0.4643572063796352
v -0.18539790959798041 -0.2909090909090909 0.4643572063796352
v -0.18539790959798041 -0.2545454545454545 0.4643572063796352
v -0.18539790959798041 -0.21818181818181817 0.4643572063796352
v -0.18539790959798041 -0.18181818181818182 0.4643572063796352
v -0.18539790959798041 -0.14545454545454545 0.4643572063796352
v -0.18539790959798041 -0.10909090909090907 0.4643572063796352
v -0.18539790959798041 -0.0727272727272727 0.4643572063796352
v -0.18539790959798041 -0.03636363636363632 0.4643572063796352
v -0.18539790959798041 5.551115123125783e-17 0.4643572063796352
v -0.18539790959798041 0.036363636363636376 0.4643572063796352
v -0.18539790959798041 0.07272727272727275 0.4643572063796352
v -0.18539790959798041 0.10909090909090913 0.4643572063796352
v -0.18539790959798041 0.1454545454545455 0.4643572063796352
v -0.18539790959798041 0.18181818181818188 0.4643572063796352
v -0.18539790959798041 0.21818181818181825 0.4643572063796352
v -0.18539790959798041 0.25454545454545463 0.4643572063796352
v -0.18539790959798041 0.290909090909091 0.4643572063796352
v -0.18539790959798041 0.3272727272727274 0.4643572063796352
v -0.18539790959798041 0.36363636363636376 0.4643572063796352
v -0.18539790959798041 0.4 0.4643572063796352
v -0.1515763370565218 -0.4 0.47647100021357824
v -0.1515763370565218 -0.36363636363636365 0.47647100021357824
v -0.1515763370565218 -0.32727272727272727 0.47647100021357824
v -0.1515763370565218 -0.2909090909090909 0.47647100021357824
v -0.1515763370565218 -0.2545454545454545 0.47647100021357824
v -0.1515763370565218 -0.21818181818181817 0.47647100021357824
v -0.1515763370565218 -0.18181818181818182 0.47647100021357824
v -0.1515763370565218 -0.14545454545454545 0.47647100021357824
v -0.1515763370565218 -0.10909090909090907 0.47647100021357824
v -0.1515763370565218 -0.0727272727272727 0.47647100021357824
v -0.1515763370565218 -0.03636363636363632 0.47647100021357824
v -0.1515763370565218 5.551115123125783e-17 0.47647100021357824
v -0.1515763370565218 0.036363636363636376 0.47647100021357824
v -0.1515763370565218 0.07272727272727275 0.47647100021357824
v -0.1515763370565218 0.10909090909090913 0.47647100021357824
v -0.1515763370565218 0.1454545454545455 0.47647100021357824
v -0.1515763370565218 0.18181818181818188 0.47647100021357824
v -0.1515763370565218 0.21818181818181825 0.47647100021357824
v -0.1515763370565218 0.25454545454545463 0.47647100021357824
v -0.1515763370565218 0.290909090909091 0.47647100021357824
v -0.1515763370565218 0.3272727272727274 0.47647100021357824
v -0.1515763370565218 0.36363636363636376 0.47647100021357824
v -0.1515763370565218 0.4 0.47647100021357824
v -0.11697224090082432 -0.4 0.48612497864092474
v -0.11697224090082432 -0.36363636363636365 0.48612497864092474
v -0.11697224090082432 -0.32727272727272727 0.48612497864092474
v -0.11697224090082432 -0.2909090909090909 0.48612497864092474
v -0.11697224090082432 -0.2545454545454545 0.48612497864092474
v -0.11697224090082432 -0.21818181818181817 0.48612497864092474
v -0.11697224090082432 -0.18181818181818182 0.48612497864092474
v -0.11697224090082432 -0.14545454545454545 0.48612497864092474
v -0.11697224090082432 -0.10909090909090907 0.48612497864092474
v -0.11697224090082432 -0.0727272727272727 0.48612497864092474
v -0.11697224090082432 -0.03636363636363632 0.48612497864092474
v -0.11697224090082432 5.551115123125783e-17 0.48612497864092474
v -0.11697224090082432 0.036363636363636376 0.48612497864092474
v -0.11697224090082432 0.07272727272727275 0.48612497864092474
v -0.11697224090082432 0.10909090909090913 0.48612497864092474
v -0.11697224090082432 0.1454545454545455 0.48612497864092474
v -0.11697224090082432 0.18181818181818188 0.48612497864092474
v -0.11697224090082432 0.21818181818181825 0.48612497864092474
v -0.11697224090082432 0.25454545454545463 0.48612497864092474
v -0.11697224090082432 0.290909090909091 0.48612497864092474
v -0.11697224090082432 0.3272727272727274 0.48612497864092474
v -0.11697224090082432 0.36363636363636376 0.48612497864092474
v -0.11697224090082432 0.4 0.48612497864092474
v -0.08176426723698259 -0.4 0.49326930231182975
v -0.08176426723698259 -0.36363636363636365 0.49326930231182975
v -0.08176426723698259 -0.32727272727272727 0.49326930231182975
v -0.08176426723698259 -0.2909090909090909 0.49326930231182975
v -0.08176426723698259 -0.2545454545454545 0.49326930231182975
v -0.08176426723698259 -0.21818181818181817 0.49326930231182975
v -0.08176426723698259 -0.18181818181818182 0.49326930231182975
v -0.08176426723698259 -0.14545454545454545 0.49326930231182975
v -0.08176426723698259 -0.10909090909090907 0.49326930231182975
v -0.08176426723698259 -0.0727272727272727 0.49326930231182975
v -0.08176426723698259 -0.03636363636363632 0.49326930231182975
v -0.08176426723698259 5.551115123125783e-17 0.49326930231182975
v -0.08176426723698259 0.036363636363636376 0.49326930231182975
v -0.08176426723698259 0.07272727272727275 0.49326930231182975
v -0.08176426723698259 0.10909090909090913 0.49326930231182975
v -0.08176426723698259 0.1454545454545455 0.49326930231182975
v -0.08176426723698259 0.18181818181818188 0.49326930231182975
v -0.08176426723698259 0.21818181818181825 0.49326930231182975
v -0.08176426723698259 0.25454545454545463 0.49326930231182975
v -0.08176426723698259 0.290909090909091 0.49326930231182975
v -0.08176426723698259 0.3272727272727274 0.49326930231182975
v -0.08176426723698259 0.36363636363636376 0.49326930231182975
v -0.08176426723698259 0.4 0.49326930231182975
v -0.04613417973165101 -0.4 0.49786708814751723
v -0.04613417973165101 -0.36363636363636365 0.49786708814751723
v -0.04613417973165101 -0.32727272727272727 0.49786708814751723
v -0.04613417973165101 -0.2909090909090909 0.49786708814751723
v -0.04613417973165101 -0.2545454545454545 0.49786708814751723
v -0.04613417973165101 -0.21818181818181817 0.49786708814751723
v -0.04613417973165101 -0.18181818181818182 0.49786708814751723
v -0.04613417973165101 -0.14545454545454545 0.49786708814751723
v -0.04613417973165101 -0.10909090909090907 0.49786708814751723
v -0.04613417973165101 -0.0727272727272727 0.49786708814751723
v -0.04613417973165101 -0.03636363636363632 0.49786708814751723
v -0.04613417973165101 5.551115123125783e-17 0.49786708814751723
v -0.04613417973165101 0.036363636363636376 0.49786708814751723
v -0.04613417973165101 0.07272727272727275 0.49786708814751723
v -0.04613417973165101 0.10909090909090913 0.49786708814751723
v -0.04613417973165101 0.1454545454545455 0.49786708814751723
v -0.04613417973165101 0.18181818181818188 0.49786708814751723
v -0.04613417973165101 0.21818181818181825 0.49786708814751723
v -0.04613417973165101 0.25454545454545463 0.49786708814751723
v -0.04613417973165101 0.290909090909091 0.49786708814751723
v -0.04613417973165101 0.3272727272727274 0.49786708814751723
v -0.04613417973165101 0.36363636363636376 0.49786708814751723
v -0.04613417973165101 0.4 0.49786708814751723
v -0.010265921244195234 -0.4 0.4998945997517957
v -0.010265921244195234 -0.36363636363636365 0.4998945997517957
v -0.010265921244195234 -0.32727272727272727 0.4998945997517957
v -0.010265921244195234 -0.2909090909090909 0.4998945997517957
v -0.010265921244195234 -0.2545454545454545 0.4998945997517957
v -0.010265921244195234 -0.21818181818181817 0.4998945997517957
v -0.010265921244195234 -0.18181818181818182 0.4998945997517957
v -0.010265921244195234 -0.14545454545454545 0.4998945997517957
v -0.010265921244195234 -0.10909090909090907 0.4998945997517957
v -0.010265921244195234 -0.0727272727272727 0.4998945997517957
v -0.010265921244195234 -0.03636363636363632 0.4998945997517957
v -0.010265921244195234 5.551115123125783e-17 0.4998945997517957
v -0.010265921244195234 0.036363636363636376 0.4998945997517957
v -0.010265921244195234 0.07272727272727275 0.4998945997517957
v -0.010265921244195234 0.10909090909090913 0.4998945997517957
v -0.010265921244195234 0.1454545454545455 0.4998945997517957
v -0.010265921244195234 0.18181818181818188 0.4998945997517957
v -0.010265921244195234 0.21818181818181825 0.4998945997517957
v -0.010265921244195234 0.25454545454545463 0.4998945997517957
v -0.010265921244195234 0.290909090909091 0.4998945997517957
v -0.010265921244195234 0.3272727272727274 0.4998945997517957
v -0.010265921244195234 0.36363636363636376 0.4998945997517957
v -0.010265921244195234 0.4 0.4998945997517957
v 0.025655335791394868 -0.4 0.4993413699518905
v 0.025655335791394868 -0.36363636363636365 0.4993413699518905
v 0.025655335791394868 -0.32727272727272727 0.4993413699518905
v 0.025655335791394868 -0.2909090909090909 0.4993413699518905
v 0.025655335791394868 -0.2545454545454545 0.4993413699518905
v 0.025655335791394868 -0.21818181818181817 0.4993413699518905
v 0.025655335791394868 -0.18181818181818182 0.4993413699518905
v 0.025655335791394868 -0.14545454545454545 0.4993413699518905
v 0.025655335791394868 -0.10909090909090907 0.4993413699518905
v 0.025655335791394868 -0.0727272727272727 0.4993413699518905
v 0.025655335791394868 -0.03636363636363632 0.4993413699518905
v 0.025655335791394868 5.551115123125783e-17 0.4993413699518905
v 0.025655335791394868 0.036363636363636376 0.4993413699518905
v 0.025655335791394868 0.07272727272727275 0.4993413699518905
v 0.025655335791394868 0.10909090909090913 0.4993413699518905
v 0.025655335791394868 0.1454545454545455 0.4993413699518905
v 0.025655335791394868 0.18181818181818188 0.4993413699518905
v 0.025655335791394868 0.21818181818181825 0.4993413699518905
v 0.025655335791394868 0.25454545454545463 0.4993413699518905
v 0.025655335791394868 0.290909090909091 0.4993413699518905
v 0.025655335791394868 0.3272727272727274 0.4993413699518905
v 0.025655335791394868 0.36363636363636376 0.4993413699518905
v 0.025655335791394868 0.4 0.4993413699518905
v 0.06144414533235708 -0.4 0.49621025483596787
v 0.06144414533235708 -0.36363636363636365 0.49621025483596787
v 0.06144414533235708 -0.32727272727272727 0.49621025483596787
v 0.06144414533235708 -0.2909090909090909 0.49621025483596787
v 0.06144414533235708 -0.2545454545454545 0.49621025483596787
v 0.06144414533235708 -0.21818181818181817 0.49621025483596787
v 0.06144414533235708 -0.18181818181818182 0.49621025483596787
v 0.06144414533235708 -0.14545454545454545 0.49621025483596787
v 0.06144414533235708 -0.10909090909090907 0.49621025483596787
v 0.06144414533235708 -0.0727272727272727 0.49621025483596787
v 0.06144414533235708 -0.03636363636363632 0.49621025483596787
v 0.06144414533235708 5.551115123125783e-17 0.49621025483596787
v 0.06144414533235708 0.036363636363636376 0.49621025483596787
v 0.06144414533235708 0.07272727272727275 0.49621025483596787
v 0.06144414533235708 0.10909090909090913 0.49621025483596787
v 0.06144414533235708 0.1454545454545455 0.49621025483596787
v 0.06144414533235708 0.18181818181818188 0.49621025483596787
v 0.06144414533235708 0.21818181818181825 0.49621025483596787
v 0.06144414533235708 0.25454545454545463 0.49621025483596787
v 0.06144414533235708 0.290909090909091 0.49621025483596787
v 0.06144414533235708 0.3272727272727274 0.49621025483596787
v 0.06144414533235708 0.36363636363636376 0.49621025483596787
v 0.06144414533235708 0.4 0.49621025483596787
v 0.096915745105535 -0.4 0.49051741900837625
v 0.096915745105535 -0.36363636363636365 0.49051741900837625
v 0.096915745105535 -0.32727272727272727 0.49051741900837625
v 0.096915745105535 -0.2909090909090909 0.49051741900837625
v 0.096915745105535 -0.2545454545454545 0.49051741900837625
v 0.096915745105535 -0.21818181818181817 0.49051741900837625
v 0.096915745105535 -0.18181818181818182 0.49051741900837625
v 0.096915745105535 -0.14545454545454545 0.49051741900837625
v 0.096915745105535 -0.10909090909090907 0.49051741900837625
v 0.096915745105535 -0.0727272727272727 0.49051741900837625
v 0.096915745105535 -0.03636363636363632 0.49051741900837625
v 0.096915745105535 5.551115123125783e-17 0.49051741900837625
v 0.096915745105535 0.036363636363636376 0.49051741900837625
v 0.096915745105535 0.07272727272727275 0.49051741900837625
v 0.096915745105535 0.10909090909090913 0.49051741900837625
v 0.096915745105535 0.1454545454545455 0.49051741900837625
v 0.096915745105535 0.18181818181818188 0.49051741900837625
v 0.096915745105535 0.21818181818181825 0.49051741900837625
v 0.096915745105535 0.25454545454545463 0.49051741900837625
v 0.096915745105535 0.290909090909091 0.49051741900837625
v 0.096915745105535 0.3272727272727274 0.49051741900837625
v 0.096915745105535 0.36363636363636376 0.49051741900837625
v 0.096915745105535 0.4 0.49051741900837625
v 0.13188701045574588 -0.4 0.48229225213872756
v 0.13188701045574588 -0.36363636363636365 0.48229225213872756
v 0.13188701045574588 -0.32727272727272727 0.48229225213872756
v 0.13188701045574588 -0.2909090909090909 0.48229225213872756
v 0.13188701045574588 -0.2545454545454545 0.48229225213872756
v 0.13188701045574588 -0.21818181818181817 0.48229225213872756
v 0.13188701045574588 -0.18181818181818182 0.48229225213872756
v 0.13188701045574588 -0.14545454545454545 0.48229225213872756
v 0.13188701045574588 -0.10909090909090907 0.48229225213872756
v 0.13188701045574588 -0.0727272727272727 0.48229225213872756
v 0.13188701045574588 -0.03636363636363632 0.48229225213872756
v 0.13188701045574588 5.551115123125783e-17 0.48229225213872756
v 0.13188701045574588 0.036363636363636376 0.48229225213872756
v 0.13188701045574588 0.07272727272727275 0.48229225213872756
v 0.13188701045574588 0.10909090909090913 0.48229225213872756
v 0.13188701045574588 0.1454545454545455 0.48229225213872756
v 0.13188701045574588 0.18181818181818188 0.48229225213872756
v 0.13188701045574588 0.21818181818181825 0.48229225213872756
v 0.13188701045574588 0.25454545454545463 0.48229225213872756
v 0.13188701045574588 0.290909090909091 0.48229225213872756
v 0.13188701045574588 0.3272727272727274 0.48229225213872756
v 0.13188701045574588 0.36363636363636376 0.48229225213872756
v 0.13188701045574588 0.4 0.48229225213872756
v 0.16617739973982987 -0.4 0.4715772172356387
v 0.16617739973982987 -0.36363636363636365 0.4715772172356387
v 0.16617739973982987 -0.32727272727272727 0.4715772172356387
v 0.16617739973982987 -0.2909090909090909 0.4715772172356387
v 0.16617739973982987 -0.2545454545454545 0.4715772172356387
v 0.16617739973982987 -0.21818181818181817 0.4715772172356387
v 0.16617739973982987 -0.18181818181818182 0.4715772172356387
v 0.16617739973982987 -0.14545454545454545 0.4715772172356387
v 0.16617739973982987 -0.10909090909090907 0.4715772172356387
v 0.16617739973982987 -0.0727272727272727 0.4715772172356387
v 0.16617739973982987 -0.03636363636363632 0.4715772172356387
v 0.16617739973982987 5.551115123125783e-17 0.4715772172356387
v 0.16617739973982987 0.036363636363636376 0.4715772172356387
v 0.16617739973982987 0.07272727272727275 0.4715772172356387
v 0.16617739973982987 0.10909090909090913 0.4715772172356387
v 0.16617739973982987 0.1454545454545455 0.4715772172356387
v 0.16617739973982987 0.18181818181818188 0.4715772172356387
v 0.16617739973982987 0.21818181818181825 0.4715772172356387
v 0.16617739973982987 0.25454545454545463 0.4715772172356387
v 0.16617739973982987 0.290909090909091 0.4715772172356387
v 0.16617739973982987 0.3272727272727274 0.4715772172356387
v 0.16617739973982987 0.36363636363636376 0.4715772172356387
v 0.16617739973982987 0.4 0.4715772172356387
v 0.19960988638571547 -0.4 0.4584276314284314
v 0.19960988638571547 -0.36363636363636365 0.4584276314284314
v 0.19960988638571547 -0.32727272727272727 0.4584276314284314
v 0.19960988638571547 -0.2909090909090909 0.4584276314284314
v 0.19960988638571547 -0.2545454545454545 0.4584276314284314
v 0.19960988638571547 -0.21818181818181817 0.4584276314284314
v 0.19960988638571547 -0.18181818181818182 0.4584276314284314
v 0.19960988638571547 -0.14545454545454545 0.4584276314284314
v 0.19960988638571547 -0.10909090909090907 0.4584276314284314
v 0.19960988638571547 -0.0727272727272727 0.4584276314284314
v 0.19960988638571547 -0.03636363636363632 0.4584276314284314
v 0.19960988638571547 5.551115123125783e-17 0.4584276314284314
v 0.19960988638571547 0.036363636363636376 0.4584276314284314
v 0.19960988638571547 0.07272727272727275 0.4584276314284314
v 0.19960988638571547 0.10909090909090913 0.4584276314284314
v 0.19960988638571547 0.1454545454545455 0.4584276314284314
v 0.19960988638571547 0.18181818181818188 0.4584276314284314
v 0.19960988638571547 0.21818181818181825 0.4584276314284314
v 0.19960988638571547 0.25454545454545463 0.4584276314284314
v 0.19960988638571547 0.290909090909091 0.4584276314284314
v 0.19960988638571547 0.3272727272727274 0.4584276314284314
v 0.19960988638571547 0.36363636363636376 0.4584276314284314
v 0.19960988638571547 0.4 0.4584276314284314
v 0.2320118728046816 -0.4 0.44291138038851996
v 0.2320118728046816 -0.36363636363636365 0.44291138038851996
v 0.2320118728046816 -0.32727272727272727 0.44291138038851996
v 0.2320118728046816 -0.2909090909090909 0.44291138038851996
v 0.2320118728046816 -0.2545454545454545 0.44291138038851996
v 0.2320118728046816 -0.21818181818181817 0.44291138038851996
v 0.2320118728046816 -0.18181818181818182 0.44291138038851996
v 0.2320118728046816 -0.14545454545454545 0.44291138038851996
v 0.2320118728046816 -0.10909090909090907 0.44291138038851996
v 0.2320118728046816 -0.0727272727272727 0.44291138038851996
v 0.2320118728046816 -0.03636363636363632 0.44291138038851996
v 0.2320118728046816 5.551115123125783e-17 0.44291138038851996
v 0.2320118728046816 0.036363636363636376 0.44291138038851996
v 0.2320118728046816 0.07272727272727275 0.44291138038851996
v 0.2320118728046816 0.10909090909090913 0.44291138038851996
v 0.2320118728046816 0.1454545454545455 0.44291138038851996
v 0.2320118728046816 0.18181818181818188 0.44291138038851996
v 0.2320118728046816 0.21818181818181825 0.44291138038851996
v 0.2320118728046816 0.25454545454545463 0.44291138038851996
v 0.2320118728046816 0.290909090909091 0.44291138038851996
v 0.2320118728046816 0.3272727272727274 0.44291138038851996
v 0.2320118728046816 0.36363636363636376 0.44291138038851996
v 0.2320118728046816 0.4 0.44291138038851996
v 0.263216081438678 -0.4 0.42510856786480705
v 0.263216081438678 -0.36363636363636365 0.42510856786480705
v 0.263216081438678 -0.32727272727272727 0.42510856786480705
v 0.263216081438678 -0.2909090909090909 0.42510856786480705
v 0.263216081438678 -0.2545454545454545 0.42510856786480705
v 0.263216081438678 -0.21818181818181817 0.42510856786480705
v 0.263216081438678 -0.18181818181818182 0.42510856786480705
v 0.263216081438678 -0.14545454545454545 0.42510856786480705
v 0.263216081438678 -0.10909090909090907 0.42510856786480705
v 0.263216081438678 -0.0727272727272727 0.42510856786480705
v 0.263216081438678 -0.03636363636363632 0.42510856786480705
v 0.263216081438678 5.551115123125783e-17 0.42510856786480705
v 0.263216081438678 0.036363636363636376 0.42510856786480705
v 0.263216081438678 0.07272727272727275 0.42510856786480705
v 0.263216081438678 0.10909090909090913 0.42510856786480705
v 0.263216081438678 0.1454545454545455 0.42510856786480705
v 0.263216081438678 0.18181818181818188 0.42510856786480705
v 0.263216081438678 0.21818181818181825 0.42510856786480705
v 0.263216081438678 0.25454545454545463 0.42510856786480705
v 0.263216081438678 0.290909090909091 0.42510856786480705
v 0.263216081438678 0.3272727272727274 0.42510856786480705
v 0.263216081438678 0.36363636363636376 0.42510856786480705
v 0.263216081438678 0.4 0.42510856786480705
v 0.29306141834260735 -0.4 0.4051111021423867
v 0.29306141834260735 -0.36363636363636365 0.4051111021423867
v 0.29306141834260735 -0.32727272727272727 0.4051111021423867
v 0.29306141834260735 -0.2909090909090909 0.4051111021423867
v 0.29306141834260735 -0.2545454545454545 0.4051111021423867
v 0.29306141834260735 -0.21818181818181817 0.4051111021423867
v 0.29306141834260735 -0.18181818181818182 0.4051111021423867
v 0.29306141834260735 -0.14545454545454545 0.4051111021423867
v 0.29306141834260735 -0.10909090909090907 0.4051111021423867
v 0.29306141834260735 -0.0727272727272727 0.4051111021423867
v 0.29306141834260735 -0.03636363636363632 0.4051111021423867
v 0.29306141834260735 5.551115123125783e-17 0.4051111021423867
v 0.29306141834260735 0.036363636363636376 0.4051111021423867
v 0.29306141834260735 0.07272727272727275 0.4051111021423867
v 0.29306141834260735 0.10909090909090913 0.4051111021423867
v 0.29306141834260735 0.1454545454545455 0.4051111021423867
v 0.29306141834260735 0.18181818181818188 0.4051111021423867
v 0.29306141834260735 0.21818181818181825 0.4051111021423867
v 0.29306141834260735 0.25454545454545463 0.4051111021423867
v 0.29306141834260735 0.290909090909091 0.4051111021423867
v 0.29306141834260735 0.3272727272727274 0.4051111021423867
v 0.29306141834260735 0.36363636363636376 0.4051111021423867
v 0.29306141834260735 0.4 0.4051111021423867
v 0.3213938048432697 -0.4 0.383022221559489
v 0.3213938048432697 -0.36363636363636365 0.383022221559489
v 0.3213938048432697 -0.32727272727272727 0.383022221559489
v 0.3213938048432697 -0.2909090909090909 0.383022221559489
v 0.3213938048432697 -0.2545454545454545 0.383022221559489
v 0.3213938048432697 -0.21818181818181817 0.383022221559489
v 0.3213938048432697 -0.18181818181818182 0.383022221559489
v 0.3213938048432697 -0.14545454545454545 0.383022221559489
v 0.3213938048432697 -0.10909090909090907 0.383022221559489
v 0.3213938048432697 -0.0727272727272727 0.383022221559489
v 0.3213938048432697 -0.03636363636363632 0.383022221559489
v 0.3213938048432697 5.551115123125783e-17 0.383022221559489
v 0.3213938048432697 0.036363636363636376 0.383022221559489
v 0.3213938048432697 0.07272727272727275 0.383022221559489
v 0.3213938048432697 0.10909090909090913 0.383022221559489
v 0.3213938048432697 0.1454545454545455 0.383022221559489
v 0.3213938048432697 0.18181818181818188 0.383022221559489
v 0.3213938048432697 0.21818181818181825 0.383022221559489
v 0.3213938048432697 0.25454545454545463 0.383022221559489
v 0.3213938048432697 0.290909090909091 0.383022221559489
v 0.3213938048432697 0.3272727272727274 0.383022221559489
v 0.3213938048432697 0.36363636363636376 0.383022221559489
v 0.3213938048432697 0.4 0.383022221559489
f 1 25 2
f 1 24 25
f 2 26 3
f 2 25 26
f 3 27 4
f 3 26 27
f 4 28 5
f 4 27 28
f 5 29 6
f 5 28 29
f 6 30 7
f 6 29 30
f 7 31 8
f 7 30 31
f 8 32 9
f 8 31 32
f 9 33 10
f 9 32 33
f 10 34 11
f 10 33 34
f 11 35 12
f 11 34 35
f 12 36 13
f 12 35 36
f 13 37 14
f 13 36 37
f 14 38 15
f 14 37 38
f 15 39 16
f 15 38 39
f 16 40 17
f 16 39 40
f 17 41 18
f 17 40 41
f 18 42 19
f 18 41 42
f 19 43 20
f 19 42 43
f 20 44 21
f 20 43 44
f 21 45 22
f 21 44 45
f 22 46 23
f 22 45 46
f 24 48 25
f 24 47 48
f 25 49 26
f 25 48 49
f 26 50 27
f 26 49 50
f 27 51 28
f 27 50 51
f 28 52 29
f 28 51 52
f 29 53 30
f 29 52 53
f 30 54 31
f 30 53 54
f 31 55 32
f 31 54 55
f 32 56 33
f 32 55 56
f 33 57 34
f 33 56 57
f 34 58 35
f 34 57 58
f 35 59 36
f 35 58 59
f 36 60 37
f 36 59 60
f 37 61 38
f 37 60 61
f 38 62 39
f 38 61 62
f 39 63 40
f 39 62 63
f 40 64 41
f 40 63 64
f 41 65 42
f 41 64 65
f 42 66 43
f 42 65 66
f 43 67 44
f 43 66 67
f 44 68 45
f 44 67 68
f 45 69 46
f 45 68 69
f 47 71 48
f 47 70 71
f 48 72 49
f 48 71 72
f 49 73 50
f 49 72 73
f 50 74 51
f 50 73 74
f 51 75 52
f 51 74 75
f 52 76 53
f 52 75 76
f 53 77 54
f 53 76 77
f 54 78 55
f 54 77 78
f 55 79 56
f 55 78 79
f 56 80 57
f 56 79 80
f 57 81 58
f 57 80 81
f 58 82 59
f 58 81 82
f 59 83 60
f 59 82 83
f 60 84 61
f 60 83 84
f 61 85 62
f 61 84 85
f 62 86 63
f 62 85 86
f 63 87 64
f 63 86 87
f 64 88 65
f 64 87 88
f 65 89 66
f 65 88 89
f 66 90 67
f 66 89 90
f 67 91 68
f 67 90 91
f 68 92 69
f 68 91 92
f 70 94 71
f 70 93 94
f 71 95 72
f 71 94 95
f 72 96 73
f 72 95 96
f 73 97 74
f 73 96 97
f 74 98 75
f 74 97 98
f 75 99 76
f 75 98 99
f 76 100 77
f 76 99 100
f 77 101 78
f 77 100 101
f 78 102 79
f 78 101 102
f 79 103 80
f 79 102 103
f 80 104 81
f 80 103 104
f 81 105 82
f 81 104 105
f 82 106 83
f 82 105 106
f 83 107 84
f 83 106 107
f 84 108 85
f 84 107 108
f 85 109 86
f 85 108 109
f 86 110 87
f 86 109 110
f 87 111 88
f 87 110 111
f 88 112 89
f 88 111 112
f 89 113 90
f 89 112 113
f 90 114 91
f 90 113 114
f 91 115 92
f 91 114 115
f 93 117 94
f 93 116 117
f 94 118 95
f 94 117 118
f 95 119 96
f 95 118 119
f 96 120 97
f 96 119 120
f 97 121 98
f 97 120 121
f 98 122 99
f 98 121 122
f 99 123 100
f 99 122 123
f 100 124 101
f 100 123 124
f 101 125 102
f 101 124 125
f 102 126 103
f 102 125 126
f 103 127 104
f 103 126 127
f 104 128 105
f 104 127 128
f 105 129 106
f 105 128 129
f 106 130 107
f 106 129 130
f 107 131 108
f 107 130 131
f 108 132 109
f 108 131 132
f 109 133 110
f 109 132 133
f 110 134 111
f 110 133 134
f 111 135 112
f 111 134 135
f 112 136 113
f 112 135 136
f 113 137 114
f 113 136 137
f 114 138 115
f 114 137 138
f 116 140 117
f 116 139 140
f 117 141 118
f 117 140 141
f 118 142 119
f 118 141 142
f 119 143 120
f 119 142 143
f 120 144 121
f 120 143 144
f 121 145 122
f 121 144 145
f 122 146 123
f 122 145 146
f 123 147 124
f 123 146 147
f 124 148 125
f 124 147 148
f 125 149 126
f 125 148 149
f 126 150 127
f 126 149 150
f 127 151 128
f 127 150 151
f 128 152 129
f 128 151 152
f 129 153 130
f 129 152 153
f 130 154 131
f 130 153 154
f 131 155 132
f 131 154 155
f 132 156 133
f 132 155 156
f 133 157 134
f 133 156 157
f 134 158 135
f 134 157 158
f 135 159 136
f 135 158 159
f 136 160 137
f 136 159 160
f 137 161 138
f 137 160 161
f 139 163 140
f 139 162 163
f 140 164 141
f 140 163 164
f 141 165 142
f 141 164 165
f 142 166 143
f 142 165 166
f 143 167 144
f 143 166 167
f 144 168 145
f 144 167 168
f 145 169 146
f 145 168 169
f 146 170 147
f 146 169 170
f 147 171 148
f 147 170 171
f 148 172 149
f 148 171 172
f 149 173 150
f 149 172 173
f 150 174 151
f 150 173 174
f 151 175 152
f 151 174 175
f 152 176 153
f 152 175 176
f 153 177 154
f 153 176 177
f 154 178 155
f 154 177 178
f 155 179 156
f 155 178 179
f 156 180 157
f 156 179 180
f 157 181 158
f 157 180 181
f 158 182 159
f 158 181 182
f 159 183 160
f 159 182 183
f 160 184 161
f 160 183 184
f 162 186 163
f 162 185 186
f 163 187 164
f 163 186 187
f 164 188 165
f 164 187 188
f 165 189 166
f 165 188 189
f 166 190 167
f 166 189 190
f 167 191 168
f 167 190 191
f 168 192 169
f 168 191 192
f 169 193 170
f 169 192 193
f 170 194 171
f 170 193 194
f 171 195 172
f 171 194 195
f 172 196 173
f 172 195 196
f 173 197 174
f 173 196 197
f 174 198 175
f 174 197 198
f 175 199 176
f 175 198 199
f 176 200 177
f 176 199 200
f 177 201 178
f 177 200 201
f 178 202 179
f 178 201 202
f 179 203 180
f 179 202 203
f 180 204 181
f 180 203 204
f 181 205 182
f 181 204 205
f 182 206 183
f 182 205 206
f 183 207 184
f 183 206 207
f 185 209 186
f 185 208 209
f 186 210 187
f 186 209 210
f 187 211 188
f 187 210 211
f 188 212 189
f 188 211 212
f 189 213 190
f 189 212 213
f 190 214 191
f 190 213 214
f 191 215 192
f 191 214 215
f 192 216 193
f 192 215 216
f 193 217 194
f 193 216 217
f 194 218 195
f 194 217 218
f 195 219 196
f 195 218 219
f 196 220 197
f 196 219 220
f 197 221 198
f 197 220 221
f 198 222 199
f 198 221 222
f 199 223 200
f 199 222 223
f 200 224 201
f 200 223 224
f 201 225 202
f 201 224 225
f 202 226 203
f 202 225 226
f 203 227 204
f 203 226 227
f 204 228 205
f 204 227 228
f 205 229 206
f 205 228 229
f 206 230 207
f 206 229 230
f 208 232 209
f 208 231 232
f 209 233 210
f 209 232 233
f 210 234 211
f 210 233 234
f 211 235 212
f 211 234 235
f 212 236 213
f 212 235 236
f 213 237 214
f 213 236 237
f 214 238 215
f 214 237 238
f 215 239 216
f 215 238 239
f 216 240 217
f 216 239 240
f 217 241 218
f 217 240 241
f 218 242 219
f 218 241 242
f 219 243 220
f 219 242 243
f 220 244 221
f 220 243 244
f 221 245 222
f 221 244 245
f 222 246 223
f 222 245 246
f 223 247 224
f 223 246 247
f 224 248 225
f 224 247 248
f 225 249 226
f 225 248 249
f 226 250 227
f 226 249 250
f 227 251 228
f 227 250 251
f 228 252 229
f 228 251 252
f 229 253 230
f 229 252 253
f 231 255 232
f 231 254 255
f 232 256 233
f 232 255 256
f 233 257 234
f 233 256 257
f 234 258 235
f 234 257 258
f 235 259 236
f 235 258 259
f 236 260 237
f 236 259 260
f 237 261 238
f 237 260 261
f 238 262 239
f 238 261 262
f 239 263 240
f 239 262 263
f 240 264 241
f 240 263 264
f 241 265 242
f 241 264 265
f 242 266 243
f 242 265 266
f 243 267 244
f 243 266 267
f 244 268 245
f 244 267 268
f 245 269 246
f 245 268 269
f 246 270 247
f 246 269 270
f 247 271 248
f 247 270 271
f 248 272 249
f 248 271 272
f 249 273 250
f 249 272 273
f 250 274 251
f 250 273 274
f 251 275 252
f 251 274 275
f 252 276 253
f 252 275 276
f 254 278 255
f 254 277 278
f 255 279 256
f 255 278 279
f 256 280 257
f 256 279 280
f 257 281 258
f 257 280 281
f 258 282 259
f 258 281 282
f 259 283 260
f 259 282 283
f 260 284 261
f 260 283 284
f 261 285 262
f 261 284 285
f 262 286 263
f 262 285 286
f 263 287 264
f 263 286 287
f 264 288 265
f 264 287 288
f 265 289 266
f 265 288 289
f 266 290 267
f 266 289 290
f 267 291 268
f 267 290 291
f 268 292 269
f 268 291 292
f 269 293 270
f 269 292 293
f 270 294 271
f 270 293 294
f 271 295 272
f 271 294 295
f 272 296 273
f 272 295 296
f 273 297 274
f 273 296 297
f 274 298 275
f 274 297 298
f 275 299 276
f 275 298 299
f 277 301 278
f 277 300 301
f 278 302 279
f 278 301 302
f 279 303 280
f 279 302 303
f 280 304 281
f 280 303 304
f 281 305 282
f 281 304 305
f 282 306 283
f 282 305 306
f 283 307 284
f 283 306 307
f 284 308 285
f 284 307 308
f 285 309 286
f 285 308 309
f 286 310 287
f 286 309 310
f 287 311 288
f 287 310 311
f 288 312 289
f 288 311 312
f 289 313 290
f 289 312 313
f 290 314 291
f 290 313 314
f 291 315 292
f 291 314 315
f 292 316 293
f 292 315 316
f 293 317 294
f 293 316 317
f 294 318 295
f 294 317 318
f 295 319 296
f 295 318 319
f 296 320 297
f 296 319 320
f 297 321 298
f 297 320 321
f 298 322 299
f 298 321 322
f 300 324 301
f 300 323 324
f 301 325 302
f 301 324 325
f 302 326 303
f 302 325 326
f 303 327 304
f 303 326 327
f 304 328 305
f 304 327 328
f 305 329 306
f 305 328 329
f 306 330 307
f 306 329 330
f 307 331 308
f 307 330 331
f 308 332 309
f 308 331 332
f 309 333 310
f 309 332 333
f 310 334 311
f 310 333 334
f 311 335 312
f 311 334 335
f 312 336 313
f 312 335 336
f 313 337 314
f 313 336 337
f 314 338 315
f 314 337 338
f 315 339 316
f 315 338 339
f 316 340 317
f 316 339 340
f 317 341 318
f 317 340 341
f 318 342 319
f 318 341 342
f 319 343 320
f 319 342 343
f 320 344 321
f 320 343 344
f 321 345 322
f 321 344 345
f 323 347 324
f 323 346 347
f 324 348 325
f 324 347 348
f 325 349 326
f 325 348 349
f 326 350 327
f 326 349 350
f 327 351 328
f 327 350 351
f 328 352 329
f 328 351 352
f 329 353 330
f 329 352 353
f 330 354 331
f 330 353 354
f 331 355 332
f 331 354 355
f 332 356 333
f 332 355 356
f 333 357 334
f 333 356 357
f 334 358 335
f 334 357 358
f 335 359 336
f 335 358 359
f 336 360 337
f 336 359 360
f 337 361 338
f 337 360 361
f 338 362 339
f 338 361 362
f 339 363 340
f 339 362 363
f 340 364 341
f 340 363 364
f 341 365 342
f 341 364 365
f 342 366 343
f 342 365 366
f 343 367 344
f 343 366 367
f 344 368 345
f 344 367 368
f 346 370 347
f 346 369 370
f 347 371 348
f 347 370 371
f 348 372 349
f 348 371 372
f 349 373 350
f 349 372 373
f 350 374 351
f 350 373 374
f 351 375 352
f 351 374 375
f 352 376 353
f 352 375 376
f 353 377 354
f 353 376 377
f 354 378 355
f 354 377 378
f 355 379 356
f 355 378 379
f 356 380 357
f 356 379 380
f 357 381 358
f 357 380 381
f 358 382 359
f 358 381 382
f 359 383 360
f 359 382 383
f 360 384 361
f 360 383 384
f 361 385 362
f 361 384 385
f 362 386 363
f 362 385 386
f 363 387 364
f 363 386 387
f 364 388 365
f 364 387 388
f 365 389 366
f 365 388 389
f 366 390 367
f 366 389 390
f 367 391 368
f 367 390 391
f 369 393 370
f 369 392 393
f 370 394 371
f 370 393 394
f 371 395 372
f 371 394 395
f 372 396 373
f 372 395 396
f 373 397 374
f 373 396 397
f 374 398 375
f 374 397 398
f 375 399 376
f 375 398 399
f 376 400 377
f 376 399 400
f 377 401 378
f 377 400 401
f 378 402 379
f 378 401 402
f 379 403 380
f 379 402 403
f 380 404 381
f 380 403 404
f 381 405 382
f 381 404 405
f 382 406 383
f 382 405 406
f 383 407 384
f 383 406 407
f 384 408 385
f 384 407 408
f 385 409 386
f 385 408 409
f 386 410 387
f 386 409 410
f 387 411 388
f 387 410 411
f 388 412 389
f 388 411 412
f 389 413 390
f 389 412 413
f 390 414 391
f 390 413 414
