v -3.489949670250108 -50.0 99.93908270190957
v -3.489949670250108 -48.611111111111114 99.93908270190957
v -3.489949670250108 -47.22222222222222 99.93908270190957
v -3.489949670250108 -45.833333333333336 99.93908270190957
v -3.489949670250108 -44.44444444444444 99.93908270190957
v -3.489949670250108 -43.05555555555556 99.93908270190957
v -3.489949670250108 -41.66666666666667 99.93908270190957
v -3.489949670250108 -40.27777777777778 99.93908270190957
v -3.489949670250108 -38.888888888888886 99.93908270190957
v -3.489949670250108 -37.5 99.93908270190957
v -3.489949670250108 -36.111111111111114 99.93908270190957
v -3.489949670250108 -34.72222222222222 99.93908270190957
v -3.489949670250108 -33.333333333333336 99.93908270190957
v -3.489949670250108 -31.944444444444446 99.93908270190957
v -3.489949670250108 -30.555555555555557 99.93908270190957
v -3.489949670250108 -29.166666666666668 99.93908270190957
v -3.489949670250108 -27.77777777777778 99.93908270190957
v -3.489949670250108 -26.38888888888889 99.93908270190957
v -3.489949670250108 -25.0 99.93908270190957
v -3.489949670250108 -23.61111111111111 99.93908270190957
v -3.489949670250108 -22.22222222222222 99.93908270190957
v -3.489949670250108 -20.833333333333336 99.93908270190957
v -3.489949670250108 -19.444444444444446 99.93908270190957
v -3.489949670250108 -18.055555555555557 99.93908270190957
v -3.489949670250108 -16.66666666666667 99.93908270190957
v -3.489949670250108 -15.277777777777779 99.93908270190957
v -3.489949670250108 -13.888888888888893 99.93908270190957
v -3.489949670250108 -12.5 99.93908270190957
v -3.489949670250108 -11.111111111111114 99.93908270190957
v -3.489949670250108 -9.722222222222221 99.93908270190957
v -3.489949670250108 -8.333333333333336 99.93908270190957
v -3.489949670250108 -6.944444444444443 99.93908270190957
v -3.489949670250108 -5.555555555555557 99.93908270190957
v -3.489949670250108 -4.166666666666671 99.93908270190957
v -3.489949670250108 -2.7777777777777786 99.93908270190957
v -3.489949670250108 -1.3888888888888928 99.93908270190957
v -3.489949670250108 0.0 99.93908270190957
v -3.489949670250108 1.3888888888888857 99.93908270190957
v -3.489949670250108 2.7777777777777786 99.93908270190957
v -3.489949670250108 4.166666666666664 99.93908270190957
v -3.489949670250108 5.555555555555557 99.93908270190957
v -3.489949670250108 6.944444444444443 99.93908270190957
v -3.489949670250108 8.333333333333329 99.93908270190957
v -3.489949670250108 9.722222222222221 99.93908270190957
v -3.489949670250108 11.111111111111107 99.93908270190957
v -3.489949670250108 12.5 99.93908270190957
v -3.489949670250108 13.888888888888886 99.93908270190957
v -3.489949670250108 15.277777777777771 99.93908270190957
v -3.489949670250108 16.666666666666657 99.93908270190957
v -3.489949670250108 18.055555555555557 99.93908270190957
v -3.489949670250108 19.444444444444443 99.93908270190957
v -3.489949670250108 20.83333333333333 99.93908270190957
v -3.489949670250108 22.222222222222214 99.93908270190957
v -3.489949670250108 23.611111111111114 99.93908270190957
v -3.489949670250108 25.0 99.93908270190957
v -3.489949670250108 26.388888888888886 99.93908270190957
v -3.489949670250108 27.77777777777777 99.93908270190957
v -3.489949670250108 29.166666666666657 99.93908270190957
v -3.489949670250108 30.555555555555557 99.93908270190957
v -3.489949670250108 31.944444444444443 99.93908270190957
v -3.489949670250108 33.33333333333333 99.93908270190957
v -3.489949670250108 34.722222222222214 99.93908270190957
v -3.489949670250108 36.111111111111114 99.93908270190957
v -3.489949670250108 37.5 99.93908270190957
v -3.489949670250108 38.888888888888886 99.93908270190957
v -3.489949670250108 40.27777777777777 99.93908270190957
v -3.489949670250108 41.66666666666666 99.93908270190957
v -3.489949670250108 43.05555555555556 99.93908270190957
v -3.489949670250108 44.44444444444444 99.93908270190957
v -3.489949670250108 45.83333333333333 99.93908270190957
v -3.489949670250108 47.222222222222214 99.93908270190957
v -3.489949670250108 48.611111111111114 99.93908270190957
v -3.489949670250108 50.0 99.93908270190957
v -2.094241988335705 -50.0 99.97806834748455
v -2.094241988335705 -48.611111111111114 99.97806834748455
v -2.094241988335705 -47.22222222222222 99.97806834748455
v -2.094241988335705 -45.833333333333336 99.97806834748455
v -2.094241988335705 -44.44444444444444 99.97806834748455
v -2.094241988335705 -43.05555555555556 99.97806834748455
v -2.094241988335705 -41.66666666666667 99.97806834748455
v -2.094241988335705 -40.27777777777778 99.97806834748455
v -2.094241988335705 -38.888888888888886 99.97806834748455
v -2.094241988335705 -37.5 99.97806834748455
v -2.094241988335705 -36.111111111111114 99.97806834748455
v -2.094241988335705 -34.72222222222222 99.97806834748455
v -2.094241988335705 -33.333333333333336 99.97806834748455
v -2.094241988335705 -31.944444444444446 99.97806834748455
v -2.094241988335705 -30.555555555555557 99.97806834748455
v -2.094241988335705 -29.166666666666668 99.97806834748455
v -2.094241988335705 -27.77777777777778 99.97806834748455
v -2.094241988335705 -26.38888888888889 99.97806834748455
v -2.094241988335705 -25.0 99.97806834748455
v -2.094241988335705 -23.61111111111111 99.97806834748455
v -2.094241988335705 -22.22222222222222 99.97806834748455
v -2.094241988335705 -20.833333333333336 99.97806834748455
v -2.094241988335705 -19.444444444444446 99.97806834748455
v -2.094241988335705 -18.055555555555557 99.97806834748455
v -2.094241988335705 -16.66666666666667 99.97806834748455
v -2.094241988335705 -15.277777777777779 99.97806834748455
v -2.094241988335705 -13.888888888888893 99.97806834748455
v -2.094241988335705 -12.5 99.97806834748455
v -2.094241988335705 -11.111111111111114 99.97806834748455
v -2.094241988335705 -9.722222222222221 99.97806834748455
v -2.094241988335705 -8.333333333333336 99.97806834748455
v -2.094241988335705 -6.944444444444443 99.97806834748455
v -2.094241988335705 -5.555555555555557 99.97806834748455
v -2.094241988335705 -4.166666666666671 99.97806834748455
v -2.094241988335705 -2.7777777777777786 99.97806834748455
v -2.094241988335705 -1.3888888888888928 99.97806834748455
v -2.094241988335705 0.0 99.97806834748455
v -2.094241988335705 1.3888888888888857 99.97806834748455
v -2.094241988335705 2.7777777777777786 99.97806834748455
v -2.094241988335705 4.166666666666664 99.97806834748455
v -2.094241988335705 5.555555555555557 99.97806834748455
v -2.094241988335705 6.944444444444443 99.97806834748455
v -2.094241988335705 8.333333333333329 99.97806834748455
v -2.094241988335705 9.722222222222221 99.97806834748455
v -2.094241988335705 11.111111111111107 99.97806834748455
v -2.094241988335705 12.5 99.97806834748455
v -2.094241988335705 13.888888888888886 99.97806834748455
v -2.094241988335705 15.277777777777771 99.97806834748455
v -2.094241988335705 16.666666666666657 99.97806834748455
v -2.094241988335705 18.055555555555557 99.97806834748455
v -2.094241988335705 19.444444444444443 99.97806834748455
v -2.094241988335705 20.83333333333333 99.97806834748455
v -2.094241988335705 22.222222222222214 99.97806834748455
v -2.094241988335705 23.611111111111114 99.97806834748455
v -2.094241988335705 25.0 99.97806834748455
v -2.094241988335705 26.388888888888886 99.97806834748455
v -2.094241988335705 27.77777777777777 99.97806834748455
v -2.094241988335705 29.166666666666657 99.97806834748455
v -2.094241988335705 30.555555555555557 99.97806834748455
v -2.094241988335705 31.944444444444443 99.97806834748455
v -2.094241988335705 33.33333333333333 99.97806834748455
v -2.094241988335705 34.722222222222214 99.97806834748455
v -2.094241988335705 36.111111111111114 99.97806834748455
v -2.094241988335705 37.5 99.97806834748455
v -2.094241988335705 38.888888888888886 99.97806834748455
v -2.094241988335705 40.27777777777777 99.97806834748455
v -2.094241988335705 41.66666666666666 99.97806834748455
v -2.094241988335705 43.05555555555556 99.97806834748455
v -2.094241988335705 44.44444444444444 99.97806834748455
v -2.094241988335705 45.83333333333333 99.97806834748455
v -2.094241988335705 47.222222222222214 99.97806834748455
v -2.094241988335705 48.611111111111114 99.97806834748455
v -2.094241988335705 50.0 99.97806834748455
v -0.6981260297961623 -50.0 99.99756307053947
v -0.6981260297961623 -48.611111111111114 99.99756307053947
v -0.6981260297961623 -47.22222222222222 99.99756307053947
v -0.6981260297961623 -45.833333333333336 99.99756307053947
v -0.6981260297961623 -44.44444444444444 99.99756307053947
v -0.6981260297961623 -43.05555555555556 99.99756307053947
v -0.6981260297961623 -41.66666666666667 99.99756307053947
v -0.6981260297961623 -40.27777777777778 99.99756307053947
v -0.6981260297961623 -38.888888888888886 99.99756307053947
v -0.6981260297961623 -37.5 99.99756307053947
v -0.6981260297961623 -36.111111111111114 99.99756307053947
v -0.6981260297961623 -34.72222222222222 99.99756307053947
v -0.6981260297961623 -33.333333333333336 99.99756307053947
v -0.6981260297961623 -31.944444444444446 99.99756307053947
v -0.6981260297961623 -30.555555555555557 99.99756307053947
v -0.6981260297961623 -29.166666666666668 99.99756307053947
v -0.6981260297961623 -27.77777777777778 99.99756307053947
v -0.6981260297961623 -26.38888888888889 99.99756307053947
v -0.6981260297961623 -25.0 99.99756307053947
v -0.6981260297961623 -23.61111111111111 99.99756307053947
v -0.6981260297961623 -22.22222222222222 99.99756307053947
v -0.6981260297961623 -20.833333333333336 99.99756307053947
v -0.6981260297961623 -19.444444444444446 99.99756307053947
v -0.6981260297961623 -18.055555555555557 99.99756307053947
v -0.6981260297961623 -16.66666666666667 99.99756307053947
v -0.6981260297961623 -15.277777777777779 99.99756307053947
v -0.6981260297961623 -13.888888888888893 99.99756307053947
v -0.6981260297961623 -12.5 99.99756307053947
v -0.6981260297961623 -11.111111111111114 99.99756307053947
v -0.6981260297961623 -9.722222222222221 99.99756307053947
v -0.6981260297961623 -8.333333333333336 99.99756307053947
v -0.6981260297961623 -6.944444444444443 99.99756307053947
v -0.6981260297961623 -5.555555555555557 99.99756307053947
v -0.6981260297961623 -4.166666666666671 99.99756307053947
v -0.6981260297961623 -2.7777777777777786 99.99756307053947
v -0.6981260297961623 -1.3888888888888928 99.99756307053947
v -0.6981260297961623 0.0 99.99756307053947
v -0.6981260297961623 1.3888888888888857 99.99756307053947
v -0.6981260297961623 2.7777777777777786 99.99756307053947
v -0.6981260297961623 4.166666666666664 99.99756307053947
v -0.6981260297961623 5.555555555555557 99.99756307053947
v -0.6981260297961623 6.944444444444443 99.99756307053947
v -0.6981260297961623 8.333333333333329 99.99756307053947
v -0.6981260297961623 9.722222222222221 99.99756307053947
v -0.6981260297961623 11.111111111111107 99.99756307053947
v -0.6981260297961623 12.5 99.99756307053947
v -0.6981260297961623 13.888888888888886 99.99756307053947
v -0.6981260297961623 15.277777777777771 99.99756307053947
v -0.6981260297961623 16.666666666666657 99.99756307053947
v -0.6981260297961623 18.055555555555557 99.99756307053947
v -0.6981260297961623 19.444444444444443 99.99756307053947
v -0.6981260297961623 20.83333333333333 99.99756307053947
v -0.6981260297961623 22.222222222222214 99.99756307053947
v -0.6981260297961623 23.611111111111114 99.99756307053947
v -0.6981260297961623 25.0 99.99756307053947
v -0.6981260297961623 26.388888888888886 99.99756307053947
v -0.6981260297961623 27.77777777777777 99.99756307053947
v -0.6981260297961623 29.166666666666657 99.99756307053947
v -0.6981260297961623 30.555555555555557 99.99756307053947
v -0.6981260297961623 31.944444444444443 99.99756307053947
v -0.6981260297961623 33.33333333333333 99.99756307053947
v -0.6981260297961623 34.722222222222214 99.99756307053947
v -0.6981260297961623 36.111111111111114 99.99756307053947
v -0.6981260297961623 37.5 99.99756307053947
v -0.6981260297961623 38.888888888888886 99.99756307053947
v -0.6981260297961623 40.27777777777777 99.99756307053947
v -0.6981260297961623 41.66666666666666 99.99756307053947
v -0.6981260297961623 43.05555555555556 99.99756307053947
v -0.6981260297961623 44.44444444444444 99.99756307053947
v -0.6981260297961623 45.83333333333333 99.99756307053947
v -0.6981260297961623 47.222222222222214 99.99756307053947
v -0.6981260297961623 48.611111111111114 99.99756307053947
v -0.6981260297961623 50.0 99.99756307053947
v 0.69812602979615 -50.0 99.99756307053947
v 0.69812602979615 -48.611111111111114 99.99756307053947
v 0.69812602979615 -47.22222222222222 99.99756307053947
v 0.69812602979615 -45.833333333333336 99.99756307053947
v 0.69812602979615 -44.44444444444444 99.99756307053947
v 0.69812602979615 -43.05555555555556 99.99756307053947
v 0.69812602979615 -41.66666666666667 99.99756307053947
v 0.69812602979615 -40.27777777777778 99.99756307053947
v 0.69812602979615 -38.888888888888886 99.99756307053947
v 0.69812602979615 -37.5 99.99756307053947
v 0.69812602979615 -36.111111111111114 99.99756307053947
v 0.69812602979615 -34.72222222222222 99.99756307053947
v 0.69812602979615 -33.333333333333336 99.99756307053947
v 0.69812602979615 -31.944444444444446 99.99756307053947
v 0.69812602979615 -30.555555555555557 99.99756307053947
v 0.69812602979615 -29.166666666666668 99.99756307053947
v 0.69812602979615 -27.77777777777778 99.99756307053947
v 0.69812602979615 -26.38888888888889 99.99756307053947
v 0.69812602979615 -25.0 99.99756307053947
v 0.69812602979615 -23.61111111111111 99.99756307053947
v 0.69812602979615 -22.22222222222222 99.99756307053947
v 0.69812602979615 -20.833333333333336 99.99756307053947
v 0.69812602979615 -19.444444444444446 99.99756307053947
v 0.69812602979615 -18.055555555555557 99.99756307053947
v 0.69812602979615 -16.66666666666667 99.99756307053947
v 0.69812602979615 -15.277777777777779 99.99756307053947
v 0.69812602979615 -13.888888888888893 99.99756307053947
v 0.69812602979615 -12.5 99.99756307053947
v 0.69812602979615 -11.111111111111114 99.99756307053947
v 0.69812602979615 -9.722222222222221 99.99756307053947
v 0.69812602979615 -8.333333333333336 99.99756307053947
v 0.69812602979615 -6.944444444444443 99.99756307053947
v 0.69812602979615 -5.555555555555557 99.99756307053947
v 0.69812602979615 -4.166666666666671 99.99756307053947
v 0.69812602979615 -2.7777777777777786 99.99756307053947
v 0.69812602979615 -1.3888888888888928 99.99756307053947
v 0.69812602979615 0.0 99.99756307053947
v 0.69812602979615 1.3888888888888857 99.99756307053947
v 0.69812602979615 2.7777777777777786 99.99756307053947
v 0.69812602979615 4.166666666666664 99.99756307053947
v 0.69812602979615 5.555555555555557 99.99756307053947
v 0.69812602979615 6.944444444444443 99.99756307053947
v 0.69812602979615 8.333333333333329 99.99756307053947
v 0.69812602979615 9.722222222222221 99.99756307053947
v 0.69812602979615 11.111111111111107 99.99756307053947
v 0.69812602979615 12.5 99.99756307053947
v 0.69812602979615 13.888888888888886 99.99756307053947
v 0.69812602979615 15.277777777777771 99.99756307053947
v 0.69812602979615 16.666666666666657 99.99756307053947
v 0.69812602979615 18.055555555555557 99.99756307053947
v 0.69812602979615 19.444444444444443 99.99756307053947
v 0.69812602979615 20.83333333333333 99.99756307053947
v 0.69812602979615 22.222222222222214 99.99756307053947
v 0.69812602979615 23.611111111111114 99.99756307053947
v 0.69812602979615 25.0 99.99756307053947
v 0.69812602979615 26.388888888888886 99.99756307053947
v 0.69812602979615 27.77777777777777 99.99756307053947
v 0.69812602979615 29.166666666666657 99.99756307053947
v 0.69812602979615 30.555555555555557 99.99756307053947
v 0.69812602979615 31.944444444444443 99.99756307053947
v 0.69812602979615 33.33333333333333 99.99756307053947
v 0.69812602979615 34.722222222222214 99.99756307053947
v 0.69812602979615 36.111111111111114 99.99756307053947
v 0.69812602979615 37.5 99.99756307053947
v 0.69812602979615 38.888888888888886 99.99756307053947
v 0.69812602979615 40.27777777777777 99.99756307053947
v 0.69812602979615 41.66666666666666 99.99756307053947
v 0.69812602979615 43.05555555555556 99.99756307053947
v 0.69812602979615 44.44444444444444 99.99756307053947
v 0.69812602979615 45.83333333333333 99.99756307053947
v 0.69812602979615 47.222222222222214 99.99756307053947
v 0.69812602979615 48.611111111111114 99.99756307053947
v 0.69812602979615 50.0 99.99756307053947
v 2.0942419883356926 -50.0 99.97806834748455
v 2.0942419883356926 -48.611111111111114 99.97806834748455
v 2.0942419883356926 -47.22222222222222 99.97806834748455
v 2.0942419883356926 -45.833333333333336 99.97806834748455
v 2.0942419883356926 -44.44444444444444 99.97806834748455
v 2.0942419883356926 -43.05555555555556 99.97806834748455
v 2.0942419883356926 -41.66666666666667 99.97806834748455
v 2.0942419883356926 -40.27777777777778 99.97806834748455
v 2.0942419883356926 -38.888888888888886 99.97806834748455
v 2.0942419883356926 -37.5 99.97806834748455
v 2.0942419883356926 -36.111111111111114 99.97806834748455
v 2.0942419883356926 -34.72222222222222 99.97806834748455
v 2.0942419883356926 -33.333333333333336 99.97806834748455
v 2.0942419883356926 -31.944444444444446 99.97806834748455
v 2.0942419883356926 -30.555555555555557 99.97806834748455
v 2.0942419883356926 -29.166666666666668 99.97806834748455
v 2.0942419883356926 -27.77777777777778 99.97806834748455
v 2.0942419883356926 -26.38888888888889 99.97806834748455
v 2.0942419883356926 -25.0 99.97806834748455
v 2.0942419883356926 -23.61111111111111 99.97806834748455
v 2.0942419883356926 -22.22222222222222 99.97806834748455
v 2.0942419883356926 -20.833333333333336 99.97806834748455
v 2.0942419883356926 -19.444444444444446 99.97806834748455
v 2.0942419883356926 -18.055555555555557 99.97806834748455
v 2.0942419883356926 -16.66666666666667 99.97806834748455
v 2.0942419883356926 -15.277777777777779 99.97806834748455
v 2.0942419883356926 -13.888888888888893 99.97806834748455
v 2.0942419883356926 -12.5 99.97806834748455
v 2.0942419883356926 -11.111111111111114 99.97806834748455
v 2.0942419883356926 -9.722222222222221 99.97806834748455
v 2.0942419883356926 -8.333333333333336 99.97806834748455
v 2.0942419883356926 -6.944444444444443 99.97806834748455
v 2.0942419883356926 -5.555555555555557 99.97806834748455
v 2.0942419883356926 -4.166666666666671 99.97806834748455
v 2.0942419883356926 -2.7777777777777786 99.97806834748455
v 2.0942419883356926 -1.3888888888888928 99.97806834748455
v 2.0942419883356926 0.0 99.97806834748455
v 2.0942419883356926 1.3888888888888857 99.97806834748455
v 2.0942419883356926 2.7777777777777786 99.97806834748455
v 2.0942419883356926 4.166666666666664 99.97806834748455
v 2.0942419883356926 5.555555555555557 99.97806834748455
v 2.0942419883356926 6.944444444444443 99.97806834748455
v 2.0942419883356926 8.333333333333329 99.97806834748455
v 2.0942419883356926 9.722222222222221 99.97806834748455
v 2.0942419883356926 11.111111111111107 99.97806834748455
v 2.0942419883356926 12.5 99.97806834748455
v 2.0942419883356926 13.888888888888886 99.97806834748455
v 2.0942419883356926 15.277777777777771 99.97806834748455
v 2.0942419883356926 16.666666666666657 99.97806834748455
v 2.0942419883356926 18.055555555555557 99.97806834748455
v 2.0942419883356926 19.444444444444443 99.97806834748455
v 2.0942419883356926 20.83333333333333 99.97806834748455
v 2.0942419883356926 22.222222222222214 99.97806834748455
v 2.0942419883356926 23.611111111111114 99.97806834748455
v 2.0942419883356926 25.0 99.97806834748455
v 2.0942419883356926 26.388888888888886 99.97806834748455
v 2.0942419883356926 27.77777777777777 99.97806834748455
v 2.0942419883356926 29.166666666666657 99.97806834748455
v 2.0942419883356926 30.555555555555557 99.97806834748455
v 2.0942419883356926 31.944444444444443 99.97806834748455
v 2.0942419883356926 33.33333333333333 99.97806834748455
v 2.0942419883356926 34.722222222222214 99.97806834748455
v 2.0942419883356926 36.111111111111114 99.97806834748455
v 2.0942419883356926 37.5 99.97806834748455
v 2.0942419883356926 38.888888888888886 99.97806834748455
v 2.0942419883356926 40.27777777777777 99.97806834748455
v 2.0942419883356926 41.66666666666666 99.97806834748455
v 2.0942419883356926 43.05555555555556 99.97806834748455
v 2.0942419883356926 44.44444444444444 99.97806834748455
v 2.0942419883356926 45.83333333333333 99.97806834748455
v 2.0942419883356926 47.222222222222214 99.97806834748455
v 2.0942419883356926 48.611111111111114 99.97806834748455
v 2.0942419883356926 50.0 99.97806834748455
v 3.4899496702500956 -50.0 99.93908270190957
v 3.4899496702500956 -48.611111111111114 99.93908270190957
v 3.4899496702500956 -47.22222222222222 99.93908270190957
v 3.4899496702500956 -45.833333333333336 99.93908270190957
v 3.4899496702500956 -44.44444444444444 99.93908270190957
v 3.4899496702500956 -43.05555555555556 99.93908270190957
v 3.4899496702500956 -41.66666666666667 99.93908270190957
v 3.4899496702500956 -40.27777777777778 99.93908270190957
v 3.4899496702500956 -38.888888888888886 99.93908270190957
v 3.4899496702500956 -37.5 99.93908270190957
v 3.4899496702500956 -36.111111111111114 99.93908270190957
v 3.4899496702500956 -34.72222222222222 99.93908270190957
v 3.4899496702500956 -33.333333333333336 99.93908270190957
v 3.4899496702500956 -31.944444444444446 99.93908270190957
v 3.4899496702500956 -30.555555555555557 99.93908270190957
v 3.4899496702500956 -29.166666666666668 99.93908270190957
v 3.4899496702500956 -27.77777777777778 99.93908270190957
v 3.4899496702500956 -26.38888888888889 99.93908270190957
v 3.4899496702500956 -25.0 99.93908270190957
v 3.4899496702500956 -23.61111111111111 99.93908270190957
v 3.4899496702500956 -22.22222222222222 99.93908270190957
v 3.4899496702500956 -20.833333333333336 99.93908270190957
v 3.4899496702500956 -19.444444444444446 99.93908270190957
v 3.4899496702500956 -18.055555555555557 99.93908270190957
v 3.4899496702500956 -16.66666666666667 99.93908270190957
v 3.4899496702500956 -15.277777777777779 99.93908270190957
v 3.4899496702500956 -13.888888888888893 99.93908270190957
v 3.4899496702500956 -12.5 99.93908270190957
v 3.4899496702500956 -11.111111111111114 99.93908270190957
v 3.4899496702500956 -9.722222222222221 99.93908270190957
v 3.4899496702500956 -8.333333333333336 99.93908270190957
v 3.4899496702500956 -6.944444444444443 99.93908270190957
v 3.4899496702500956 -5.555555555555557 99.93908270190957
v 3.4899496702500956 -4.166666666666671 99.93908270190957
v 3.4899496702500956 -2.7777777777777786 99.93908270190957
v 3.4899496702500956 -1.3888888888888928 99.93908270190957
v 3.4899496702500956 0.0 99.93908270190957
v 3.4899496702500956 1.3888888888888857 99.93908270190957
v 3.4899496702500956 2.7777777777777786 99.93908270190957
v 3.4899496702500956 4.166666666666664 99.93908270190957
v 3.4899496702500956 5.555555555555557 99.93908270190957
v 3.4899496702500956 6.944444444444443 99.93908270190957
v 3.4899496702500956 8.333333333333329 99.93908270190957
v 3.4899496702500956 9.722222222222221 99.93908270190957
v 3.4899496702500956 11.111111111111107 99.93908270190957
v 3.4899496702500956 12.5 99.93908270190957
v 3.4899496702500956 13.888888888888886 99.93908270190957
v 3.4899496702500956 15.277777777777771 99.93908270190957
v 3.4899496702500956 16.666666666666657 99.93908270190957
v 3.4899496702500956 18.055555555555557 99.93908270190957
v 3.4899496702500956 19.444444444444443 99.93908270190957
v 3.4899496702500956 20.83333333333333 99.93908270190957
v 3.4899496702500956 22.222222222222214 99.93908270190957
v 3.4899496702500956 23.611111111111114 99.93908270190957
v 3.4899496702500956 25.0 99.93908270190957
v 3.4899496702500956 26.388888888888886 99.93908270190957
v 3.4899496702500956 27.77777777777777 99.93908270190957
v 3.4899496702500956 29.166666666666657 99.93908270190957
v 3.4899496702500956 30.555555555555557 99.93908270190957
v 3.4899496702500956 31.944444444444443 99.93908270190957
v 3.4899496702500956 33.33333333333333 99.93908270190957
v 3.4899496702500956 34.722222222222214 99.93908270190957
v 3.4899496702500956 36.111111111111114 99.93908270190957
v 3.4899496702500956 37.5 99.93908270190957
v 3.4899496702500956 38.888888888888886 99.93908270190957
v 3.4899496702500956 40.27777777777777 99.93908270190957
v 3.4899496702500956 41.66666666666666 99.93908270190957
v 3.4899496702500956 43.05555555555556 99.93908270190957
v 3.4899496702500956 44.44444444444444 99.93908270190957
v 3.4899496702500956 45.83333333333333 99.93908270190957
v 3.4899496702500956 47.222222222222214 99.93908270190957
v 3.4899496702500956 48.611111111111114 99.93908270190957
v 3.4899496702500956 50.0 99.93908270190957
f 1 75 2
f 1 74 75
f 2 76 3
f 2 75 76
f 3 77 4
f 3 76 77
f 4 78 5
f 4 77 78
f 5 79 6
f 5 78 79
f 6 80 7
f 6 79 80
f 7 81 8
f 7 80 81
f 8 82 9
f 8 81 82
f 9 83 10
f 9 82 83
f 10 84 11
f 10 83 84
f 11 85 12
f 11 84 85
f 12 86 13
f 12 85 86
f 13 87 14
f 13 86 87
f 14 88 15
f 14 87 88
f 15 89 16
f 15 88 89
f 16 90 17
f 16 89 90
f 17 91 18
f 17 90 91
f 18 92 19
f 18 91 92
f 19 93 20
f 19 92 93
f 20 94 21
f 20 93 94
f 21 95 22
f 21 94 95
f 22 96 23
f 22 95 96
f 23 97 24
f 23 96 97
f 24 98 25
f 24 97 98
f 25 99 26
f 25 98 99
f 26 100 27
f 26 99 100
f 27 101 28
f 27 100 101
f 28 102 29
f 28 101 102
f 29 103 30
f 29 102 103
f 30 104 31
f 30 103 104
f 31 105 32
f 31 104 105
f 32 106 33
f 32 105 106
f 33 107 34
f 33 106 107
f 34 108 35
f 34 107 108
f 35 109 36
f 35 108 109
f 36 110 37
f 36 109 110
f 37 111 38
f 37 110 111
f 38 112 39
f 38 111 112
f 39 113 40
f 39 112 113
f 40 114 41
f 40 113 114
f 41 115 42
f 41 114 115
f 42 116 43
f 42 115 116
f 43 117 44
f 43 116 117
f 44 118 45
f 44 117 118
f 45 119 46
f 45 118 119
f 46 120 47
f 46 119 120
f 47 121 48
f 47 120 121
f 48 122 49
f 48 121 122
f 49 123 50
f 49 122 123
f 50 124 51
f 50 123 124
f 51 125 52
f 51 124 125
f 52 126 53
f 52 125 126
f 53 127 54
f 53 126 127
f 54 128 55
f 54 127 128
f 55 129 56
f 55 128 129
f 56 130 57
f 56 129 130
f 57 131 58
f 57 130 131
f 58 132 59
f 58 131 132
f 59 133 60
f 59 132 133
f 60 134 61
f 60 133 134
f 61 135 62
f 61 134 135
f 62 136 63
f 62 135 136
f 63 137 64
f 63 136 137
f 64 138 65
f 64 137 138
f 65 139 66
f 65 138 139
f 66 140 67
f 66 139 140
f 67 141 68
f 67 140 141
f 68 142 69
f 68 141 142
f 69 143 70
f 69 142 143
f 70 144 71
f 70 143 144
f 71 145 72
f 71 144 145
f 72 146 73
f 72 145 146
f 74 148 75
f 74 147 148
f 75 149 76
f 75 148 149
f 76 150 77
f 76 149 150
f 77 151 78
f 77 150 151
f 78 152 79
f 78 151 152
f 79 153 80
f 79 152 153
f 80 154 81
f 80 153 154
f 81 155 82
f 81 154 155
f 82 156 83
f 82 155 156
f 83 157 84
f 83 156 157
f 84 158 85
f 84 157 158
f 85 159 86
f 85 158 159
f 86 160 87
f 86 159 160
f 87 161 88
f 87 160 161
f 88 162 89
f 88 161 162
f 89 163 90
f 89 162 163
f 90 164 91
f 90 163 164
f 91 165 92
f 91 164 165
f 92 166 93
f 92 165 166
f 93 167 94
f 93 166 167
f 94 168 95
f 94 167 168
f 95 169 96
f 95 168 169
f 96 170 97
f 96 169 170
f 97 171 98
f 97 170 171
f 98 172 99
f 98 171 172
f 99 173 100
f 99 172 173
f 100 174 101
f 100 173 174
f 101 175 102
f 101 174 175
f 102 176 103
f 102 175 176
f 103 177 104
f 103 176 177
f 104 178 105
f 104 177 178
f 105 179 106
f 105 178 179
f 106 180 107
f 106 179 180
f 107 181 108
f 107 180 181
f 108 182 109
f 108 181 182
f 109 183 110
f 109 182 183
f 110 184 111
f 110 183 184
f 111 185 112
f 111 184 185
f 112 186 113
f 112 185 186
f 113 187 114
f 113 186 187
f 114 188 115
f 114 187 188
f 115 189 116
f 115 188 189
f 116 190 117
f 116 189 190
f 117 191 118
f 117 190 191
f 118 192 119
f 118 191 192
f 119 193 120
f 119 192 193
f 120 194 121
f 120 193 194
f 121 195 122
f 121 194 195
f 122 196 123
f 122 195 196
f 123 197 124
f 123 196 197
f 124 198 125
f 124 197 198
f 125 199 126
f 125 198 199
f 126 200 127
f 126 199 200
f 127 201 128
f 127 200 201
f 128 202 129
f 128 201 202
f 129 203 130
f 129 202 203
f 130 204 131
f 130 203 204
f 131 205 132
f 131 204 205
f 132 206 133
f 132 205 206
f 133 207 134
f 133 206 207
f 134 208 135
f 134 207 208
f 135 209 136
f 135 208 209
f 136 210 137
f 136 209 210
f 137 211 138
f 137 210 211
f 138 212 139
f 138 211 212
f 139 213 140
f 139 212 213
f 140 214 141
f 140 213 214
f 141 215 142
f 141 214 215
f 142 216 143
f 142 215 216
f 143 217 144
f 143 216 217
f 144 218 145
f 144 217 218
f 145 219 146
f 145 218 219
f 147 221 148
f 147 220 221
f 148 222 149
f 148 221 222
f 149 223 150
f 149 222 223
f 150 224 151
f 150 223 224
f 151 225 152
f 151 224 225
f 152 226 153
f 152 225 226
f 153 227 154
f 153 226 227
f 154 228 155
f 154 227 228
f 155 229 156
f 155 228 229
f 156 230 157
f 156 229 230
f 157 231 158
f 157 230 231
f 158 232 159
f 158 231 232
f 159 233 160
f 159 232 233
f 160 234 161
f 160 233 234
f 161 235 162
f 161 234 235
f 162 236 163
f 162 235 236
f 163 237 164
f 163 236 237
f 164 238 165
f 164 237 238
f 165 239 166
f 165 238 239
f 166 240 167
f 166 239 240
f 167 241 168
f 167 240 241
f 168 242 169
f 168 241 242
f 169 243 170
f 169 242 243
f 170 244 171
f 170 243 244
f 171 245 172
f 171 244 245
f 172 246 173
f 172 245 246
f 173 247 174
f 173 246 247
f 174 248 175
f 174 247 248
f 175 249 176
f 175 248 249
f 176 250 177
f 176 249 250
f 177 251 178
f 177 250 251
f 178 252 179
f 178 251 252
f 179 253 180
f 179 252 253
f 180 254 181
f 180 253 254
f 181 255 182
f 181 254 255
f 182 256 183
f 182 255 256
f 183 257 184
f 183 256 257
f 184 258 185
f 184 257 258
f 185 259 186
f 185 258 259
f 186 260 187
f 186 259 260
f 187 261 188
f 187 260 261
f 188 262 189
f 188 261 262
f 189 263 190
f 189 262 263
f 190 264 191
f 190 263 264
f 191 265 192
f 191 264 265
f 192 266 193
f 192 265 266
f 193 267 194
f 193 266 267
f 194 268 195
f 194 267 268
f 195 269 196
f 195 268 269
f 196 270 197
f 196 269 270
f 197 271 198
f 197 270 271
f 198 272 199
f 198 271 272
f 199 273 200
f 199 272 273
f 200 274 201
f 200 273 274
f 201 275 202
f 201 274 275
f 202 276 203
f 202 275 276
f 203 277 204
f 203 276 277
f 204 278 205
f 204 277 278
f 205 279 206
f 205 278 279
f 206 280 207
f 206 279 280
f 207 281 208
f 207 280 281
f 208 282 209
f 208 281 282
f 209 283 210
f 209 282 283
f 210 284 211
f 210 283 284
f 211 285 212
f 211 284 285
f 212 286 213
f 212 285 286
f 213 287 214
f 213 286 287
f 214 288 215
f 214 287 288
f 215 289 216
f 215 288 289
f 216 290 217
f 216 289 290
f 217 291 218
f 217 290 291
f 218 292 219
f 218 291 292
f 220 294 221
f 220 293 294
f 221 295 222
f 221 294 295
f 222 296 223
f 222 295 296
f 223 297 224
f 223 296 297
f 224 298 225
f 224 297 298
f 225 299 226
f 225 298 299
f 226 300 227
f 226 299 300
f 227 301 228
f 227 300 301
f 228 302 229
f 228 301 302
f 229 303 230
f 229 302 303
f 230 304 231
f 230 303 304
f 231 305 232
f 231 304 305
f 232 306 233
f 232 305 306
f 233 307 234
f 233 306 307
f 234 308 235
f 234 307 308
f 235 309 236
f 235 308 309
f 236 310 237
f 236 309 310
f 237 311 238
f 237 310 311
f 238 312 239
f 238 311 312
f 239 313 240
f 239 312 313
f 240 314 241
f 240 313 314
f 241 315 242
f 241 314 315
f 242 316 243
f 242 315 316
f 243 317 244
f 243 316 317
f 244 318 245
f 244 317 318
f 245 319 246
f 245 318 319
f 246 320 247
f 246 319 320
f 247 321 248
f 247 320 321
f 248 322 249
f 248 321 322
f 249 323 250
f 249 322 323
f 250 324 251
f 250 323 324
f 251 325 252
f 251 324 325
f 252 326 253
f 252 325 326
f 253 327 254
f 253 326 327
f 254 328 255
f 254 327 328
f 255 329 256
f 255 328 329
f 256 330 257
f 256 329 330
f 257 331 258
f 257 330 331
f 258 332 259
f 258 331 332
f 259 333 260
f 259 332 333
f 260 334 261
f 260 333 334
f 261 335 262
f 261 334 335
f 262 336 263
f 262 335 336
f 263 337 264
f 263 336 337
f 264 338 265
f 264 337 338
f 265 339 266
f 265 338 339
f 266 340 267
f 266 339 340
f 267 341 268
f 267 340 341
f 268 342 269
f 268 341 342
f 269 343 270
f 269 342 343
f 270 344 271
f 270 343 344
f 271 345 272
f 271 344 345
f 272 346 273
f 272 345 346
f 273 347 274
f 273 346 347
f 274 348 275
f 274 347 348
f 275 349 276
f 275 348 349
f 276 350 277
f 276 349 350
f 277 351 278
f 277 350 351
f 278 352 279
f 278 351 352
f 279 353 280
f 279 352 353
f 280 354 281
f 280 353 354
f 281 355 282
f 281 354 355
f 282 356 283
f 282 355 356
f 283 357 284
f 283 356 357
f 284 358 285
f 284 357 358
f 285 359 286
f 285 358 359
f 286 360 287
f 286 359 360
f 287 361 288
f 287 360 361
f 288 362 289
f 288 361 362
f 289 363 290
f 289 362 363
f 290 364 291
f 290 363 364
f 291 365 292
f 291 364 365
f 293 367 294
f 293 366 367
f 294 368 295
f 294 367 368
f 295 369 296
f 295 368 369
f 296 370 297
f 296 369 370
f 297 371 298
f 297 370 371
f 298 372 299
f 298 371 372
f 299 373 300
f 299 372 373
f 300 374 301
f 300 373 374
f 301 375 302
f 301 374 375
f 302 376 303
f 302 375 376
f 303 377 304
f 303 376 377
f 304 378 305
f 304 377 378
f 305 379 306
f 305 378 379
f 306 380 307
f 306 379 380
f 307 381 308
f 307 380 381
f 308 382 309
f 308 381 382
f 309 383 310
f 309 382 383
f 310 384 311
f 310 383 384
f 311 385 312
f 311 384 385
f 312 386 313
f 312 385 386
f 313 387 314
f 313 386 387
f 314 388 315
f 314 387 388
f 315 389 316
f 315 388 389
f 316 390 317
f 316 389 390
f 317 391 318
f 317 390 391
f 318 392 319
f 318 391 392
f 319 393 320
f 319 392 393
f 320 394 321
f 320 393 394
f 321 395 322
f 321 394 395
f 322 396 323
f 322 395 396
f 323 397 324
f 323 396 397
f 324 398 325
f 324 397 398
f 325 399 326
f 325 398 399
f 326 400 327
f 326 399 400
f 327 401 328
f 327 400 401
f 328 402 329
f 328 401 402
f 329 403 330
f 329 402 403
f 330 404 331
f 330 403 404
f 331 405 332
f 331 404 405
f 332 406 333
f 332 405 406
f 333 407 334
f 333 406 407
f 334 408 335
f 334 407 408
f 335 409 336
f 335 408 409
f 336 410 337
f 336 409 410
f 337 411 338
f 337 410 411
f 338 412 339
f 338 411 412
f 339 413 340
f 339 412 413
f 340 414 341
f 340 413 414
f 341 415 342
f 341 414 415
f 342 416 343
f 342 415 416
f 343 417 344
f 343 416 417
f 344 418 345
f 344 417 418
f 345 419 346
f 345 418 419
f 346 420 347
f 346 419 420
f 347 421 348
f 347 420 421
f 348 422 349
f 348 421 422
f 349 423 350
f 349 422 423
f 350 424 351
f 350 423 424
f 351 425 352
f 351 424 425
f 352 426 353
f 352 425 426
f 353 427 354
f 353 426 427
f 354 428 355
f 354 427 428
f 355 429 356
f 355 428 429
f 356 430 357
f 356 429 430
f 357 431 358
f 357 430 431
f 358 432 359
f 358 431 432
f 359 433 360
f 359 432 433
f 360 434 361
f 360 433 434
f 361 435 362
f 361 434 435
f 362 436 363
f 362 435 436
f 363 437 364
f 363 436 437
f 364 438 365
f 364 437 438
