v -0.5257311121191336 0.85065080835204 0.0
v 0.5257311121191336 0.85065080835204 0.0
v -0.5257311121191336 -0.85065080835204 0.0
v 0.5257311121191336 -0.85065080835204 0.0
v 0.0 -0.5257311121191336 0.85065080835204
v 0.0 0.5257311121191336 0.85065080835204
v 0.0 -0.5257311121191336 -0.85065080835204
v 0.0 0.5257311121191336 -0.85065080835204
v 0.85065080835204 0.0 -0.5257311121191336
v 0.85065080835204 0.0 0.5257311121191336
v -0.85065080835204 0.0 -0.5257311121191336
v -0.85065080835204 0.0 0.5257311121191336
v 0.49063444264892453 -0.863953838921453 0.11340902917961727
v 0.44286271326648935 -0.8641878268373419 0.23885564080505958
v 0.3817414846013048 -0.8467155877615388 0.3706024182004535
v 0.3090169943749474 -0.8090169943749475 0.5
v 0.2290448907607829 -0.7523439028017583 0.6176706970007558
v 0.1476209044221631 -0.6817183540715489 0.7165669224151787
v 0.07009063466413208 -0.6040434718285418 0.7938632042573209
v 0.11340902917961727 -0.49063444264892453 0.863953838921453
v 0.23885564080505958 -0.44286271326648935 0.8641878268373419
v 0.3706024182004535 -0.3817414846013048 0.8467155877615388
v 0.5 -0.3090169943749474 0.8090169943749475
v 0.6176706970007558 -0.2290448907607829 0.7523439028017583
v 0.7165669224151787 -0.1476209044221631 0.6817183540715489
v 0.7938632042573208 -0.07009063466413207 0.6040434718285418
v 0.9072722334369382 0.0 -0.42054380798479246
v 0.9554225632202383 0.0 -0.2952418088443262
v 0.9882731152012093 0.0 -0.15269659384052192
v 1.0 0.0 0.0
v 0.9882731152012093 0.0 0.15269659384052192
v 0.9554225632202383 0.0 0.2952418088443262
v 0.9072722334369382 0.0 0.42054380798479246
v -0.49063444264892453 0.863953838921453 0.11340902917961727
v -0.44286271326648935 0.8641878268373419 0.23885564080505958
v -0.3817414846013048 0.8467155877615388 0.3706024182004535
v -0.3090169943749474 0.8090169943749475 0.5
v -0.2290448907607829 0.7523439028017583 0.6176706970007558
v -0.1476209044221631 0.6817183540715489 0.7165669224151787
v -0.07009063466413208 0.6040434718285418 0.7938632042573209
v -0.6040434718285418 -0.7938632042573209 0.07009063466413208
v -0.6817183540715489 -0.7165669224151787 0.1476209044221631
v -0.7523439028017583 -0.6176706970007558 0.2290448907607829
v -0.8090169943749475 -0.5 0.3090169943749474
v -0.8467155877615388 -0.3706024182004535 0.3817414846013048
v -0.8641878268373419 -0.23885564080505958 0.44286271326648935
v -0.863953838921453 -0.11340902917961727 0.49063444264892453
v 0.6040434718285418 0.7938632042573209 0.07009063466413208
v 0.6817183540715489 0.7165669224151787 0.1476209044221631
v 0.7523439028017583 0.6176706970007558 0.2290448907607829
v 0.8090169943749475 0.5 0.3090169943749474
v 0.8467155877615388 0.3706024182004535 0.3817414846013048
v 0.8641878268373419 0.23885564080505958 0.44286271326648935
v 0.863953838921453 0.11340902917961727 0.49063444264892453
v -0.6040434718285418 0.7938632042573209 0.07009063466413208
v -0.6817183540715489 0.7165669224151787 0.1476209044221631
v -0.7523439028017583 0.6176706970007558 0.2290448907607829
v -0.8090169943749475 0.5 0.3090169943749474
v -0.8467155877615388 0.3706024182004535 0.3817414846013048
v -0.8641878268373419 0.23885564080505958 0.44286271326648935
v -0.863953838921453 0.11340902917961727 0.49063444264892453
v -0.11340902917961727 0.49063444264892453 -0.863953838921453
v -0.23885564080505958 0.44286271326648935 -0.8641878268373419
v -0.3706024182004535 0.3817414846013048 -0.8467155877615388
v -0.5 0.3090169943749474 -0.8090169943749475
v -0.6176706970007558 0.2290448907607829 -0.7523439028017583
v -0.7165669224151787 0.1476209044221631 -0.6817183540715489
v -0.7938632042573208 0.07009063466413207 -0.6040434718285418
v 0.11340902917961727 -0.49063444264892453 -0.863953838921453
v 0.23885564080505958 -0.44286271326648935 -0.8641878268373419
v 0.3706024182004535 -0.3817414846013048 -0.8467155877615388
v 0.5 -0.3090169943749474 -0.8090169943749475
v 0.6176706970007558 -0.2290448907607829 -0.7523439028017583
v 0.7165669224151787 -0.1476209044221631 -0.6817183540715489
v 0.7938632042573208 -0.07009063466413207 -0.6040434718285418
v 0.0 -0.42054380798479246 0.9072722334369382
v 0.0 -0.2952418088443262 0.9554225632202383
v 0.0 -0.15269659384052192 0.9882731152012093
v 0.0 0.0 1.0
v 0.0 0.15269659384052192 0.9882731152012093
v 0.0 0.2952418088443262 0.9554225632202383
v 0.0 0.42054380798479246 0.9072722334369382
v 0.6040434718285418 -0.7938632042573209 0.07009063466413208
v 0.6817183540715489 -0.7165669224151787 0.1476209044221631
v 0.7523439028017583 -0.6176706970007558 0.2290448907607829
v 0.8090169943749475 -0.5 0.3090169943749474
v 0.8467155877615388 -0.3706024182004535 0.3817414846013048
v 0.8641878268373419 -0.23885564080505958 0.44286271326648935
v 0.863953838921453 -0.11340902917961727 0.49063444264892453
v 0.49063444264892453 -0.863953838921453 -0.11340902917961727
v 0.44286271326648935 -0.8641878268373419 -0.23885564080505958
v 0.3817414846013048 -0.8467155877615388 -0.3706024182004535
v 0.3090169943749474 -0.8090169943749475 -0.5
v 0.2290448907607829 -0.7523439028017583 -0.6176706970007558
v 0.1476209044221631 -0.6817183540715489 -0.7165669224151787
v 0.07009063466413208 -0.6040434718285418 -0.7938632042573209
v 0.11340902917961727 0.49063444264892453 0.863953838921453
v 0.23885564080505958 0.44286271326648935 0.8641878268373419
v 0.3706024182004535 0.3817414846013048 0.8467155877615388
v 0.5 0.3090169943749474 0.8090169943749475
v 0.6176706970007558 0.2290448907607829 0.7523439028017583
v 0.7165669224151787 0.1476209044221631 0.6817183540715489
v 0.7938632042573208 0.07009063466413207 0.6040434718285418
v -0.11340902917961727 -0.49063444264892453 0.863953838921453
v -0.23885564080505958 -0.44286271326648935 0.8641878268373419
v -0.3706024182004535 -0.3817414846013048 0.8467155877615388
v -0.5 -0.3090169943749474 0.8090169943749475
v -0.6176706970007558 -0.2290448907607829 0.7523439028017583
v -0.7165669224151787 -0.1476209044221631 0.6817183540715489
v -0.7938632042573208 -0.07009063466413207 0.6040434718285418
v -0.42054380798479246 0.9072722334369382 0.0
v -0.2952418088443262 0.9554225632202383 0.0
v -0.15269659384052192 0.9882731152012093 0.0
v 0.0 1.0 0.0
v 0.15269659384052192 0.9882731152012093 0.0
v 0.2952418088443262 0.9554225632202383 0.0
v 0.42054380798479246 0.9072722334369382 0.0
v -0.49063444264892453 0.863953838921453 -0.11340902917961727
v -0.44286271326648935 0.8641878268373419 -0.23885564080505958
v -0.3817414846013048 0.8467155877615388 -0.3706024182004535
v -0.3090169943749474 0.8090169943749475 -0.5
v -0.2290448907607829 0.7523439028017583 -0.6176706970007558
v -0.1476209044221631 0.6817183540715489 -0.7165669224151787
v -0.07009063466413208 0.6040434718285418 -0.7938632042573209
v -0.49063444264892453 -0.863953838921453 0.11340902917961727
v -0.44286271326648935 -0.8641878268373419 0.23885564080505958
v -0.3817414846013048 -0.8467155877615388 0.3706024182004535
v -0.3090169943749474 -0.8090169943749475 0.5
v -0.2290448907607829 -0.7523439028017583 0.6176706970007558
v -0.1476209044221631 -0.6817183540715489 0.7165669224151787
v -0.07009063466413208 -0.6040434718285418 0.7938632042573209
v -0.9072722334369382 0.0 -0.42054380798479246
v -0.9554225632202383 0.0 -0.2952418088443262
v -0.9882731152012093 0.0 -0.15269659384052192
v -1.0 0.0 0.0
v -0.9882731152012093 0.0 0.15269659384052192
v -0.9554225632202383 0.0 0.2952418088443262
v -0.9072722334369382 0.0 0.42054380798479246
v -0.6040434718285418 0.7938632042573209 -0.07009063466413208
v -0.6817183540715489 0.7165669224151787 -0.1476209044221631
v -0.7523439028017583 0.6176706970007558 -0.2290448907607829
v -0.8090169943749475 0.5 -0.3090169943749474
v -0.8467155877615388 0.3706024182004535 -0.3817414846013048
v -0.8641878268373419 0.23885564080505958 -0.44286271326648935
v -0.863953838921453 0.11340902917961727 -0.49063444264892453
v 0.49063444264892453 0.863953838921453 0.11340902917961727
v 0.44286271326648935 0.8641878268373419 0.23885564080505958
v 0.3817414846013048 0.8467155877615388 0.3706024182004535
v 0.3090169943749474 0.8090169943749475 0.5
v 0.2290448907607829 0.7523439028017583 0.6176706970007558
v 0.1476209044221631 0.6817183540715489 0.7165669224151787
v 0.07009063466413208 0.6040434718285418 0.7938632042573209
v -0.6040434718285418 -0.7938632042573209 -0.07009063466413208
v -0.6817183540715489 -0.7165669224151787 -0.1476209044221631
v -0.7523439028017583 -0.6176706970007558 -0.2290448907607829
v -0.8090169943749475 -0.5 -0.3090169943749474
v -0.8467155877615388 -0.3706024182004535 -0.3817414846013048
v -0.8641878268373419 -0.23885564080505958 -0.44286271326648935
v -0.863953838921453 -0.11340902917961727 -0.49063444264892453
v 0.6040434718285418 0.7938632042573209 -0.07009063466413208
v 0.6817183540715489 0.7165669224151787 -0.1476209044221631
v 0.7523439028017583 0.6176706970007558 -0.2290448907607829
v 0.8090169943749475 0.5 -0.3090169943749474
v 0.8467155877615388 0.3706024182004535 -0.3817414846013048
v 0.8641878268373419 0.23885564080505958 -0.44286271326648935
v 0.863953838921453 0.11340902917961727 -0.49063444264892453
v 0.0 -0.42054380798479246 -0.9072722334369382
v 0.0 -0.2952418088443262 -0.9554225632202383
v 0.0 -0.15269659384052192 -0.9882731152012093
v 0.0 0.0 -1.0
v 0.0 0.15269659384052192 -0.9882731152012093
v 0.0 0.2952418088443262 -0.9554225632202383
v 0.0 0.42054380798479246 -0.9072722334369382
v -0.11340902917961727 -0.49063444264892453 -0.863953838921453
v -0.23885564080505958 -0.44286271326648935 -0.8641878268373419
v -0.3706024182004535 -0.3817414846013048 -0.8467155877615388
v -0.5 -0.3090169943749474 -0.8090169943749475
v -0.6176706970007558 -0.2290448907607829 -0.7523439028017583
v -0.7165669224151787 -0.1476209044221631 -0.6817183540715489
v -0.7938632042573208 -0.07009063466413207 -0.6040434718285418
v 0.6040434718285418 -0.7938632042573209 -0.07009063466413208
v 0.6817183540715489 -0.7165669224151787 -0.1476209044221631
v 0.7523439028017583 -0.6176706970007558 -0.2290448907607829
v 0.8090169943749475 -0.5 -0.3090169943749474
v 0.8467155877615388 -0.3706024182004535 -0.3817414846013048
v 0.8641878268373419 -0.23885564080505958 -0.44286271326648935
v 0.863953838921453 -0.11340902917961727 -0.49063444264892453
v -0.11340902917961727 0.49063444264892453 0.863953838921453
v -0.23885564080505958 0.44286271326648935 0.8641878268373419
v -0.3706024182004535 0.3817414846013048 0.8467155877615388
v -0.5 0.3090169943749474 0.8090169943749475
v -0.6176706970007558 0.2290448907607829 0.7523439028017583
v -0.7165669224151787 0.1476209044221631 0.6817183540715489
v -0.7938632042573208 0.07009063466413207 0.6040434718285418
v -0.42054380798479246 -0.9072722334369382 0.0
v -0.2952418088443262 -0.9554225632202383 0.0
v -0.15269659384052192 -0.9882731152012093 0.0
v 0.0 -1.0 0.0
v 0.15269659384052192 -0.9882731152012093 0.0
v 0.2952418088443262 -0.9554225632202383 0.0
v 0.42054380798479246 -0.9072722334369382 0.0
v 0.49063444264892453 0.863953838921453 -0.11340902917961727
v 0.44286271326648935 0.8641878268373419 -0.23885564080505958
v 0.3817414846013048 0.8467155877615388 -0.3706024182004535
v 0.3090169943749474 0.8090169943749475 -0.5
v 0.2290448907607829 0.7523439028017583 -0.6176706970007558
v 0.1476209044221631 0.6817183540715489 -0.7165669224151787
v 0.07009063466413208 0.6040434718285418 -0.7938632042573209
v -0.49063444264892453 -0.863953838921453 -0.11340902917961727
v -0.44286271326648935 -0.8641878268373419 -0.23885564080505958
v -0.3817414846013048 -0.8467155877615388 -0.3706024182004535
v -0.3090169943749474 -0.8090169943749475 -0.5
v -0.2290448907607829 -0.7523439028017583 -0.6176706970007558
v -0.1476209044221631 -0.6817183540715489 -0.7165669224151787
v -0.07009063466413208 -0.6040434718285418 -0.7938632042573209
v 0.11340902917961727 0.49063444264892453 -0.863953838921453
v 0.23885564080505958 0.44286271326648935 -0.8641878268373419
v 0.3706024182004535 0.3817414846013048 -0.8467155877615388
v 0.5 0.3090169943749474 -0.8090169943749475
v 0.6176706970007558 0.2290448907607829 -0.7523439028017583
v 0.7165669224151787 0.1476209044221631 -0.6817183540715489
v 0.7938632042573208 0.07009063466413207 -0.6040434718285418
v -0.5685192202902353 0.7991326580327285 0.1953788397604234
v -0.6440048006169802 0.7107897965621176 0.28290578270064953
v -0.709910635852268 0.5991063585226795 0.37026809244319614
v -0.7594638151136077 0.46937445096587566 0.45044682073866027
v -0.7889830317777987 0.33123185975425573 0.5174854883476929
v -0.7991326580327285 0.1953788397604234 0.5685192202902353
v -0.5174854883476929 0.7889830317777987 0.33123185975425573
v -0.5877852522924731 0.6881909602355868 0.42532540417601994
v -0.6465777917977316 0.5642542117657714 0.5133754412304479
v -0.6881909602355868 0.42532540417601994 0.5877852522924731
v -0.7107897965621175 0.28290578270064953 0.6440048006169802
v -0.45044682073866027 0.7594638151136077 0.46937445096587566
v -0.5133754412304479 0.6465777917977316 0.5642542117657714
v -0.5642542117657714 0.5133754412304479 0.6465777917977316
v -0.5991063585226795 0.37026809244319614 0.709910635852268
v -0.37026809244319614 0.709910635852268 0.5991063585226795
v -0.42532540417601994 0.5877852522924731 0.6881909602355868
v -0.46937445096587566 0.45044682073866027 0.7594638151136077
v -0.28290578270064953 0.6440048006169802 0.7107897965621176
v -0.33123185975425573 0.5174854883476929 0.7889830317777987
v -0.1953788397604234 0.5685192202902353 0.7991326580327285
v -0.37314038052981185 0.9198834216871895 0.12075076365446102
v -0.3127729408627245 0.915502344047086 0.25303862453857456
v -0.2405361848863923 0.8891957226704116 0.3891957226704115
v -0.1603574565909282 0.8396425434090717 0.5189276302272153
v -0.07819323521568113 0.7705241128862675 0.6325965613464364
v 0.0 0.6892699839446963 0.7245045819267661
v -0.2345797056470434 0.9638284211006921 0.12651931226928728
v -0.16245984811645314 0.9510565162951535 0.2628655560595668
v -0.08232358003196016 0.912982492932299 0.3996070517018511
v 0.0 0.8506508083520399 0.5257311121191336
v 0.07819323521568113 0.7705241128862675 0.6325965613464364
v -0.0801787282954641 0.988302081193091 0.12973190755680383
v 0.0 0.9638612634676226 0.26640470113456743
v 0.08232358003196016 0.912982492932299 0.3996070517018511
v 0.1603574565909282 0.8396425434090717 0.5189276302272153
v 0.0801787282954641 0.988302081193091 0.12973190755680383
v 0.16245984811645314 0.9510565162951535 0.2628655560595668
v 0.2405361848863923 0.8891957226704116 0.3891957226704115
v 0.2345797056470434 0.9638284211006921 0.12651931226928728
v 0.3127729408627245 0.915502344047086 0.25303862453857456
v 0.37314038052981185 0.9198834216871895 0.12075076365446102
v -0.37314038052981185 0.9198834216871895 -0.12075076365446102
v -0.2345797056470434 0.9638284211006921 -0.12651931226928728
v -0.0801787282954641 0.988302081193091 -0.12973190755680383
v 0.0801787282954641 0.988302081193091 -0.12973190755680383
v 0.2345797056470434 0.9638284211006921 -0.12651931226928728
v 0.37314038052981185 0.9198834216871895 -0.12075076365446102
v -0.3127729408627245 0.915502344047086 -0.25303862453857456
v -0.16245984811645314 0.9510565162951535 -0.2628655560595668
v 0.0 0.9638612634676226 -0.26640470113456743
v 0.16245984811645314 0.9510565162951535 -0.2628655560595668
v 0.3127729408627245 0.915502344047086 -0.25303862453857456
v -0.2405361848863923 0.8891957226704116 -0.3891957226704115
v -0.08232358003196016 0.912982492932299 -0.3996070517018511
v 0.08232358003196016 0.912982492932299 -0.3996070517018511
v 0.2405361848863923 0.8891957226704116 -0.3891957226704115
v -0.1603574565909282 0.8396425434090717 -0.5189276302272153
v 0.0 0.8506508083520399 -0.5257311121191336
v 0.1603574565909282 0.8396425434090717 -0.5189276302272153
v -0.07819323521568113 0.7705241128862675 -0.6325965613464364
v 0.07819323521568113 0.7705241128862675 -0.6325965613464364
v 0.0 0.6892699839446963 -0.7245045819267661
v -0.5685192202902353 0.7991326580327285 -0.1953788397604234
v -0.5174854883476929 0.7889830317777987 -0.33123185975425573
v -0.45044682073866027 0.7594638151136077 -0.46937445096587566
v -0.37026809244319614 0.709910635852268 -0.5991063585226795
v -0.28290578270064953 0.6440048006169802 -0.7107897965621176
v -0.1953788397604234 0.5685192202902353 -0.7991326580327285
v -0.6440048006169802 0.7107897965621176 -0.28290578270064953
v -0.5877852522924731 0.6881909602355868 -0.42532540417601994
v -0.5133754412304479 0.6465777917977316 -0.5642542117657714
v -0.42532540417601994 0.5877852522924731 -0.6881909602355868
v -0.33123185975425573 0.5174854883476929 -0.7889830317777987
v -0.709910635852268 0.5991063585226795 -0.37026809244319614
v -0.6465777917977316 0.5642542117657714 -0.5133754412304479
v -0.5642542117657714 0.5133754412304479 -0.6465777917977316
v -0.46937445096587566 0.45044682073866027 -0.7594638151136077
v -0.7594638151136077 0.46937445096587566 -0.45044682073866027
v -0.6881909602355868 0.42532540417601994 -0.5877852522924731
v -0.5991063585226795 0.37026809244319614 -0.709910635852268
v -0.7889830317777987 0.33123185975425573 -0.5174854883476929
v -0.7107897965621175 0.28290578270064953 -0.6440048006169802
v -0.7991326580327285 0.1953788397604234 -0.5685192202902353
v -0.6892699839446963 0.7245045819267661 0.0
v -0.7705241128862675 0.6325965613464364 -0.07819323521568113
v -0.8396425434090717 0.5189276302272153 -0.1603574565909282
v -0.8891957226704116 0.3891957226704115 -0.2405361848863923
v -0.915502344047086 0.25303862453857456 -0.3127729408627245
v -0.9198834216871895 0.12075076365446102 -0.37314038052981185
v -0.7705241128862675 0.6325965613464364 0.07819323521568113
v -0.8506508083520399 0.5257311121191336 0.0
v -0.912982492932299 0.3996070517018511 -0.08232358003196016
v -0.9510565162951535 0.2628655560595668 -0.16245984811645314
v -0.9638284211006921 0.12651931226928728 -0.2345797056470434
v -0.8396425434090717 0.5189276302272153 0.1603574565909282
v -0.912982492932299 0.3996070517018511 0.08232358003196016
v -0.9638612634676226 0.26640470113456743 0.0
v -0.988302081193091 0.12973190755680383 -0.0801787282954641
v -0.8891957226704116 0.3891957226704115 0.2405361848863923
v -0.9510565162951535 0.2628655560595668 0.16245984811645314
v -0.988302081193091 0.12973190755680383 0.0801787282954641
v -0.915502344047086 0.25303862453857456 0.3127729408627245
v -0.9638284211006921 0.12651931226928728 0.2345797056470434
v -0.9198834216871895 0.12075076365446102 0.37314038052981185
v 0.5685192202902353 0.7991326580327285 0.1953788397604234
v 0.5174854883476929 0.7889830317777987 0.33123185975425573
v 0.45044682073866027 0.7594638151136077 0.46937445096587566
v 0.37026809244319614 0.709910635852268 0.5991063585226795
v 0.28290578270064953 0.6440048006169802 0.7107897965621176
v 0.1953788397604234 0.5685192202902353 0.7991326580327285
v 0.6440048006169802 0.7107897965621176 0.28290578270064953
v 0.5877852522924731 0.6881909602355868 0.42532540417601994
v 0.5133754412304479 0.6465777917977316 0.5642542117657714
v 0.42532540417601994 0.5877852522924731 0.6881909602355868
v 0.33123185975425573 0.5174854883476929 0.7889830317777987
v 0.709910635852268 0.5991063585226795 0.37026809244319614
v 0.6465777917977316 0.5642542117657714 0.5133754412304479
v 0.5642542117657714 0.5133754412304479 0.6465777917977316
v 0.46937445096587566 0.45044682073866027 0.7594638151136077
v 0.7594638151136077 0.46937445096587566 0.45044682073866027
v 0.6881909602355868 0.42532540417601994 0.5877852522924731
v 0.5991063585226795 0.37026809244319614 0.709910635852268
v 0.7889830317777987 0.33123185975425573 0.5174854883476929
v 0.7107897965621175 0.28290578270064953 0.6440048006169802
v 0.7991326580327285 0.1953788397604234 0.5685192202902353
v -0.12075076365446102 0.37314038052981185 0.9198834216871895
v -0.25303862453857456 0.3127729408627245 0.915502344047086
v -0.3891957226704115 0.2405361848863923 0.8891957226704116
v -0.5189276302272153 0.1603574565909282 0.8396425434090717
v -0.6325965613464364 0.07819323521568113 0.7705241128862675
v -0.7245045819267661 0.0 0.6892699839446963
v -0.12651931226928728 0.2345797056470434 0.9638284211006921
v -0.2628655560595668 0.16245984811645314 0.9510565162951535
v -0.3996070517018511 0.08232358003196016 0.912982492932299
v -0.5257311121191336 0.0 0.8506508083520399
v -0.6325965613464364 -0.07819323521568113 0.7705241128862675
v -0.12973190755680383 0.0801787282954641 0.988302081193091
v -0.26640470113456743 0.0 0.9638612634676226
v -0.3996070517018511 -0.08232358003196016 0.912982492932299
v -0.5189276302272153 -0.1603574565909282 0.8396425434090717
v -0.12973190755680383 -0.0801787282954641 0.988302081193091
v -0.2628655560595668 -0.16245984811645314 0.9510565162951535
v -0.3891957226704115 -0.2405361848863923 0.8891957226704116
v -0.12651931226928728 -0.2345797056470434 0.9638284211006921
v -0.25303862453857456 -0.3127729408627245 0.915502344047086
v -0.12075076365446102 -0.37314038052981185 0.9198834216871895
v -0.9198834216871895 -0.12075076365446102 0.37314038052981185
v -0.9638284211006921 -0.12651931226928728 0.2345797056470434
v -0.988302081193091 -0.12973190755680383 0.0801787282954641
v -0.988302081193091 -0.12973190755680383 -0.0801787282954641
v -0.9638284211006921 -0.12651931226928728 -0.2345797056470434
v -0.9198834216871895 -0.12075076365446102 -0.37314038052981185
v -0.915502344047086 -0.25303862453857456 0.3127729408627245
v -0.9510565162951535 -0.2628655560595668 0.16245984811645314
v -0.9638612634676226 -0.26640470113456743 0.0
v -0.9510565162951535 -0.2628655560595668 -0.16245984811645314
v -0.915502344047086 -0.25303862453857456 -0.3127729408627245
v -0.8891957226704116 -0.3891957226704115 0.2405361848863923
v -0.912982492932299 -0.3996070517018511 0.08232358003196016
v -0.912982492932299 -0.3996070517018511 -0.08232358003196016
v -0.8891957226704116 -0.3891957226704115 -0.2405361848863923
v -0.8396425434090717 -0.5189276302272153 0.1603574565909282
v -0.8506508083520399 -0.5257311121191336 0.0
v -0.8396425434090717 -0.5189276302272153 -0.1603574565909282
v -0.7705241128862675 -0.6325965613464364 0.07819323521568113
v -0.7705241128862675 -0.6325965613464364 -0.07819323521568113
v -0.6892699839446963 -0.7245045819267661 0.0
v -0.7245045819267661 0.0 -0.6892699839446963
v -0.6325965613464364 0.07819323521568113 -0.7705241128862675
v -0.5189276302272153 0.1603574565909282 -0.8396425434090717
v -0.3891957226704115 0.2405361848863923 -0.8891957226704116
v -0.25303862453857456 0.3127729408627245 -0.915502344047086
v -0.12075076365446102 0.37314038052981185 -0.9198834216871895
v -0.6325965613464364 -0.07819323521568113 -0.7705241128862675
v -0.5257311121191336 0.0 -0.8506508083520399
v -0.3996070517018511 0.08232358003196016 -0.912982492932299
v -0.2628655560595668 0.16245984811645314 -0.9510565162951535
v -0.12651931226928728 0.2345797056470434 -0.9638284211006921
v -0.5189276302272153 -0.1603574565909282 -0.8396425434090717
v -0.3996070517018511 -0.08232358003196016 -0.912982492932299
v -0.26640470113456743 0.0 -0.9638612634676226
v -0.12973190755680383 0.0801787282954641 -0.988302081193091
v -0.3891957226704115 -0.2405361848863923 -0.8891957226704116
v -0.2628655560595668 -0.16245984811645314 -0.9510565162951535
v -0.12973190755680383 -0.0801787282954641 -0.988302081193091
v -0.25303862453857456 -0.3127729408627245 -0.915502344047086
v -0.12651931226928728 -0.2345797056470434 -0.9638284211006921
v -0.12075076365446102 -0.37314038052981185 -0.9198834216871895
v 0.1953788397604234 0.5685192202902353 -0.7991326580327285
v 0.28290578270064953 0.6440048006169802 -0.7107897965621176
v 0.37026809244319614 0.709910635852268 -0.5991063585226795
v 0.45044682073866027 0.7594638151136077 -0.46937445096587566
v 0.5174854883476929 0.7889830317777987 -0.33123185975425573
v 0.5685192202902353 0.7991326580327285 -0.1953788397604234
v 0.33123185975425573 0.5174854883476929 -0.7889830317777987
v 0.42532540417601994 0.5877852522924731 -0.6881909602355868
v 0.5133754412304479 0.6465777917977316 -0.5642542117657714
v 0.5877852522924731 0.6881909602355868 -0.42532540417601994
v 0.6440048006169802 0.7107897965621176 -0.28290578270064953
v 0.46937445096587566 0.45044682073866027 -0.7594638151136077
v 0.5642542117657714 0.5133754412304479 -0.6465777917977316
v 0.6465777917977316 0.5642542117657714 -0.5133754412304479
v 0.709910635852268 0.5991063585226795 -0.37026809244319614
v 0.5991063585226795 0.37026809244319614 -0.709910635852268
v 0.6881909602355868 0.42532540417601994 -0.5877852522924731
v 0.7594638151136077 0.46937445096587566 -0.45044682073866027
v 0.7107897965621175 0.28290578270064953 -0.6440048006169802
v 0.7889830317777987 0.33123185975425573 -0.5174854883476929
v 0.7991326580327285 0.1953788397604234 -0.5685192202902353
v 0.5685192202902353 -0.7991326580327285 0.1953788397604234
v 0.6440048006169802 -0.7107897965621176 0.28290578270064953
v 0.709910635852268 -0.5991063585226795 0.37026809244319614
v 0.7594638151136077 -0.46937445096587566 0.45044682073866027
v 0.7889830317777987 -0.33123185975425573 0.5174854883476929
v 0.7991326580327285 -0.1953788397604234 0.5685192202902353
v 0.5174854883476929 -0.7889830317777987 0.33123185975425573
v 0.5877852522924731 -0.6881909602355868 0.42532540417601994
v 0.6465777917977316 -0.5642542117657714 0.5133754412304479
v 0.6881909602355868 -0.42532540417601994 0.5877852522924731
v 0.7107897965621175 -0.28290578270064953 0.6440048006169802
v 0.45044682073866027 -0.7594638151136077 0.46937445096587566
v 0.5133754412304479 -0.6465777917977316 0.5642542117657714
v 0.5642542117657714 -0.5133754412304479 0.6465777917977316
v 0.5991063585226795 -0.37026809244319614 0.709910635852268
v 0.37026809244319614 -0.709910635852268 0.5991063585226795
v 0.42532540417601994 -0.5877852522924731 0.6881909602355868
v 0.46937445096587566 -0.45044682073866027 0.7594638151136077
v 0.28290578270064953 -0.6440048006169802 0.7107897965621176
v 0.33123185975425573 -0.5174854883476929 0.7889830317777987
v 0.1953788397604234 -0.5685192202902353 0.7991326580327285
v 0.37314038052981185 -0.9198834216871895 0.12075076365446102
v 0.3127729408627245 -0.915502344047086 0.25303862453857456
v 0.2405361848863923 -0.8891957226704116 0.3891957226704115
v 0.1603574565909282 -0.8396425434090717 0.5189276302272153
v 0.07819323521568113 -0.7705241128862675 0.6325965613464364
v 0.0 -0.6892699839446963 0.7245045819267661
v 0.2345797056470434 -0.9638284211006921 0.12651931226928728
v 0.16245984811645314 -0.9510565162951535 0.2628655560595668
v 0.08232358003196016 -0.912982492932299 0.3996070517018511
v 0.0 -0.8506508083520399 0.5257311121191336
v -0.07819323521568113 -0.7705241128862675 0.6325965613464364
v 0.0801787282954641 -0.988302081193091 0.12973190755680383
v 0.0 -0.9638612634676226 0.26640470113456743
v -0.08232358003196016 -0.912982492932299 0.3996070517018511
v -0.1603574565909282 -0.8396425434090717 0.5189276302272153
v -0.0801787282954641 -0.988302081193091 0.12973190755680383
v -0.16245984811645314 -0.9510565162951535 0.2628655560595668
v -0.2405361848863923 -0.8891957226704116 0.3891957226704115
v -0.2345797056470434 -0.9638284211006921 0.12651931226928728
v -0.3127729408627245 -0.915502344047086 0.25303862453857456
v -0.37314038052981185 -0.9198834216871895 0.12075076365446102
v 0.37314038052981185 -0.9198834216871895 -0.12075076365446102
v 0.2345797056470434 -0.9638284211006921 -0.12651931226928728
v 0.0801787282954641 -0.988302081193091 -0.12973190755680383
v -0.0801787282954641 -0.988302081193091 -0.12973190755680383
v -0.2345797056470434 -0.9638284211006921 -0.12651931226928728
v -0.37314038052981185 -0.9198834216871895 -0.12075076365446102
v 0.3127729408627245 -0.915502344047086 -0.25303862453857456
v 0.16245984811645314 -0.9510565162951535 -0.2628655560595668
v 0.0 -0.9638612634676226 -0.26640470113456743
v -0.16245984811645314 -0.9510565162951535 -0.2628655560595668
v -0.3127729408627245 -0.915502344047086 -0.25303862453857456
v 0.2405361848863923 -0.8891957226704116 -0.3891957226704115
v 0.08232358003196016 -0.912982492932299 -0.3996070517018511
v -0.08232358003196016 -0.912982492932299 -0.3996070517018511
v -0.2405361848863923 -0.8891957226704116 -0.3891957226704115
v 0.1603574565909282 -0.8396425434090717 -0.5189276302272153
v 0.0 -0.8506508083520399 -0.5257311121191336
v -0.1603574565909282 -0.8396425434090717 -0.5189276302272153
v 0.07819323521568113 -0.7705241128862675 -0.6325965613464364
v -0.07819323521568113 -0.7705241128862675 -0.6325965613464364
v 0.0 -0.6892699839446963 -0.7245045819267661
v 0.5685192202902353 -0.7991326580327285 -0.1953788397604234
v 0.5174854883476929 -0.7889830317777987 -0.33123185975425573
v 0.45044682073866027 -0.7594638151136077 -0.46937445096587566
v 0.37026809244319614 -0.709910635852268 -0.5991063585226795
v 0.28290578270064953 -0.6440048006169802 -0.7107897965621176
v 0.1953788397604234 -0.5685192202902353 -0.7991326580327285
v 0.6440048006169802 -0.7107897965621176 -0.28290578270064953
v 0.5877852522924731 -0.6881909602355868 -0.42532540417601994
v 0.5133754412304479 -0.6465777917977316 -0.5642542117657714
v 0.42532540417601994 -0.5877852522924731 -0.6881909602355868
v 0.33123185975425573 -0.5174854883476929 -0.7889830317777987
v 0.709910635852268 -0.5991063585226795 -0.37026809244319614
v 0.6465777917977316 -0.5642542117657714 -0.5133754412304479
v 0.5642542117657714 -0.5133754412304479 -0.6465777917977316
v 0.46937445096587566 -0.45044682073866027 -0.7594638151136077
v 0.7594638151136077 -0.46937445096587566 -0.45044682073866027
v 0.6881909602355868 -0.42532540417601994 -0.5877852522924731
v 0.5991063585226795 -0.37026809244319614 -0.709910635852268
v 0.7889830317777987 -0.33123185975425573 -0.5174854883476929
v 0.7107897965621175 -0.28290578270064953 -0.6440048006169802
v 0.7991326580327285 -0.1953788397604234 -0.5685192202902353
v 0.6892699839446963 -0.7245045819267661 0.0
v 0.7705241128862675 -0.6325965613464364 -0.07819323521568113
v 0.8396425434090717 -0.5189276302272153 -0.1603574565909282
v 0.8891957226704116 -0.3891957226704115 -0.2405361848863923
v 0.915502344047086 -0.25303862453857456 -0.3127729408627245
v 0.9198834216871895 -0.12075076365446102 -0.37314038052981185
v 0.7705241128862675 -0.6325965613464364 0.07819323521568113
v 0.8506508083520399 -0.5257311121191336 0.0
v 0.912982492932299 -0.3996070517018511 -0.08232358003196016
v 0.9510565162951535 -0.2628655560595668 -0.16245984811645314
v 0.9638284211006921 -0.12651931226928728 -0.2345797056470434
v 0.8396425434090717 -0.5189276302272153 0.1603574565909282
v 0.912982492932299 -0.3996070517018511 0.08232358003196016
v 0.9638612634676226 -0.26640470113456743 0.0
v 0.988302081193091 -0.12973190755680383 -0.0801787282954641
v 0.8891957226704116 -0.3891957226704115 0.2405361848863923
v 0.9510565162951535 -0.2628655560595668 0.16245984811645314
v 0.988302081193091 -0.12973190755680383 0.0801787282954641
v 0.915502344047086 -0.25303862453857456 0.3127729408627245
v 0.9638284211006921 -0.12651931226928728 0.2345797056470434
v 0.9198834216871895 -0.12075076365446102 0.37314038052981185
v 0.12075076365446102 -0.37314038052981185 0.9198834216871895
v 0.25303862453857456 -0.3127729408627245 0.915502344047086
v 0.3891957226704115 -0.2405361848863923 0.8891957226704116
v 0.5189276302272153 -0.1603574565909282 0.8396425434090717
v 0.6325965613464364 -0.07819323521568113 0.7705241128862675
v 0.7245045819267661 0.0 0.6892699839446963
v 0.12651931226928728 -0.2345797056470434 0.9638284211006921
v 0.2628655560595668 -0.16245984811645314 0.9510565162951535
v 0.3996070517018511 -0.08232358003196016 0.912982492932299
v 0.5257311121191336 0.0 0.8506508083520399
v 0.6325965613464364 0.07819323521568113 0.7705241128862675
v 0.12973190755680383 -0.0801787282954641 0.988302081193091
v 0.26640470113456743 0.0 0.9638612634676226
v 0.3996070517018511 0.08232358003196016 0.912982492932299
v 0.5189276302272153 0.1603574565909282 0.8396425434090717
v 0.12973190755680383 0.0801787282954641 0.988302081193091
v 0.2628655560595668 0.16245984811645314 0.9510565162951535
v 0.3891957226704115 0.2405361848863923 0.8891957226704116
v 0.12651931226928728 0.2345797056470434 0.9638284211006921
v 0.25303862453857456 0.3127729408627245 0.915502344047086
v 0.12075076365446102 0.37314038052981185 0.9198834216871895
v -0.5685192202902353 -0.7991326580327285 0.1953788397604234
v -0.5174854883476929 -0.7889830317777987 0.33123185975425573
v -0.45044682073866027 -0.7594638151136077 0.46937445096587566
v -0.37026809244319614 -0.709910635852268 0.5991063585226795
v -0.28290578270064953 -0.6440048006169802 0.7107897965621176
v -0.1953788397604234 -0.5685192202902353 0.7991326580327285
v -0.6440048006169802 -0.7107897965621176 0.28290578270064953
v -0.5877852522924731 -0.6881909602355868 0.42532540417601994
v -0.5133754412304479 -0.6465777917977316 0.5642542117657714
v -0.42532540417601994 -0.5877852522924731 0.6881909602355868
v -0.33123185975425573 -0.5174854883476929 0.7889830317777987
v -0.709910635852268 -0.5991063585226795 0.37026809244319614
v -0.6465777917977316 -0.5642542117657714 0.5133754412304479
v -0.5642542117657714 -0.5133754412304479 0.6465777917977316
v -0.46937445096587566 -0.45044682073866027 0.7594638151136077
v -0.7594638151136077 -0.46937445096587566 0.45044682073866027
v -0.6881909602355868 -0.42532540417601994 0.5877852522924731
v -0.5991063585226795 -0.37026809244319614 0.709910635852268
v -0.7889830317777987 -0.33123185975425573 0.5174854883476929
v -0.7107897965621175 -0.28290578270064953 0.6440048006169802
v -0.7991326580327285 -0.1953788397604234 0.5685192202902353
v -0.1953788397604234 -0.5685192202902353 -0.7991326580327285
v -0.28290578270064953 -0.6440048006169802 -0.7107897965621176
v -0.37026809244319614 -0.709910635852268 -0.5991063585226795
v -0.45044682073866027 -0.7594638151136077 -0.46937445096587566
v -0.5174854883476929 -0.7889830317777987 -0.33123185975425573
v -0.5685192202902353 -0.7991326580327285 -0.1953788397604234
v -0.33123185975425573 -0.5174854883476929 -0.7889830317777987
v -0.42532540417601994 -0.5877852522924731 -0.6881909602355868
v -0.5133754412304479 -0.6465777917977316 -0.5642542117657714
v -0.5877852522924731 -0.6881909602355868 -0.42532540417601994
v -0.6440048006169802 -0.7107897965621176 -0.28290578270064953
v -0.46937445096587566 -0.45044682073866027 -0.7594638151136077
v -0.5642542117657714 -0.5133754412304479 -0.6465777917977316
v -0.6465777917977316 -0.5642542117657714 -0.5133754412304479
v -0.709910635852268 -0.5991063585226795 -0.37026809244319614
v -0.5991063585226795 -0.37026809244319614 -0.709910635852268
v -0.6881909602355868 -0.42532540417601994 -0.5877852522924731
v -0.7594638151136077 -0.46937445096587566 -0.45044682073866027
v -0.7107897965621175 -0.28290578270064953 -0.6440048006169802
v -0.7889830317777987 -0.33123185975425573 -0.5174854883476929
v -0.7991326580327285 -0.1953788397604234 -0.5685192202902353
v 0.7245045819267661 0.0 -0.6892699839446963
v 0.6325965613464364 -0.07819323521568113 -0.7705241128862675
v 0.5189276302272153 -0.1603574565909282 -0.8396425434090717
v 0.3891957226704115 -0.2405361848863923 -0.8891957226704116
v 0.25303862453857456 -0.3127729408627245 -0.915502344047086
v 0.12075076365446102 -0.37314038052981185 -0.9198834216871895
v 0.6325965613464364 0.07819323521568113 -0.7705241128862675
v 0.5257311121191336 0.0 -0.8506508083520399
v 0.3996070517018511 -0.08232358003196016 -0.912982492932299
v 0.2628655560595668 -0.16245984811645314 -0.9510565162951535
v 0.12651931226928728 -0.2345797056470434 -0.9638284211006921
v 0.5189276302272153 0.1603574565909282 -0.8396425434090717
v 0.3996070517018511 0.08232358003196016 -0.912982492932299
v 0.26640470113456743 0.0 -0.9638612634676226
v 0.12973190755680383 -0.0801787282954641 -0.988302081193091
v 0.3891957226704115 0.2405361848863923 -0.8891957226704116
v 0.2628655560595668 0.16245984811645314 -0.9510565162951535
v 0.12973190755680383 0.0801787282954641 -0.988302081193091
v 0.25303862453857456 0.3127729408627245 -0.915502344047086
v 0.12651931226928728 0.2345797056470434 -0.9638284211006921
v 0.12075076365446102 0.37314038052981185 -0.9198834216871895
v 0.9198834216871895 0.12075076365446102 0.37314038052981185
v 0.9638284211006921 0.12651931226928728 0.2345797056470434
v 0.988302081193091 0.12973190755680383 0.0801787282954641
v 0.988302081193091 0.12973190755680383 -0.0801787282954641
v 0.9638284211006921 0.12651931226928728 -0.2345797056470434
v 0.9198834216871895 0.12075076365446102 -0.37314038052981185
v 0.915502344047086 0.25303862453857456 0.3127729408627245
v 0.9510565162951535 0.2628655560595668 0.16245984811645314
v 0.9638612634676226 0.26640470113456743 0.0
v 0.9510565162951535 0.2628655560595668 -0.16245984811645314
v 0.915502344047086 0.25303862453857456 -0.3127729408627245
v 0.8891957226704116 0.3891957226704115 0.2405361848863923
v 0.912982492932299 0.3996070517018511 0.08232358003196016
v 0.912982492932299 0.3996070517018511 -0.08232358003196016
v 0.8891957226704116 0.3891957226704115 -0.2405361848863923
v 0.8396425434090717 0.5189276302272153 0.1603574565909282
v 0.8506508083520399 0.5257311121191336 0.0
v 0.8396425434090717 0.5189276302272153 -0.1603574565909282
v 0.7705241128862675 0.6325965613464364 0.07819323521568113
v 0.7705241128862675 0.6325965613464364 -0.07819323521568113
v 0.6892699839446963 0.7245045819267661 0.0
f 1 55 34
f 55 56 223
f 56 57 224
f 57 58 225
f 58 59 226
f 59 60 227
f 60 61 228
f 61 12 194
f 55 223 34
f 56 224 223
f 57 225 224
f 58 226 225
f 59 227 226
f 60 228 227
f 61 194 228
f 34 223 35
f 223 224 229
f 224 225 230
f 225 226 231
f 226 227 232
f 227 228 233
f 228 194 193
f 223 229 35
f 224 230 229
f 225 231 230
f 226 232 231
f 227 233 232
f 228 193 233
f 35 229 36
f 229 230 234
f 230 231 235
f 231 232 236
f 232 233 237
f 233 193 192
f 229 234 36
f 230 235 234
f 231 236 235
f 232 237 236
f 233 192 237
f 36 234 37
f 234 235 238
f 235 236 239
f 236 237 240
f 237 192 191
f 234 238 37
f 235 239 238
f 236 240 239
f 237 191 240
f 37 238 38
f 238 239 241
f 239 240 242
f 240 191 190
f 238 241 38
f 239 242 241
f 240 190 242
f 38 241 39
f 241 242 243
f 242 190 189
f 241 243 39
f 242 189 243
f 39 243 40
f 243 189 188
f 243 188 40
f 40 188 6
f 1 34 111
f 34 35 244
f 35 36 245
f 36 37 246
f 37 38 247
f 38 39 248
f 39 40 249
f 40 6 152
f 34 244 111
f 35 245 244
f 36 246 245
f 37 247 246
f 38 248 247
f 39 249 248
f 40 152 249
f 111 244 112
f 244 245 250
f 245 246 251
f 246 247 252
f 247 248 253
f 248 249 254
f 249 152 151
f 244 250 112
f 245 251 250
f 246 252 251
f 247 253 252
f 248 254 253
f 249 151 254
f 112 250 113
f 250 251 255
f 251 252 256
f 252 253 257
f 253 254 258
f 254 151 150
f 250 255 113
f 251 256 255
f 252 257 256
f 253 258 257
f 254 150 258
f 113 255 114
f 255 256 259
f 256 257 260
f 257 258 261
f 258 150 149
f 255 259 114
f 256 260 259
f 257 261 260
f 258 149 261
f 114 259 115
f 259 260 262
f 260 261 263
f 261 149 148
f 259 262 115
f 260 263 262
f 261 148 263
f 115 262 116
f 262 263 264
f 263 148 147
f 262 264 116
f 263 147 264
f 116 264 117
f 264 147 146
f 264 146 117
f 117 146 2
f 1 111 118
f 111 112 265
f 112 113 266
f 113 114 267
f 114 115 268
f 115 116 269
f 116 117 270
f 117 2 202
f 111 265 118
f 112 266 265
f 113 267 266
f 114 268 267
f 115 269 268
f 116 270 269
f 117 202 270
f 118 265 119
f 265 266 271
f 266 267 272
f 267 268 273
f 268 269 274
f 269 270 275
f 270 202 203
f 265 271 119
f 266 272 271
f 267 273 272
f 268 274 273
f 269 275 274
f 270 203 275
f 119 271 120
f 271 272 276
f 272 273 277
f 273 274 278
f 274 275 279
f 275 203 204
f 271 276 120
f 272 277 276
f 273 278 277
f 274 279 278
f 275 204 279
f 120 276 121
f 276 277 280
f 277 278 281
f 278 279 282
f 279 204 205
f 276 280 121
f 277 281 280
f 278 282 281
f 279 205 282
f 121 280 122
f 280 281 283
f 281 282 284
f 282 205 206
f 280 283 122
f 281 284 283
f 282 206 284
f 122 283 123
f 283 284 285
f 284 206 207
f 283 285 123
f 284 207 285
f 123 285 124
f 285 207 208
f 285 208 124
f 124 208 8
f 1 118 139
f 118 119 286
f 119 120 287
f 120 121 288
f 121 122 289
f 122 123 290
f 123 124 291
f 124 8 62
f 118 286 139
f 119 287 286
f 120 288 287
f 121 289 288
f 122 290 289
f 123 291 290
f 124 62 291
f 139 286 140
f 286 287 292
f 287 288 293
f 288 289 294
f 289 290 295
f 290 291 296
f 291 62 63
f 286 292 140
f 287 293 292
f 288 294 293
f 289 295 294
f 290 296 295
f 291 63 296
f 140 292 141
f 292 293 297
f 293 294 298
f 294 295 299
f 295 296 300
f 296 63 64
f 292 297 141
f 293 298 297
f 294 299 298
f 295 300 299
f 296 64 300
f 141 297 142
f 297 298 301
f 298 299 302
f 299 300 303
f 300 64 65
f 297 301 142
f 298 302 301
f 299 303 302
f 300 65 303
f 142 301 143
f 301 302 304
f 302 303 305
f 303 65 66
f 301 304 143
f 302 305 304
f 303 66 305
f 143 304 144
f 304 305 306
f 305 66 67
f 304 306 144
f 305 67 306
f 144 306 145
f 306 67 68
f 306 68 145
f 145 68 11
f 1 139 55
f 139 140 307
f 140 141 308
f 141 142 309
f 142 143 310
f 143 144 311
f 144 145 312
f 145 11 132
f 139 307 55
f 140 308 307
f 141 309 308
f 142 310 309
f 143 311 310
f 144 312 311
f 145 132 312
f 55 307 56
f 307 308 313
f 308 309 314
f 309 310 315
f 310 311 316
f 311 312 317
f 312 132 133
f 307 313 56
f 308 314 313
f 309 315 314
f 310 316 315
f 311 317 316
f 312 133 317
f 56 313 57
f 313 314 318
f 314 315 319
f 315 316 320
f 316 317 321
f 317 133 134
f 313 318 57
f 314 319 318
f 315 320 319
f 316 321 320
f 317 134 321
f 57 318 58
f 318 319 322
f 319 320 323
f 320 321 324
f 321 134 135
f 318 322 58
f 319 323 322
f 320 324 323
f 321 135 324
f 58 322 59
f 322 323 325
f 323 324 326
f 324 135 136
f 322 325 59
f 323 326 325
f 324 136 326
f 59 325 60
f 325 326 327
f 326 136 137
f 325 327 60
f 326 137 327
f 60 327 61
f 327 137 138
f 327 138 61
f 61 138 12
f 2 146 48
f 146 147 328
f 147 148 329
f 148 149 330
f 149 150 331
f 150 151 332
f 151 152 333
f 152 6 97
f 146 328 48
f 147 329 328
f 148 330 329
f 149 331 330
f 150 332 331
f 151 333 332
f 152 97 333
f 48 328 49
f 328 329 334
f 329 330 335
f 330 331 336
f 331 332 337
f 332 333 338
f 333 97 98
f 328 334 49
f 329 335 334
f 330 336 335
f 331 337 336
f 332 338 337
f 333 98 338
f 49 334 50
f 334 335 339
f 335 336 340
f 336 337 341
f 337 338 342
f 338 98 99
f 334 339 50
f 335 340 339
f 336 341 340
f 337 342 341
f 338 99 342
f 50 339 51
f 339 340 343
f 340 341 344
f 341 342 345
f 342 99 100
f 339 343 51
f 340 344 343
f 341 345 344
f 342 100 345
f 51 343 52
f 343 344 346
f 344 345 347
f 345 100 101
f 343 346 52
f 344 347 346
f 345 101 347
f 52 346 53
f 346 347 348
f 347 101 102
f 346 348 53
f 347 102 348
f 53 348 54
f 348 102 103
f 348 103 54
f 54 103 10
f 6 188 82
f 188 189 349
f 189 190 350
f 190 191 351
f 191 192 352
f 192 193 353
f 193 194 354
f 194 12 110
f 188 349 82
f 189 350 349
f 190 351 350
f 191 352 351
f 192 353 352
f 193 354 353
f 194 110 354
f 82 349 81
f 349 350 355
f 350 351 356
f 351 352 357
f 352 353 358
f 353 354 359
f 354 110 109
f 349 355 81
f 350 356 355
f 351 357 356
f 352 358 357
f 353 359 358
f 354 109 359
f 81 355 80
f 355 356 360
f 356 357 361
f 357 358 362
f 358 359 363
f 359 109 108
f 355 360 80
f 356 361 360
f 357 362 361
f 358 363 362
f 359 108 363
f 80 360 79
f 360 361 364
f 361 362 365
f 362 363 366
f 363 108 107
f 360 364 79
f 361 365 364
f 362 366 365
f 363 107 366
f 79 364 78
f 364 365 367
f 365 366 368
f 366 107 106
f 364 367 78
f 365 368 367
f 366 106 368
f 78 367 77
f 367 368 369
f 368 106 105
f 367 369 77
f 368 105 369
f 77 369 76
f 369 105 104
f 369 104 76
f 76 104 5
f 12 138 47
f 138 137 370
f 137 136 371
f 136 135 372
f 135 134 373
f 134 133 374
f 133 132 375
f 132 11 159
f 138 370 47
f 137 371 370
f 136 372 371
f 135 373 372
f 134 374 373
f 133 375 374
f 132 159 375
f 47 370 46
f 370 371 376
f 371 372 377
f 372 373 378
f 373 374 379
f 374 375 380
f 375 159 158
f 370 376 46
f 371 377 376
f 372 378 377
f 373 379 378
f 374 380 379
f 375 158 380
f 46 376 45
f 376 377 381
f 377 378 382
f 378 379 383
f 379 380 384
f 380 158 157
f 376 381 45
f 377 382 381
f 378 383 382
f 379 384 383
f 380 157 384
f 45 381 44
f 381 382 385
f 382 383 386
f 383 384 387
f 384 157 156
f 381 385 44
f 382 386 385
f 383 387 386
f 384 156 387
f 44 385 43
f 385 386 388
f 386 387 389
f 387 156 155
f 385 388 43
f 386 389 388
f 387 155 389
f 43 388 42
f 388 389 390
f 389 155 154
f 388 390 42
f 389 154 390
f 42 390 41
f 390 154 153
f 390 153 41
f 41 153 3
f 11 68 180
f 68 67 391
f 67 66 392
f 66 65 393
f 65 64 394
f 64 63 395
f 63 62 396
f 62 8 173
f 68 391 180
f 67 392 391
f 66 393 392
f 65 394 393
f 64 395 394
f 63 396 395
f 62 173 396
f 180 391 179
f 391 392 397
f 392 393 398
f 393 394 399
f 394 395 400
f 395 396 401
f 396 173 172
f 391 397 179
f 392 398 397
f 393 399 398
f 394 400 399
f 395 401 400
f 396 172 401
f 179 397 178
f 397 398 402
f 398 399 403
f 399 400 404
f 400 401 405
f 401 172 171
f 397 402 178
f 398 403 402
f 399 404 403
f 400 405 404
f 401 171 405
f 178 402 177
f 402 403 406
f 403 404 407
f 404 405 408
f 405 171 170
f 402 406 177
f 403 407 406
f 404 408 407
f 405 170 408
f 177 406 176
f 406 407 409
f 407 408 410
f 408 170 169
f 406 409 176
f 407 410 409
f 408 169 410
f 176 409 175
f 409 410 411
f 410 169 168
f 409 411 175
f 410 168 411
f 175 411 174
f 411 168 167
f 411 167 174
f 174 167 7
f 8 208 216
f 208 207 412
f 207 206 413
f 206 205 414
f 205 204 415
f 204 203 416
f 203 202 417
f 202 2 160
f 208 412 216
f 207 413 412
f 206 414 413
f 205 415 414
f 204 416 415
f 203 417 416
f 202 160 417
f 216 412 217
f 412 413 418
f 413 414 419
f 414 415 420
f 415 416 421
f 416 417 422
f 417 160 161
f 412 418 217
f 413 419 418
f 414 420 419
f 415 421 420
f 416 422 421
f 417 161 422
f 217 418 218
f 418 419 423
f 419 420 424
f 420 421 425
f 421 422 426
f 422 161 162
f 418 423 218
f 419 424 423
f 420 425 424
f 421 426 425
f 422 162 426
f 218 423 219
f 423 424 427
f 424 425 428
f 425 426 429
f 426 162 163
f 423 427 219
f 424 428 427
f 425 429 428
f 426 163 429
f 219 427 220
f 427 428 430
f 428 429 431
f 429 163 164
f 427 430 220
f 428 431 430
f 429 164 431
f 220 430 221
f 430 431 432
f 431 164 165
f 430 432 221
f 431 165 432
f 221 432 222
f 432 165 166
f 432 166 222
f 222 166 9
f 4 83 13
f 83 84 433
f 84 85 434
f 85 86 435
f 86 87 436
f 87 88 437
f 88 89 438
f 89 10 26
f 83 433 13
f 84 434 433
f 85 435 434
f 86 436 435
f 87 437 436
f 88 438 437
f 89 26 438
f 13 433 14
f 433 434 439
f 434 435 440
f 435 436 441
f 436 437 442
f 437 438 443
f 438 26 25
f 433 439 14
f 434 440 439
f 435 441 440
f 436 442 441
f 437 443 442
f 438 25 443
f 14 439 15
f 439 440 444
f 440 441 445
f 441 442 446
f 442 443 447
f 443 25 24
f 439 444 15
f 440 445 444
f 441 446 445
f 442 447 446
f 443 24 447
f 15 444 16
f 444 445 448
f 445 446 449
f 446 447 450
f 447 24 23
f 444 448 16
f 445 449 448
f 446 450 449
f 447 23 450
f 16 448 17
f 448 449 451
f 449 450 452
f 450 23 22
f 448 451 17
f 449 452 451
f 450 22 452
f 17 451 18
f 451 452 453
f 452 22 21
f 451 453 18
f 452 21 453
f 18 453 19
f 453 21 20
f 453 20 19
f 19 20 5
f 4 13 201
f 13 14 454
f 14 15 455
f 15 16 456
f 16 17 457
f 17 18 458
f 18 19 459
f 19 5 131
f 13 454 201
f 14 455 454
f 15 456 455
f 16 457 456
f 17 458 457
f 18 459 458
f 19 131 459
f 201 454 200
f 454 455 460
f 455 456 461
f 456 457 462
f 457 458 463
f 458 459 464
f 459 131 130
f 454 460 200
f 455 461 460
f 456 462 461
f 457 463 462
f 458 464 463
f 459 130 464
f 200 460 199
f 460 461 465
f 461 462 466
f 462 463 467
f 463 464 468
f 464 130 129
f 460 465 199
f 461 466 465
f 462 467 466
f 463 468 467
f 464 129 468
f 199 465 198
f 465 466 469
f 466 467 470
f 467 468 471
f 468 129 128
f 465 469 198
f 466 470 469
f 467 471 470
f 468 128 471
f 198 469 197
f 469 470 472
f 470 471 473
f 471 128 127
f 469 472 197
f 470 473 472
f 471 127 473
f 197 472 196
f 472 473 474
f 473 127 126
f 472 474 196
f 473 126 474
f 196 474 195
f 474 126 125
f 474 125 195
f 195 125 3
f 4 201 90
f 201 200 475
f 200 199 476
f 199 198 477
f 198 197 478
f 197 196 479
f 196 195 480
f 195 3 209
f 201 475 90
f 200 476 475
f 199 477 476
f 198 478 477
f 197 479 478
f 196 480 479
f 195 209 480
f 90 475 91
f 475 476 481
f 476 477 482
f 477 478 483
f 478 479 484
f 479 480 485
f 480 209 210
f 475 481 91
f 476 482 481
f 477 483 482
f 478 484 483
f 479 485 484
f 480 210 485
f 91 481 92
f 481 482 486
f 482 483 487
f 483 484 488
f 484 485 489
f 485 210 211
f 481 486 92
f 482 487 486
f 483 488 487
f 484 489 488
f 485 211 489
f 92 486 93
f 486 487 490
f 487 488 491
f 488 489 492
f 489 211 212
f 486 490 93
f 487 491 490
f 488 492 491
f 489 212 492
f 93 490 94
f 490 491 493
f 491 492 494
f 492 212 213
f 490 493 94
f 491 494 493
f 492 213 494
f 94 493 95
f 493 494 495
f 494 213 214
f 493 495 95
f 494 214 495
f 95 495 96
f 495 214 215
f 495 215 96
f 96 215 7
f 4 90 181
f 90 91 496
f 91 92 497
f 92 93 498
f 93 94 499
f 94 95 500
f 95 96 501
f 96 7 69
f 90 496 181
f 91 497 496
f 92 498 497
f 93 499 498
f 94 500 499
f 95 501 500
f 96 69 501
f 181 496 182
f 496 497 502
f 497 498 503
f 498 499 504
f 499 500 505
f 500 501 506
f 501 69 70
f 496 502 182
f 497 503 502
f 498 504 503
f 499 505 504
f 500 506 505
f 501 70 506
f 182 502 183
f 502 503 507
f 503 504 508
f 504 505 509
f 505 506 510
f 506 70 71
f 502 507 183
f 503 508 507
f 504 509 508
f 505 510 509
f 506 71 510
f 183 507 184
f 507 508 511
f 508 509 512
f 509 510 513
f 510 71 72
f 507 511 184
f 508 512 511
f 509 513 512
f 510 72 513
f 184 511 185
f 511 512 514
f 512 513 515
f 513 72 73
f 511 514 185
f 512 515 514
f 513 73 515
f 185 514 186
f 514 515 516
f 515 73 74
f 514 516 186
f 515 74 516
f 186 516 187
f 516 74 75
f 516 75 187
f 187 75 9
f 4 181 83
f 181 182 517
f 182 183 518
f 183 184 519
f 184 185 520
f 185 186 521
f 186 187 522
f 187 9 27
f 181 517 83
f 182 518 517
f 183 519 518
f 184 520 519
f 185 521 520
f 186 522 521
f 187 27 522
f 83 517 84
f 517 518 523
f 518 519 524
f 519 520 525
f 520 521 526
f 521 522 527
f 522 27 28
f 517 523 84
f 518 524 523
f 519 525 524
f 520 526 525
f 521 527 526
f 522 28 527
f 84 523 85
f 523 524 528
f 524 525 529
f 525 526 530
f 526 527 531
f 527 28 29
f 523 528 85
f 524 529 528
f 525 530 529
f 526 531 530
f 527 29 531
f 85 528 86
f 528 529 532
f 529 530 533
f 530 531 534
f 531 29 30
f 528 532 86
f 529 533 532
f 530 534 533
f 531 30 534
f 86 532 87
f 532 533 535
f 533 534 536
f 534 30 31
f 532 535 87
f 533 536 535
f 534 31 536
f 87 535 88
f 535 536 537
f 536 31 32
f 535 537 88
f 536 32 537
f 88 537 89
f 537 32 33
f 537 33 89
f 89 33 10
f 5 20 76
f 20 21 538
f 21 22 539
f 22 23 540
f 23 24 541
f 24 25 542
f 25 26 543
f 26 10 103
f 20 538 76
f 21 539 538
f 22 540 539
f 23 541 540
f 24 542 541
f 25 543 542
f 26 103 543
f 76 538 77
f 538 539 544
f 539 540 545
f 540 541 546
f 541 542 547
f 542 543 548
f 543 103 102
f 538 544 77
f 539 545 544
f 540 546 545
f 541 547 546
f 542 548 547
f 543 102 548
f 77 544 78
f 544 545 549
f 545 546 550
f 546 547 551
f 547 548 552
f 548 102 101
f 544 549 78
f 545 550 549
f 546 551 550
f 547 552 551
f 548 101 552
f 78 549 79
f 549 550 553
f 550 551 554
f 551 552 555
f 552 101 100
f 549 553 79
f 550 554 553
f 551 555 554
f 552 100 555
f 79 553 80
f 553 554 556
f 554 555 557
f 555 100 99
f 553 556 80
f 554 557 556
f 555 99 557
f 80 556 81
f 556 557 558
f 557 99 98
f 556 558 81
f 557 98 558
f 81 558 82
f 558 98 97
f 558 97 82
f 82 97 6
f 3 125 41
f 125 126 559
f 126 127 560
f 127 128 561
f 128 129 562
f 129 130 563
f 130 131 564
f 131 5 104
f 125 559 41
f 126 560 559
f 127 561 560
f 128 562 561
f 129 563 562
f 130 564 563
f 131 104 564
f 41 559 42
f 559 560 565
f 560 561 566
f 561 562 567
f 562 563 568
f 563 564 569
f 564 104 105
f 559 565 42
f 560 566 565
f 561 567 566
f 562 568 567
f 563 569 568
f 564 105 569
f 42 565 43
f 565 566 570
f 566 567 571
f 567 568 572
f 568 569 573
f 569 105 106
f 565 570 43
f 566 571 570
f 567 572 571
f 568 573 572
f 569 106 573
f 43 570 44
f 570 571 574
f 571 572 575
f 572 573 576
f 573 106 107
f 570 574 44
f 571 575 574
f 572 576 575
f 573 107 576
f 44 574 45
f 574 575 577
f 575 576 578
f 576 107 108
f 574 577 45
f 575 578 577
f 576 108 578
f 45 577 46
f 577 578 579
f 578 108 109
f 577 579 46
f 578 109 579
f 46 579 47
f 579 109 110
f 579 110 47
f 47 110 12
f 7 215 174
f 215 214 580
f 214 213 581
f 213 212 582
f 212 211 583
f 211 210 584
f 210 209 585
f 209 3 153
f 215 580 174
f 214 581 580
f 213 582 581
f 212 583 582
f 211 584 583
f 210 585 584
f 209 153 585
f 174 580 175
f 580 581 586
f 581 582 587
f 582 583 588
f 583 584 589
f 584 585 590
f 585 153 154
f 580 586 175
f 581 587 586
f 582 588 587
f 583 589 588
f 584 590 589
f 585 154 590
f 175 586 176
f 586 587 591
f 587 588 592
f 588 589 593
f 589 590 594
f 590 154 155
f 586 591 176
f 587 592 591
f 588 593 592
f 589 594 593
f 590 155 594
f 176 591 177
f 591 592 595
f 592 593 596
f 593 594 597
f 594 155 156
f 591 595 177
f 592 596 595
f 593 597 596
f 594 156 597
f 177 595 178
f 595 596 598
f 596 597 599
f 597 156 157
f 595 598 178
f 596 599 598
f 597 157 599
f 178 598 179
f 598 599 600
f 599 157 158
f 598 600 179
f 599 158 600
f 179 600 180
f 600 158 159
f 600 159 180
f 180 159 11
f 9 75 222
f 75 74 601
f 74 73 602
f 73 72 603
f 72 71 604
f 71 70 605
f 70 69 606
f 69 7 167
f 75 601 222
f 74 602 601
f 73 603 602
f 72 604 603
f 71 605 604
f 70 606 605
f 69 167 606
f 222 601 221
f 601 602 607
f 602 603 608
f 603 604 609
f 604 605 610
f 605 606 611
f 606 167 168
f 601 607 221
f 602 608 607
f 603 609 608
f 604 610 609
f 605 611 610
f 606 168 611
f 221 607 220
f 607 608 612
f 608 609 613
f 609 610 614
f 610 611 615
f 611 168 169
f 607 612 220
f 608 613 612
f 609 614 613
f 610 615 614
f 611 169 615
f 220 612 219
f 612 613 616
f 613 614 617
f 614 615 618
f 615 169 170
f 612 616 219
f 613 617 616
f 614 618 617
f 615 170 618
f 219 616 218
f 616 617 619
f 617 618 620
f 618 170 171
f 616 619 218
f 617 620 619
f 618 171 620
f 218 619 217
f 619 620 621
f 620 171 172
f 619 621 217
f 620 172 621
f 217 621 216
f 621 172 173
f 621 173 216
f 216 173 8
f 10 33 54
f 33 32 622
f 32 31 623
f 31 30 624
f 30 29 625
f 29 28 626
f 28 27 627
f 27 9 166
f 33 622 54
f 32 623 622
f 31 624 623
f 30 625 624
f 29 626 625
f 28 627 626
f 27 166 627
f 54 622 53
f 622 623 628
f 623 624 629
f 624 625 630
f 625 626 631
f 626 627 632
f 627 166 165
f 622 628 53
f 623 629 628
f 624 630 629
f 625 631 630
f 626 632 631
f 627 165 632
f 53 628 52
f 628 629 633
f 629 630 634
f 630 631 635
f 631 632 636
f 632 165 164
f 628 633 52
f 629 634 633
f 630 635 634
f 631 636 635
f 632 164 636
f 52 633 51
f 633 634 637
f 634 635 638
f 635 636 639
f 636 164 163
f 633 637 51
f 634 638 637
f 635 639 638
f 636 163 639
f 51 637 50
f 637 638 640
f 638 639 641
f 639 163 162
f 637 640 50
f 638 641 640
f 639 162 641
f 50 640 49
f 640 641 642
f 641 162 161
f 640 642 49
f 641 161 642
f 49 642 48
f 642 161 160
f 642 160 48
f 48 160 2
