v -0.5257311121191336 0.85065080835204 0.0
v 0.5257311121191336 0.85065080835204 0.0
v -0.5257311121191336 -0.85065080835204 0.0
v 0.5257311121191336 -0.85065080835204 0.0
v 0.0 -0.5257311121191336 0.85065080835204
v 0.0 0.5257311121191336 0.85065080835204
v 0.0 -0.5257311121191336 -0.85065080835204
v 0.0 0.5257311121191336 -0.85065080835204
v 0.85065080835204 0.0 -0.5257311121191336
v 0.85065080835204 0.0 0.5257311121191336
v -0.85065080835204 0.0 -0.5257311121191336
v -0.85065080835204 0.0 0.5257311121191336
v 0.47619215291891703 -0.8657335191825786 0.15409901771975903
v 0.4035482123351976 -0.8547288298252083 0.32647736182880477
v 0.3090169943749474 -0.8090169943749475 0.5
v 0.20177410616759886 -0.7300255741640024 0.6529547236576094
v 0.09523843058378338 -0.630291170638676 0.7704950885987951
v 0.15409901771975903 -0.47619215291891703 0.8657335191825786
v 0.32647736182880477 -0.4035482123351976 0.8547288298252083
v 0.5 -0.3090169943749474 0.8090169943749475
v 0.6529547236576094 -0.2017741061675989 0.7300255741640025
v 0.7704950885987952 -0.09523843058378338 0.630291170638676
v 0.9245941063185542 0.0 -0.38095372233513364
v 0.9794320854864143 0.0 -0.2017741061675988
v 1.0 0.0 0.0
v 0.9794320854864143 0.0 0.2017741061675988
v 0.9245941063185542 0.0 0.38095372233513364
v -0.47619215291891703 0.8657335191825786 0.15409901771975903
v -0.4035482123351976 0.8547288298252083 0.32647736182880477
v -0.3090169943749474 0.8090169943749475 0.5
v -0.20177410616759886 0.7300255741640024 0.6529547236576094
v -0.09523843058378338 0.630291170638676 0.7704950885987951
v -0.6302911706386761 -0.7704950885987951 0.0952384305837834
v -0.7300255741640024 -0.6529547236576094 0.20177410616759886
v -0.8090169943749475 -0.5 0.3090169943749474
v -0.8547288298252083 -0.32647736182880477 0.4035482123351976
v -0.8657335191825786 -0.154099017719759 0.4761921529189171
v 0.6302911706386761 0.7704950885987951 0.0952384305837834
v 0.7300255741640024 0.6529547236576094 0.20177410616759886
v 0.8090169943749475 0.5 0.3090169943749474
v 0.8547288298252083 0.32647736182880477 0.4035482123351976
v 0.8657335191825786 0.154099017719759 0.4761921529189171
v -0.6302911706386761 0.7704950885987951 0.0952384305837834
v -0.7300255741640024 0.6529547236576094 0.20177410616759886
v -0.8090169943749475 0.5 0.3090169943749474
v -0.8547288298252083 0.32647736182880477 0.4035482123351976
v -0.8657335191825786 0.154099017719759 0.4761921529189171
v -0.15409901771975903 0.47619215291891703 -0.8657335191825786
v -0.32647736182880477 0.4035482123351976 -0.8547288298252083
v -0.5 0.3090169943749474 -0.8090169943749475
v -0.6529547236576094 0.2017741061675989 -0.7300255741640025
v -0.7704950885987952 0.09523843058378338 -0.630291170638676
v 0.15409901771975903 -0.47619215291891703 -0.8657335191825786
v 0.32647736182880477 -0.4035482123351976 -0.8547288298252083
v 0.5 -0.3090169943749474 -0.8090169943749475
v 0.6529547236576094 -0.2017741061675989 -0.7300255741640025
v 0.7704950885987952 -0.09523843058378338 -0.630291170638676
v 0.0 -0.38095372233513364 0.9245941063185542
v 0.0 -0.2017741061675988 0.9794320854864143
v 0.0 0.0 1.0
v 0.0 0.2017741061675988 0.9794320854864143
v 0.0 0.38095372233513364 0.9245941063185542
v 0.6302911706386761 -0.7704950885987951 0.0952384305837834
v 0.7300255741640024 -0.6529547236576094 0.20177410616759886
v 0.8090169943749475 -0.5 0.3090169943749474
v 0.8547288298252083 -0.32647736182880477 0.4035482123351976
v 0.8657335191825786 -0.154099017719759 0.4761921529189171
v 0.47619215291891703 -0.8657335191825786 -0.15409901771975903
v 0.4035482123351976 -0.8547288298252083 -0.32647736182880477
v 0.3090169943749474 -0.8090169943749475 -0.5
v 0.20177410616759886 -0.7300255741640024 -0.6529547236576094
v 0.09523843058378338 -0.630291170638676 -0.7704950885987951
v 0.15409901771975903 0.47619215291891703 0.8657335191825786
v 0.32647736182880477 0.4035482123351976 0.8547288298252083
v 0.5 0.3090169943749474 0.8090169943749475
v 0.6529547236576094 0.2017741061675989 0.7300255741640025
v 0.7704950885987952 0.09523843058378338 0.630291170638676
v -0.15409901771975903 -0.47619215291891703 0.8657335191825786
v -0.32647736182880477 -0.4035482123351976 0.8547288298252083
v -0.5 -0.3090169943749474 0.8090169943749475
v -0.6529547236576094 -0.2017741061675989 0.7300255741640025
v -0.7704950885987952 -0.09523843058378338 0.630291170638676
v -0.38095372233513364 0.9245941063185542 0.0
v -0.2017741061675988 0.9794320854864143 0.0
v 0.0 1.0 0.0
v 0.2017741061675988 0.9794320854864143 0.0
v 0.38095372233513364 0.9245941063185542 0.0
v -0.47619215291891703 0.8657335191825786 -0.15409901771975903
v -0.4035482123351976 0.8547288298252083 -0.32647736182880477
v -0.3090169943749474 0.8090169943749475 -0.5
v -0.20177410616759886 0.7300255741640024 -0.6529547236576094
v -0.09523843058378338 0.630291170638676 -0.7704950885987951
v -0.47619215291891703 -0.8657335191825786 0.15409901771975903
v -0.4035482123351976 -0.8547288298252083 0.32647736182880477
v -0.3090169943749474 -0.8090169943749475 0.5
v -0.20177410616759886 -0.7300255741640024 0.6529547236576094
v -0.09523843058378338 -0.630291170638676 0.7704950885987951
v -0.9245941063185542 0.0 -0.38095372233513364
v -0.9794320854864143 0.0 -0.2017741061675988
v -1.0 0.0 0.0
v -0.9794320854864143 0.0 0.2017741061675988
v -0.9245941063185542 0.0 0.38095372233513364
v -0.6302911706386761 0.7704950885987951 -0.0952384305837834
v -0.7300255741640024 0.6529547236576094 -0.20177410616759886
v -0.8090169943749475 0.5 -0.3090169943749474
v -0.8547288298252083 0.32647736182880477 -0.4035482123351976
v -0.8657335191825786 0.154099017719759 -0.4761921529189171
v 0.47619215291891703 0.8657335191825786 0.15409901771975903
v 0.4035482123351976 0.8547288298252083 0.32647736182880477
v 0.3090169943749474 0.8090169943749475 0.5
v 0.20177410616759886 0.7300255741640024 0.6529547236576094
v 0.09523843058378338 0.630291170638676 0.7704950885987951
v -0.6302911706386761 -0.7704950885987951 -0.0952384305837834
v -0.7300255741640024 -0.6529547236576094 -0.20177410616759886
v -0.8090169943749475 -0.5 -0.3090169943749474
v -0.8547288298252083 -0.32647736182880477 -0.4035482123351976
v -0.8657335191825786 -0.154099017719759 -0.4761921529189171
v 0.6302911706386761 0.7704950885987951 -0.0952384305837834
v 0.7300255741640024 0.6529547236576094 -0.20177410616759886
v 0.8090169943749475 0.5 -0.3090169943749474
v 0.8547288298252083 0.32647736182880477 -0.4035482123351976
v 0.8657335191825786 0.154099017719759 -0.4761921529189171
v 0.0 -0.38095372233513364 -0.9245941063185542
v 0.0 -0.2017741061675988 -0.9794320854864143
v 0.0 0.0 -1.0
v 0.0 0.2017741061675988 -0.9794320854864143
v 0.0 0.38095372233513364 -0.9245941063185542
v -0.15409901771975903 -0.47619215291891703 -0.8657335191825786
v -0.32647736182880477 -0.4035482123351976 -0.8547288298252083
v -0.5 -0.3090169943749474 -0.8090169943749475
v -0.6529547236576094 -0.2017741061675989 -0.7300255741640025
v -0.7704950885987952 -0.09523843058378338 -0.630291170638676
v 0.6302911706386761 -0.7704950885987951 -0.0952384305837834
v 0.7300255741640024 -0.6529547236576094 -0.20177410616759886
v 0.8090169943749475 -0.5 -0.3090169943749474
v 0.8547288298252083 -0.32647736182880477 -0.4035482123351976
v 0.8657335191825786 -0.154099017719759 -0.4761921529189171
v -0.15409901771975903 0.47619215291891703 0.8657335191825786
v -0.32647736182880477 0.4035482123351976 0.8547288298252083
v -0.5 0.3090169943749474 0.8090169943749475
v -0.6529547236576094 0.2017741061675989 0.7300255741640025
v -0.7704950885987952 0.09523843058378338 0.630291170638676
v -0.38095372233513364 -0.9245941063185542 0.0
v -0.2017741061675988 -0.9794320854864143 0.0
v 0.0 -1.0 0.0
v 0.2017741061675988 -0.9794320854864143 0.0
v 0.38095372233513364 -0.9245941063185542 0.0
v 0.47619215291891703 0.8657335191825786 -0.15409901771975903
v 0.4035482123351976 0.8547288298252083 -0.32647736182880477
v 0.3090169943749474 0.8090169943749475 -0.5
v 0.20177410616759886 0.7300255741640024 -0.6529547236576094
v 0.09523843058378338 0.630291170638676 -0.7704950885987951
v -0.47619215291891703 -0.8657335191825786 -0.15409901771975903
v -0.4035482123351976 -0.8547288298252083 -0.32647736182880477
v -0.3090169943749474 -0.8090169943749475 -0.5
v -0.20177410616759886 -0.7300255741640024 -0.6529547236576094
v -0.09523843058378338 -0.630291170638676 -0.7704950885987951
v 0.15409901771975903 0.47619215291891703 -0.8657335191825786
v 0.32647736182880477 0.4035482123351976 -0.8547288298252083
v 0.5 0.3090169943749474 -0.8090169943749475
v 0.6529547236576094 0.2017741061675989 -0.7300255741640025
v 0.7704950885987952 0.09523843058378338 -0.630291170638676
v -0.5786893258332632 0.7696723314583159 0.26967233145831576
v -0.6714802500893715 0.6303513474402552 0.3895785575723717
v -0.7380282124956273 0.4561265199786275 0.49725542262774375
v -0.7696723314583158 0.2696723314583159 0.5786893258332632
v -0.4972554226277438 0.7380282124956273 0.45612651997862746
v -0.5773502691896258 0.5773502691896258 0.5773502691896257
v -0.6303513474402552 0.3895785575723718 0.6714802500893715
v -0.38957855757237175 0.6714802500893715 0.6303513474402552
v -0.45612651997862746 0.49725542262774375 0.7380282124956271
v -0.2696723314583158 0.5786893258332633 0.7696723314583157
v -0.30901699437494745 0.9363389981249826 0.16666666666666666
v -0.21535373011074402 0.9122530399572549 0.34844965492325547
v -0.10767686505537204 0.8457050775509992 0.5226744823848832
v -5.1461667323329365e-17 0.7453559924999299 0.6666666666666666
v -0.10767686505537209 0.9788010023635108 0.17422482746162773
v -7.345063871007168e-17 0.9341723589627158 0.35682208977308993
v 0.10767686505537194 0.8457050775509992 0.5226744823848832
v 0.10767686505537198 0.9788010023635108 0.17422482746162773
v 0.215353730110744 0.912253039957255 0.34844965492325547
v 0.30901699437494734 0.9363389981249826 0.16666666666666666
v -0.30901699437494745 0.9363389981249826 -0.16666666666666666
v -0.10767686505537201 0.9788010023635108 -0.17422482746162773
v 0.10767686505537198 0.9788010023635108 -0.17422482746162773
v 0.30901699437494734 0.9363389981249826 -0.16666666666666666
v -0.21535373011074407 0.9122530399572549 -0.3484496549232554
v -7.345063871007168e-17 0.9341723589627157 -0.35682208977308993
v 0.21535373011074396 0.9122530399572549 -0.34844965492325547
v -0.10767686505537204 0.8457050775509992 -0.5226744823848832
v 0.10767686505537198 0.8457050775509992 -0.5226744823848832
v -3.4307778215552914e-17 0.7453559924999299 -0.6666666666666667
v -0.5786893258332632 0.7696723314583159 -0.26967233145831576
v -0.49725542262774375 0.7380282124956271 -0.45612651997862746
v -0.38957855757237175 0.6714802500893715 -0.6303513474402552
v -0.2696723314583159 0.5786893258332633 -0.7696723314583158
v -0.6714802500893715 0.6303513474402553 -0.3895785575723717
v -0.5773502691896257 0.5773502691896258 -0.5773502691896257
v -0.4561265199786275 0.4972554226277438 -0.7380282124956271
v -0.7380282124956273 0.4561265199786275 -0.49725542262774375
v -0.6303513474402552 0.38957855757237175 -0.6714802500893715
v -0.7696723314583158 0.2696723314583159 -0.5786893258332632
v -0.7453559924999298 0.6666666666666667 0.0
v -0.8457050775509992 0.5226744823848832 -0.107676865055372
v -0.912253039957255 0.3484496549232555 -0.21535373011074402
v -0.9363389981249826 0.16666666666666674 -0.3090169943749474
v -0.8457050775509992 0.5226744823848833 0.107676865055372
v -0.9341723589627157 0.35682208977308993 0.0
v -0.9788010023635108 0.17422482746162782 -0.10767686505537201
v -0.912253039957255 0.3484496549232555 0.21535373011074402
v -0.9788010023635108 0.1742248274616278 0.10767686505537202
v -0.9363389981249826 0.1666666666666667 0.30901699437494745
v 0.5786893258332632 0.7696723314583159 0.26967233145831576
v 0.49725542262774375 0.7380282124956271 0.45612651997862746
v 0.38957855757237175 0.6714802500893715 0.6303513474402552
v 0.2696723314583159 0.5786893258332633 0.7696723314583158
v 0.6714802500893715 0.6303513474402553 0.3895785575723717
v 0.5773502691896257 0.5773502691896258 0.5773502691896257
v 0.4561265199786275 0.4972554226277438 0.7380282124956271
v 0.7380282124956273 0.4561265199786275 0.49725542262774375
v 0.6303513474402552 0.38957855757237175 0.6714802500893715
v 0.7696723314583158 0.2696723314583159 0.5786893258332632
v -0.16666666666666666 0.30901699437494745 0.9363389981249826
v -0.34844965492325547 0.21535373011074402 0.9122530399572549
v -0.5226744823848832 0.10767686505537204 0.8457050775509992
v -0.6666666666666666 5.1461667323329365e-17 0.7453559924999299
v -0.17422482746162773 0.10767686505537209 0.9788010023635108
v -0.35682208977308993 7.345063871007168e-17 0.9341723589627158
v -0.5226744823848832 -0.10767686505537194 0.8457050775509992
v -0.17422482746162773 -0.10767686505537198 0.9788010023635108
v -0.34844965492325547 -0.215353730110744 0.912253039957255
v -0.16666666666666666 -0.30901699437494734 0.9363389981249826
v -0.9363389981249826 -0.16666666666666666 0.30901699437494745
v -0.9788010023635108 -0.17422482746162773 0.10767686505537201
v -0.9788010023635108 -0.17422482746162773 -0.10767686505537198
v -0.9363389981249826 -0.16666666666666666 -0.30901699437494734
v -0.9122530399572549 -0.3484496549232554 0.21535373011074407
v -0.9341723589627157 -0.35682208977308993 7.345063871007168e-17
v -0.9122530399572549 -0.34844965492325547 -0.21535373011074396
v -0.8457050775509992 -0.5226744823848832 0.10767686505537204
v -0.8457050775509992 -0.5226744823848832 -0.10767686505537198
v -0.7453559924999299 -0.6666666666666667 3.4307778215552914e-17
v -0.6666666666666667 0.0 -0.7453559924999298
v -0.5226744823848832 0.107676865055372 -0.8457050775509992
v -0.34844965492325547 0.215353730110744 -0.9122530399572549
v -0.16666666666666674 0.3090169943749474 -0.9363389981249826
v -0.5226744823848833 -0.107676865055372 -0.8457050775509992
v -0.35682208977309 0.0 -0.9341723589627157
v -0.17422482746162782 0.10767686505537201 -0.9788010023635108
v -0.34844965492325547 -0.215353730110744 -0.9122530399572549
v -0.1742248274616278 -0.10767686505537202 -0.9788010023635108
v -0.1666666666666667 -0.30901699437494745 -0.9363389981249826
v 0.26967233145831576 0.5786893258332632 -0.7696723314583159
v 0.3895785575723717 0.6714802500893715 -0.6303513474402552
v 0.49725542262774375 0.7380282124956273 -0.4561265199786275
v 0.5786893258332632 0.7696723314583158 -0.2696723314583159
v 0.45612651997862746 0.4972554226277438 -0.7380282124956273
v 0.5773502691896257 0.5773502691896258 -0.5773502691896258
v 0.6714802500893715 0.6303513474402552 -0.3895785575723718
v 0.6303513474402552 0.38957855757237175 -0.6714802500893715
v 0.7380282124956271 0.45612651997862746 -0.49725542262774375
v 0.7696723314583157 0.2696723314583158 -0.5786893258332633
v 0.5786893258332632 -0.7696723314583159 0.26967233145831576
v 0.6714802500893715 -0.6303513474402552 0.3895785575723717
v 0.7380282124956273 -0.4561265199786275 0.49725542262774375
v 0.7696723314583158 -0.2696723314583159 0.5786893258332632
v 0.4972554226277438 -0.7380282124956273 0.45612651997862746
v 0.5773502691896258 -0.5773502691896258 0.5773502691896257
v 0.6303513474402552 -0.3895785575723718 0.6714802500893715
v 0.38957855757237175 -0.6714802500893715 0.6303513474402552
v 0.45612651997862746 -0.49725542262774375 0.7380282124956271
v 0.2696723314583158 -0.5786893258332633 0.7696723314583157
v 0.30901699437494745 -0.9363389981249826 0.16666666666666666
v 0.21535373011074402 -0.9122530399572549 0.34844965492325547
v 0.10767686505537204 -0.8457050775509992 0.5226744823848832
v 5.1461667323329365e-17 -0.7453559924999299 0.6666666666666666
v 0.10767686505537209 -0.9788010023635108 0.17422482746162773
v 7.345063871007168e-17 -0.9341723589627158 0.35682208977308993
v -0.10767686505537194 -0.8457050775509992 0.5226744823848832
v -0.10767686505537198 -0.9788010023635108 0.17422482746162773
v -0.215353730110744 -0.912253039957255 0.34844965492325547
v -0.30901699437494734 -0.9363389981249826 0.16666666666666666
v 0.30901699437494745 -0.9363389981249826 -0.16666666666666666
v 0.10767686505537201 -0.9788010023635108 -0.17422482746162773
v -0.10767686505537198 -0.9788010023635108 -0.17422482746162773
v -0.30901699437494734 -0.9363389981249826 -0.16666666666666666
v 0.21535373011074407 -0.9122530399572549 -0.3484496549232554
v 7.345063871007168e-17 -0.9341723589627157 -0.35682208977308993
v -0.21535373011074396 -0.9122530399572549 -0.34844965492325547
v 0.10767686505537204 -0.8457050775509992 -0.5226744823848832
v -0.10767686505537198 -0.8457050775509992 -0.5226744823848832
v 3.4307778215552914e-17 -0.7453559924999299 -0.6666666666666667
v 0.5786893258332632 -0.7696723314583159 -0.26967233145831576
v 0.49725542262774375 -0.7380282124956271 -0.45612651997862746
v 0.38957855757237175 -0.6714802500893715 -0.6303513474402552
v 0.2696723314583159 -0.5786893258332633 -0.7696723314583158
v 0.6714802500893715 -0.6303513474402553 -0.3895785575723717
v 0.5773502691896257 -0.5773502691896258 -0.5773502691896257
v 0.4561265199786275 -0.4972554226277438 -0.7380282124956271
v 0.7380282124956273 -0.4561265199786275 -0.49725542262774375
v 0.6303513474402552 -0.38957855757237175 -0.6714802500893715
v 0.7696723314583158 -0.2696723314583159 -0.5786893258332632
v 0.7453559924999298 -0.6666666666666667 0.0
v 0.8457050775509992 -0.5226744823848832 -0.107676865055372
v 0.912253039957255 -0.3484496549232555 -0.21535373011074402
v 0.9363389981249826 -0.16666666666666674 -0.3090169943749474
v 0.8457050775509992 -0.5226744823848833 0.107676865055372
v 0.9341723589627157 -0.35682208977308993 0.0
v 0.9788010023635108 -0.17422482746162782 -0.10767686505537201
v 0.912253039957255 -0.3484496549232555 0.21535373011074402
v 0.9788010023635108 -0.1742248274616278 0.10767686505537202
v 0.9363389981249826 -0.1666666666666667 0.30901699437494745
v 0.16666666666666666 -0.30901699437494745 0.9363389981249826
v 0.34844965492325547 -0.21535373011074402 0.9122530399572549
v 0.5226744823848832 -0.10767686505537204 0.8457050775509992
v 0.6666666666666666 -5.1461667323329365e-17 0.7453559924999299
v 0.17422482746162773 -0.10767686505537209 0.9788010023635108
v 0.35682208977308993 -7.345063871007168e-17 0.9341723589627158
v 0.5226744823848832 0.10767686505537194 0.8457050775509992
v 0.17422482746162773 0.10767686505537198 0.9788010023635108
v 0.34844965492325547 0.215353730110744 0.912253039957255
v 0.16666666666666666 0.30901699437494734 0.9363389981249826
v -0.5786893258332632 -0.7696723314583159 0.26967233145831576
v -0.49725542262774375 -0.7380282124956271 0.45612651997862746
v -0.38957855757237175 -0.6714802500893715 0.6303513474402552
v -0.2696723314583159 -0.5786893258332633 0.7696723314583158
v -0.6714802500893715 -0.6303513474402553 0.3895785575723717
v -0.5773502691896257 -0.5773502691896258 0.5773502691896257
v -0.4561265199786275 -0.4972554226277438 0.7380282124956271
v -0.7380282124956273 -0.4561265199786275 0.49725542262774375
v -0.6303513474402552 -0.38957855757237175 0.6714802500893715
v -0.7696723314583158 -0.2696723314583159 0.5786893258332632
v -0.26967233145831576 -0.5786893258332632 -0.7696723314583159
v -0.3895785575723717 -0.6714802500893715 -0.6303513474402552
v -0.49725542262774375 -0.7380282124956273 -0.4561265199786275
v -0.5786893258332632 -0.7696723314583158 -0.2696723314583159
v -0.45612651997862746 -0.4972554226277438 -0.7380282124956273
v -0.5773502691896257 -0.5773502691896258 -0.5773502691896258
v -0.6714802500893715 -0.6303513474402552 -0.3895785575723718
v -0.6303513474402552 -0.38957855757237175 -0.6714802500893715
v -0.7380282124956271 -0.45612651997862746 -0.49725542262774375
v -0.7696723314583157 -0.2696723314583158 -0.5786893258332633
v 0.6666666666666667 0.0 -0.7453559924999298
v 0.5226744823848832 -0.107676865055372 -0.8457050775509992
v 0.34844965492325547 -0.215353730110744 -0.9122530399572549
v 0.16666666666666674 -0.3090169943749474 -0.9363389981249826
v 0.5226744823848833 0.107676865055372 -0.8457050775509992
v 0.35682208977309 0.0 -0.9341723589627157
v 0.17422482746162782 -0.10767686505537201 -0.9788010023635108
v 0.34844965492325547 0.215353730110744 -0.9122530399572549
v 0.1742248274616278 0.10767686505537202 -0.9788010023635108
v 0.1666666666666667 0.30901699437494745 -0.9363389981249826
v 0.9363389981249826 0.16666666666666666 0.30901699437494745
v 0.9788010023635108 0.17422482746162773 0.10767686505537201
v 0.9788010023635108 0.17422482746162773 -0.10767686505537198
v 0.9363389981249826 0.16666666666666666 -0.30901699437494734
v 0.9122530399572549 0.3484496549232554 0.21535373011074407
v 0.9341723589627157 0.35682208977308993 7.345063871007168e-17
v 0.9122530399572549 0.34844965492325547 -0.21535373011074396
v 0.8457050775509992 0.5226744823848832 0.10767686505537204
v 0.8457050775509992 0.5226744823848832 -0.10767686505537198
v 0.7453559924999299 0.6666666666666667 3.4307778215552914e-17
f 1 43 28
f 43 44 163
f 44 45 164
f 45 46 165
f 46 47 166
f 47 12 142
f 43 163 28
f 44 164 163
f 45 165 164
f 46 166 165
f 47 142 166
f 28 163 29
f 163 164 167
f 164 165 168
f 165 166 169
f 166 142 141
f 163 167 29
f 164 168 167
f 165 169 168
f 166 141 169
f 29 167 30
f 167 168 170
f 168 169 171
f 169 141 140
f 167 170 30
f 168 171 170
f 169 140 171
f 30 170 31
f 170 171 172
f 171 140 139
f 170 172 31
f 171 139 172
f 31 172 32
f 172 139 138
f 172 138 32
f 32 138 6
f 1 28 83
f 28 29 173
f 29 30 174
f 30 31 175
f 31 32 176
f 32 6 112
f 28 173 83
f 29 174 173
f 30 175 174
f 31 176 175
f 32 112 176
f 83 173 84
f 173 174 177
f 174 175 178
f 175 176 179
f 176 112 111
f 173 177 84
f 174 178 177
f 175 179 178
f 176 111 179
f 84 177 85
f 177 178 180
f 178 179 181
f 179 111 110
f 177 180 85
f 178 181 180
f 179 110 181
f 85 180 86
f 180 181 182
f 181 110 109
f 180 182 86
f 181 109 182
f 86 182 87
f 182 109 108
f 182 108 87
f 87 108 2
f 1 83 88
f 83 84 183
f 84 85 184
f 85 86 185
f 86 87 186
f 87 2 148
f 83 183 88
f 84 184 183
f 85 185 184
f 86 186 185
f 87 148 186
f 88 183 89
f 183 184 187
f 184 185 188
f 185 186 189
f 186 148 149
f 183 187 89
f 184 188 187
f 185 189 188
f 186 149 189
f 89 187 90
f 187 188 190
f 188 189 191
f 189 149 150
f 187 190 90
f 188 191 190
f 189 150 191
f 90 190 91
f 190 191 192
f 191 150 151
f 190 192 91
f 191 151 192
f 91 192 92
f 192 151 152
f 192 152 92
f 92 152 8
f 1 88 103
f 88 89 193
f 89 90 194
f 90 91 195
f 91 92 196
f 92 8 48
f 88 193 103
f 89 194 193
f 90 195 194
f 91 196 195
f 92 48 196
f 103 193 104
f 193 194 197
f 194 195 198
f 195 196 199
f 196 48 49
f 193 197 104
f 194 198 197
f 195 199 198
f 196 49 199
f 104 197 105
f 197 198 200
f 198 199 201
f 199 49 50
f 197 200 105
f 198 201 200
f 199 50 201
f 105 200 106
f 200 201 202
f 201 50 51
f 200 202 106
f 201 51 202
f 106 202 107
f 202 51 52
f 202 52 107
f 107 52 11
f 1 103 43
f 103 104 203
f 104 105 204
f 105 106 205
f 106 107 206
f 107 11 98
f 103 203 43
f 104 204 203
f 105 205 204
f 106 206 205
f 107 98 206
f 43 203 44
f 203 204 207
f 204 205 208
f 205 206 209
f 206 98 99
f 203 207 44
f 204 208 207
f 205 209 208
f 206 99 209
f 44 207 45
f 207 208 210
f 208 209 211
f 209 99 100
f 207 210 45
f 208 211 210
f 209 100 211
f 45 210 46
f 210 211 212
f 211 100 101
f 210 212 46
f 211 101 212
f 46 212 47
f 212 101 102
f 212 102 47
f 47 102 12
f 2 108 38
f 108 109 213
f 109 110 214
f 110 111 215
f 111 112 216
f 112 6 73
f 108 213 38
f 109 214 213
f 110 215 214
f 111 216 215
f 112 73 216
f 38 213 39
f 213 214 217
f 214 215 218
f 215 216 219
f 216 73 74
f 213 217 39
f 214 218 217
f 215 219 218
f 216 74 219
f 39 217 40
f 217 218 220
f 218 219 221
f 219 74 75
f 217 220 40
f 218 221 220
f 219 75 221
f 40 220 41
f 220 221 222
f 221 75 76
f 220 222 41
f 221 76 222
f 41 222 42
f 222 76 77
f 222 77 42
f 42 77 10
f 6 138 62
f 138 139 223
f 139 140 224
f 140 141 225
f 141 142 226
f 142 12 82
f 138 223 62
f 139 224 223
f 140 225 224
f 141 226 225
f 142 82 226
f 62 223 61
f 223 224 227
f 224 225 228
f 225 226 229
f 226 82 81
f 223 227 61
f 224 228 227
f 225 229 228
f 226 81 229
f 61 227 60
f 227 228 230
f 228 229 231
f 229 81 80
f 227 230 60
f 228 231 230
f 229 80 231
f 60 230 59
f 230 231 232
f 231 80 79
f 230 232 59
f 231 79 232
f 59 232 58
f 232 79 78
f 232 78 58
f 58 78 5
f 12 102 37
f 102 101 233
f 101 100 234
f 100 99 235
f 99 98 236
f 98 11 117
f 102 233 37
f 101 234 233
f 100 235 234
f 99 236 235
f 98 117 236
f 37 233 36
f 233 234 237
f 234 235 238
f 235 236 239
f 236 117 116
f 233 237 36
f 234 238 237
f 235 239 238
f 236 116 239
f 36 237 35
f 237 238 240
f 238 239 241
f 239 116 115
f 237 240 35
f 238 241 240
f 239 115 241
f 35 240 34
f 240 241 242
f 241 115 114
f 240 242 34
f 241 114 242
f 34 242 33
f 242 114 113
f 242 113 33
f 33 113 3
f 11 52 132
f 52 51 243
f 51 50 244
f 50 49 245
f 49 48 246
f 48 8 127
f 52 243 132
f 51 244 243
f 50 245 244
f 49 246 245
f 48 127 246
f 132 243 131
f 243 244 247
f 244 245 248
f 245 246 249
f 246 127 126
f 243 247 131
f 244 248 247
f 245 249 248
f 246 126 249
f 131 247 130
f 247 248 250
f 248 249 251
f 249 126 125
f 247 250 130
f 248 251 250
f 249 125 251
f 130 250 129
f 250 251 252
f 251 125 124
f 250 252 129
f 251 124 252
f 129 252 128
f 252 124 123
f 252 123 128
f 128 123 7
f 8 152 158
f 152 151 253
f 151 150 254
f 150 149 255
f 149 148 256
f 148 2 118
f 152 253 158
f 151 254 253
f 150 255 254
f 149 256 255
f 148 118 256
f 158 253 159
f 253 254 257
f 254 255 258
f 255 256 259
f 256 118 119
f 253 257 159
f 254 258 257
f 255 259 258
f 256 119 259
f 159 257 160
f 257 258 260
f 258 259 261
f 259 119 120
f 257 260 160
f 258 261 260
f 259 120 261
f 160 260 161
f 260 261 262
f 261 120 121
f 260 262 161
f 261 121 262
f 161 262 162
f 262 121 122
f 262 122 162
f 162 122 9
f 4 63 13
f 63 64 263
f 64 65 264
f 65 66 265
f 66 67 266
f 67 10 22
f 63 263 13
f 64 264 263
f 65 265 264
f 66 266 265
f 67 22 266
f 13 263 14
f 263 264 267
f 264 265 268
f 265 266 269
f 266 22 21
f 263 267 14
f 264 268 267
f 265 269 268
f 266 21 269
f 14 267 15
f 267 268 270
f 268 269 271
f 269 21 20
f 267 270 15
f 268 271 270
f 269 20 271
f 15 270 16
f 270 271 272
f 271 20 19
f 270 272 16
f 271 19 272
f 16 272 17
f 272 19 18
f 272 18 17
f 17 18 5
f 4 13 147
f 13 14 273
f 14 15 274
f 15 16 275
f 16 17 276
f 17 5 97
f 13 273 147
f 14 274 273
f 15 275 274
f 16 276 275
f 17 97 276
f 147 273 146
f 273 274 277
f 274 275 278
f 275 276 279
f 276 97 96
f 273 277 146
f 274 278 277
f 275 279 278
f 276 96 279
f 146 277 145
f 277 278 280
f 278 279 281
f 279 96 95
f 277 280 145
f 278 281 280
f 279 95 281
f 145 280 144
f 280 281 282
f 281 95 94
f 280 282 144
f 281 94 282
f 144 282 143
f 282 94 93
f 282 93 143
f 143 93 3
f 4 147 68
f 147 146 283
f 146 145 284
f 145 144 285
f 144 143 286
f 143 3 153
f 147 283 68
f 146 284 283
f 145 285 284
f 144 286 285
f 143 153 286
f 68 283 69
f 283 284 287
f 284 285 288
f 285 286 289
f 286 153 154
f 283 287 69
f 284 288 287
f 285 289 288
f 286 154 289
f 69 287 70
f 287 288 290
f 288 289 291
f 289 154 155
f 287 290 70
f 288 291 290
f 289 155 291
f 70 290 71
f 290 291 292
f 291 155 156
f 290 292 71
f 291 156 292
f 71 292 72
f 292 156 157
f 292 157 72
f 72 157 7
f 4 68 133
f 68 69 293
f 69 70 294
f 70 71 295
f 71 72 296
f 72 7 53
f 68 293 133
f 69 294 293
f 70 295 294
f 71 296 295
f 72 53 296
f 133 293 134
f 293 294 297
f 294 295 298
f 295 296 299
f 296 53 54
f 293 297 134
f 294 298 297
f 295 299 298
f 296 54 299
f 134 297 135
f 297 298 300
f 298 299 301
f 299 54 55
f 297 300 135
f 298 301 300
f 299 55 301
f 135 300 136
f 300 301 302
f 301 55 56
f 300 302 136
f 301 56 302
f 136 302 137
f 302 56 57
f 302 57 137
f 137 57 9
f 4 133 63
f 133 134 303
f 134 135 304
f 135 136 305
f 136 137 306
f 137 9 23
f 133 303 63
f 134 304 303
f 135 305 304
f 136 306 305
f 137 23 306
f 63 303 64
f 303 304 307
f 304 305 308
f 305 306 309
f 306 23 24
f 303 307 64
f 304 308 307
f 305 309 308
f 306 24 309
f 64 307 65
f 307 308 310
f 308 309 311
f 309 24 25
f 307 310 65
f 308 311 310
f 309 25 311
f 65 310 66
f 310 311 312
f 311 25 26
f 310 312 66
f 311 26 312
f 66 312 67
f 312 26 27
f 312 27 67
f 67 27 10
f 5 18 58
f 18 19 313
f 19 20 314
f 20 21 315
f 21 22 316
f 22 10 77
f 18 313 58
f 19 314 313
f 20 315 314
f 21 316 315
f 22 77 316
f 58 313 59
f 313 314 317
f 314 315 318
f 315 316 319
f 316 77 76
f 313 317 59
f 314 318 317
f 315 319 318
f 316 76 319
f 59 317 60
f 317 318 320
f 318 319 321
f 319 76 75
f 317 320 60
f 318 321 320
f 319 75 321
f 60 320 61
f 320 321 322
f 321 75 74
f 320 322 61
f 321 74 322
f 61 322 62
f 322 74 73
f 322 73 62
f 62 73 6
f 3 93 33
f 93 94 323
f 94 95 324
f 95 96 325
f 96 97 326
f 97 5 78
f 93 323 33
f 94 324 323
f 95 325 324
f 96 326 325
f 97 78 326
f 33 323 34
f 323 324 327
f 324 325 328
f 325 326 329
f 326 78 79
f 323 327 34
f 324 328 327
f 325 329 328
f 326 79 329
f 34 327 35
f 327 328 330
f 328 329 331
f 329 79 80
f 327 330 35
f 328 331 330
f 329 80 331
f 35 330 36
f 330 331 332
f 331 80 81
f 330 332 36
f 331 81 332
f 36 332 37
f 332 81 82
f 332 82 37
f 37 82 12
f 7 157 128
f 157 156 333
f 156 155 334
f 155 154 335
f 154 153 336
f 153 3 113
f 157 333 128
f 156 334 333
f 155 335 334
f 154 336 335
f 153 113 336
f 128 333 129
f 333 334 337
f 334 335 338
f 335 336 339
f 336 113 114
f 333 337 129
f 334 338 337
f 335 339 338
f 336 114 339
f 129 337 130
f 337 338 340
f 338 339 341
f 339 114 115
f 337 340 130
f 338 341 340
f 339 115 341
f 130 340 131
f 340 341 342
f 341 115 116
f 340 342 131
f 341 116 342
f 131 342 132
f 342 116 117
f 342 117 132
f 132 117 11
f 9 57 162
f 57 56 343
f 56 55 344
f 55 54 345
f 54 53 346
f 53 7 123
f 57 343 162
f 56 344 343
f 55 345 344
f 54 346 345
f 53 123 346
f 162 343 161
f 343 344 347
f 344 345 348
f 345 346 349
f 346 123 124
f 343 347 161
f 344 348 347
f 345 349 348
f 346 124 349
f 161 347 160
f 347 348 350
f 348 349 351
f 349 124 125
f 347 350 160
f 348 351 350
f 349 125 351
f 160 350 159
f 350 351 352
f 351 125 126
f 350 352 159
f 351 126 352
f 159 352 158
f 352 126 127
f 352 127 158
f 158 127 8
f 10 27 42
f 27 26 353
f 26 25 354
f 25 24 355
f 24 23 356
f 23 9 122
f 27 353 42
f 26 354 353
f 25 355 354
f 24 356 355
f 23 122 356
f 42 353 41
f 353 354 357
f 354 355 358
f 355 356 359
f 356 122 121
f 353 357 41
f 354 358 357
f 355 359 358
f 356 121 359
f 41 357 40
f 357 358 360
f 358 359 361
f 359 121 120
f 357 360 40
f 358 361 360
f 359 120 361
f 40 360 39
f 360 361 362
f 361 120 119
f 360 362 39
f 361 119 362
f 39 362 38
f 362 119 118
f 362 118 38
f 38 118 2
