v -3.490658503988664 -50.0 0.0
v -3.490658503988664 -49.0 0.0
v -3.490658503988664 -48.0 0.0
v -3.490658503988664 -47.0 0.0
v -3.490658503988664 -46.0 0.0
v -3.490658503988664 -45.0 0.0
v -3.490658503988664 -44.0 0.0
v -3.490658503988664 -43.0 0.0
v -3.490658503988664 -42.0 0.0
v -3.490658503988664 -41.0 0.0
v -3.490658503988664 -40.0 0.0
v -3.490658503988664 -39.0 0.0
v -3.490658503988664 -38.0 0.0
v -3.490658503988664 -37.0 0.0
v -3.490658503988664 -36.0 0.0
v -3.490658503988664 -35.0 0.0
v -3.490658503988664 -34.0 0.0
v -3.490658503988664 -33.0 0.0
v -3.490658503988664 -32.0 0.0
v -3.490658503988664 -31.0 0.0
v -3.490658503988664 -30.0 0.0
v -3.490658503988664 -29.0 0.0
v -3.490658503988664 -28.0 0.0
v -3.490658503988664 -27.0 0.0
v -3.490658503988664 -26.0 0.0
v -3.490658503988664 -25.0 0.0
v -3.490658503988664 -24.0 0.0
v -3.490658503988664 -23.0 0.0
v -3.490658503988664 -22.0 0.0
v -3.490658503988664 -21.0 0.0
v -3.490658503988664 -20.0 0.0
v -3.490658503988664 -19.0 0.0
v -3.490658503988664 -18.0 0.0
v -3.490658503988664 -17.0 0.0
v -3.490658503988664 -16.0 0.0
v -3.490658503988664 -15.0 0.0
v -3.490658503988664 -14.0 0.0
v -3.490658503988664 -13.0 0.0
v -3.490658503988664 -12.0 0.0
v -3.490658503988664 -11.0 0.0
v -3.490658503988664 -10.0 0.0
v -3.490658503988664 -9.0 0.0
v -3.490658503988664 -8.0 0.0
v -3.490658503988664 -7.0 0.0
v -3.490658503988664 -6.0 0.0
v -3.490658503988664 -5.0 0.0
v -3.490658503988664 -4.0 0.0
v -3.490658503988664 -3.0 0.0
v -3.490658503988664 -2.0 0.0
v -3.490658503988664 -1.0 0.0
v -3.490658503988664 0.0 0.0
v -3.490658503988664 1.0 0.0
v -3.490658503988664 2.0 0.0
v -3.490658503988664 3.0 0.0
v -3.490658503988664 4.0 0.0
v -3.490658503988664 5.0 0.0
v -3.490658503988664 6.0 0.0
v -3.490658503988664 7.0 0.0
v -3.490658503988664 8.0 0.0
v -3.490658503988664 9.0 0.0
v -3.490658503988664 10.0 0.0
v -3.490658503988664 11.0 0.0
v -3.490658503988664 12.0 0.0
v -3.490658503988664 13.0 0.0
v -3.490658503988664 14.0 0.0
v -3.490658503988664 15.0 0.0
v -3.490658503988664 16.0 0.0
v -3.490658503988664 17.0 0.0
v -3.490658503988664 18.0 0.0
v -3.490658503988664 19.0 0.0
v -3.490658503988664 20.0 0.0
v -3.490658503988664 21.0 0.0
v -3.490658503988664 22.0 0.0
v -3.490658503988664 23.0 0.0
v -3.490658503988664 24.0 0.0
v -3.490658503988664 25.0 0.0
v -3.490658503988664 26.0 0.0
v -3.490658503988664 27.0 0.0
v -3.490658503988664 28.0 0.0
v -3.490658503988664 29.0 0.0
v -3.490658503988664 30.0 0.0
v -3.490658503988664 31.0 0.0
v -3.490658503988664 32.0 0.0
v -3.490658503988664 33.0 0.0
v -3.490658503988664 34.0 0.0
v -3.490658503988664 35.0 0.0
v -3.490658503988664 36.0 0.0
v -3.490658503988664 37.0 0.0
v -3.490658503988664 38.0 0.0
v -3.490658503988664 39.0 0.0
v -3.490658503988664 40.0 0.0
v -3.490658503988664 41.0 0.0
v -3.490658503988664 42.0 0.0
v -3.490658503988664 43.0 0.0
v -3.490658503988664 44.0 0.0
v -3.490658503988664 45.0 0.0
v -3.490658503988664 46.0 0.0
v -3.490658503988664 47.0 0.0
v -3.490658503988664 48.0 0.0
v -3.490658503988664 49.0 0.0
v -3.490658503988664 50.0 0.0
v -2.493327502849046 -50.0 0.0
v -2.493327502849046 -49.0 0.0
v -2.493327502849046 -48.0 0.0
v -2.493327502849046 -47.0 0.0
v -2.493327502849046 -46.0 0.0
v -2.493327502849046 -45.0 0.0
v -2.493327502849046 -44.0 0.0
v -2.493327502849046 -43.0 0.0
v -2.493327502849046 -42.0 0.0
v -2.493327502849046 -41.0 0.0
v -2.493327502849046 -40.0 0.0
v -2.493327502849046 -39.0 0.0
v -2.493327502849046 -38.0 0.0
v -2.493327502849046 -37.0 0.0
v -2.493327502849046 -36.0 0.0
v -2.493327502849046 -35.0 0.0
v -2.493327502849046 -34.0 0.0
v -2.493327502849046 -33.0 0.0
v -2.493327502849046 -32.0 0.0
v -2.493327502849046 -31.0 0.0
v -2.493327502849046 -30.0 0.0
v -2.493327502849046 -29.0 0.0
v -2.493327502849046 -28.0 0.0
v -2.493327502849046 -27.0 0.0
v -2.493327502849046 -26.0 0.0
v -2.493327502849046 -25.0 0.0
v -2.493327502849046 -24.0 0.0
v -2.493327502849046 -23.0 0.0
v -2.493327502849046 -22.0 0.0
v -2.493327502849046 -21.0 0.0
v -2.493327502849046 -20.0 0.0
v -2.493327502849046 -19.0 0.0
v -2.493327502849046 -18.0 0.0
v -2.493327502849046 -17.0 0.0
v -2.493327502849046 -16.0 0.0
v -2.493327502849046 -15.0 0.0
v -2.493327502849046 -14.0 0.0
v -2.493327502849046 -13.0 0.0
v -2.493327502849046 -12.0 0.0
v -2.493327502849046 -11.0 0.0
v -2.493327502849046 -10.0 0.0
v -2.493327502849046 -9.0 0.0
v -2.493327502849046 -8.0 0.0
v -2.493327502849046 -7.0 0.0
v -2.493327502849046 -6.0 0.0
v -2.493327502849046 -5.0 0.0
v -2.493327502849046 -4.0 0.0
v -2.493327502849046 -3.0 0.0
v -2.493327502849046 -2.0 0.0
v -2.493327502849046 -1.0 0.0
v -2.493327502849046 0.0 0.0
v -2.493327502849046 1.0 0.0
v -2.493327502849046 2.0 0.0
v -2.493327502849046 3.0 0.0
v -2.493327502849046 4.0 0.0
v -2.493327502849046 5.0 0.0
v -2.493327502849046 6.0 0.0
v -2.493327502849046 7.0 0.0
v -2.493327502849046 8.0 0.0
v -2.493327502849046 9.0 0.0
v -2.493327502849046 10.0 0.0
v -2.493327502849046 11.0 0.0
v -2.493327502849046 12.0 0.0
v -2.493327502849046 13.0 0.0
v -2.493327502849046 14.0 0.0
v -2.493327502849046 15.0 0.0
v -2.493327502849046 16.0 0.0
v -2.493327502849046 17.0 0.0
v -2.493327502849046 18.0 0.0
v -2.493327502849046 19.0 0.0
v -2.493327502849046 20.0 0.0
v -2.493327502849046 21.0 0.0
v -2.493327502849046 22.0 0.0
v -2.493327502849046 23.0 0.0
v -2.493327502849046 24.0 0.0
v -2.493327502849046 25.0 0.0
v -2.493327502849046 26.0 0.0
v -2.493327502849046 27.0 0.0
v -2.493327502849046 28.0 0.0
v -2.493327502849046 29.0 0.0
v -2.493327502849046 30.0 0.0
v -2.493327502849046 31.0 0.0
v -2.493327502849046 32.0 0.0
v -2.493327502849046 33.0 0.0
v -2.493327502849046 34.0 0.0
v -2.493327502849046 35.0 0.0
v -2.493327502849046 36.0 0.0
v -2.493327502849046 37.0 0.0
v -2.493327502849046 38.0 0.0
v -2.493327502849046 39.0 0.0
v -2.493327502849046 40.0 0.0
v -2.493327502849046 41.0 0.0
v -2.493327502849046 42.0 0.0
v -2.493327502849046 43.0 0.0
v -2.493327502849046 44.0 0.0
v -2.493327502849046 45.0 0.0
v -2.493327502849046 46.0 0.0
v -2.493327502849046 47.0 0.0
v -2.493327502849046 48.0 0.0
v -2.493327502849046 49.0 0.0
v -2.493327502849046 50.0 0.0
v -1.4959965017094274 -50.0 0.0
v -1.4959965017094274 -49.0 0.0
v -1.4959965017094274 -48.0 0.0
v -1.4959965017094274 -47.0 0.0
v -1.4959965017094274 -46.0 0.0
v -1.4959965017094274 -45.0 0.0
v -1.4959965017094274 -44.0 0.0
v -1.4959965017094274 -43.0 0.0
v -1.4959965017094274 -42.0 0.0
v -1.4959965017094274 -41.0 0.0
v -1.4959965017094274 -40.0 0.0
v -1.4959965017094274 -39.0 0.0
v -1.4959965017094274 -38.0 0.0
v -1.4959965017094274 -37.0 0.0
v -1.4959965017094274 -36.0 0.0
v -1.4959965017094274 -35.0 0.0
v -1.4959965017094274 -34.0 0.0
v -1.4959965017094274 -33.0 0.0
v -1.4959965017094274 -32.0 0.0
v -1.4959965017094274 -31.0 0.0
v -1.4959965017094274 -30.0 0.0
v -1.4959965017094274 -29.0 0.0
v -1.4959965017094274 -28.0 0.0
v -1.4959965017094274 -27.0 0.0
v -1.4959965017094274 -26.0 0.0
v -1.4959965017094274 -25.0 0.0
v -1.4959965017094274 -24.0 0.0
v -1.4959965017094274 -23.0 0.0
v -1.4959965017094274 -22.0 0.0
v -1.4959965017094274 -21.0 0.0
v -1.4959965017094274 -20.0 0.0
v -1.4959965017094274 -19.0 0.0
v -1.4959965017094274 -18.0 0.0
v -1.4959965017094274 -17.0 0.0
v -1.4959965017094274 -16.0 0.0
v -1.4959965017094274 -15.0 0.0
v -1.4959965017094274 -14.0 0.0
v -1.4959965017094274 -13.0 0.0
v -1.4959965017094274 -12.0 0.0
v -1.4959965017094274 -11.0 0.0
v -1.4959965017094274 -10.0 0.0
v -1.4959965017094274 -9.0 0.0
v -1.4959965017094274 -8.0 0.0
v -1.4959965017094274 -7.0 0.0
v -1.4959965017094274 -6.0 0.0
v -1.4959965017094274 -5.0 0.0
v -1.4959965017094274 -4.0 0.0
v -1.4959965017094274 -3.0 0.0
v -1.4959965017094274 -2.0 0.0
v -1.4959965017094274 -1.0 0.0
v -1.4959965017094274 0.0 0.0
v -1.4959965017094274 1.0 0.0
v -1.4959965017094274 2.0 0.0
v -1.4959965017094274 3.0 0.0
v -1.4959965017094274 4.0 0.0
v -1.4959965017094274 5.0 0.0
v -1.4959965017094274 6.0 0.0
v -1.4959965017094274 7.0 0.0
v -1.4959965017094274 8.0 0.0
v -1.4959965017094274 9.0 0.0
v -1.4959965017094274 10.0 0.0
v -1.4959965017094274 11.0 0.0
v -1.4959965017094274 12.0 0.0
v -1.4959965017094274 13.0 0.0
v -1.4959965017094274 14.0 0.0
v -1.4959965017094274 15.0 0.0
v -1.4959965017094274 16.0 0.0
v -1.4959965017094274 17.0 0.0
v -1.4959965017094274 18.0 0.0
v -1.4959965017094274 19.0 0.0
v -1.4959965017094274 20.0 0.0
v -1.4959965017094274 21.0 0.0
v -1.4959965017094274 22.0 0.0
v -1.4959965017094274 23.0 0.0
v -1.4959965017094274 24.0 0.0
v -1.4959965017094274 25.0 0.0
v -1.4959965017094274 26.0 0.0
v -1.4959965017094274 27.0 0.0
v -1.4959965017094274 28.0 0.0
v -1.4959965017094274 29.0 0.0
v -1.4959965017094274 30.0 0.0
v -1.4959965017094274 31.0 0.0
v -1.4959965017094274 32.0 0.0
v -1.4959965017094274 33.0 0.0
v -1.4959965017094274 34.0 0.0
v -1.4959965017094274 35.0 0.0
v -1.4959965017094274 36.0 0.0
v -1.4959965017094274 37.0 0.0
v -1.4959965017094274 38.0 0.0
v -1.4959965017094274 39.0 0.0
v -1.4959965017094274 40.0 0.0
v -1.4959965017094274 41.0 0.0
v -1.4959965017094274 42.0 0.0
v -1.4959965017094274 43.0 0.0
v -1.4959965017094274 44.0 0.0
v -1.4959965017094274 45.0 0.0
v -1.4959965017094274 46.0 0.0
v -1.4959965017094274 47.0 0.0
v -1.4959965017094274 48.0 0.0
v -1.4959965017094274 49.0 0.0
v -1.4959965017094274 50.0 0.0
v -0.4986655005698091 -50.0 0.0
v -0.4986655005698091 -49.0 0.0
v -0.4986655005698091 -48.0 0.0
v -0.4986655005698091 -47.0 0.0
v -0.4986655005698091 -46.0 0.0
v -0.4986655005698091 -45.0 0.0
v -0.4986655005698091 -44.0 0.0
v -0.4986655005698091 -43.0 0.0
v -0.4986655005698091 -42.0 0.0
v -0.4986655005698091 -41.0 0.0
v -0.4986655005698091 -40.0 0.0
v -0.4986655005698091 -39.0 0.0
v -0.4986655005698091 -38.0 0.0
v -0.4986655005698091 -37.0 0.0
v -0.4986655005698091 -36.0 0.0
v -0.4986655005698091 -35.0 0.0
v -0.4986655005698091 -34.0 0.0
v -0.4986655005698091 -33.0 0.0
v -0.4986655005698091 -32.0 0.0
v -0.4986655005698091 -31.0 0.0
v -0.4986655005698091 -30.0 0.0
v -0.4986655005698091 -29.0 0.0
v -0.4986655005698091 -28.0 0.0
v -0.4986655005698091 -27.0 0.0
v -0.4986655005698091 -26.0 0.0
v -0.4986655005698091 -25.0 0.0
v -0.4986655005698091 -24.0 0.0
v -0.4986655005698091 -23.0 0.0
v -0.4986655005698091 -22.0 0.0
v -0.4986655005698091 -21.0 0.0
v -0.4986655005698091 -20.0 0.0
v -0.4986655005698091 -19.0 0.0
v -0.4986655005698091 -18.0 0.0
v -0.4986655005698091 -17.0 0.0
v -0.4986655005698091 -16.0 0.0
v -0.4986655005698091 -15.0 0.0
v -0.4986655005698091 -14.0 0.0
v -0.4986655005698091 -13.0 0.0
v -0.4986655005698091 -12.0 0.0
v -0.4986655005698091 -11.0 0.0
v -0.4986655005698091 -10.0 0.0
v -0.4986655005698091 -9.0 0.0
v -0.4986655005698091 -8.0 0.0
v -0.4986655005698091 -7.0 0.0
v -0.4986655005698091 -6.0 0.0
v -0.4986655005698091 -5.0 0.0
v -0.4986655005698091 -4.0 0.0
v -0.4986655005698091 -3.0 0.0
v -0.4986655005698091 -2.0 0.0
v -0.4986655005698091 -1.0 0.0
v -0.4986655005698091 0.0 0.0
v -0.4986655005698091 1.0 0.0
v -0.4986655005698091 2.0 0.0
v -0.4986655005698091 3.0 0.0
v -0.4986655005698091 4.0 0.0
v -0.4986655005698091 5.0 0.0
v -0.4986655005698091 6.0 0.0
v -0.4986655005698091 7.0 0.0
v -0.4986655005698091 8.0 0.0
v -0.4986655005698091 9.0 0.0
v -0.4986655005698091 10.0 0.0
v -0.4986655005698091 11.0 0.0
v -0.4986655005698091 12.0 0.0
v -0.4986655005698091 13.0 0.0
v -0.4986655005698091 14.0 0.0
v -0.4986655005698091 15.0 0.0
v -0.4986655005698091 16.0 0.0
v -0.4986655005698091 17.0 0.0
v -0.4986655005698091 18.0 0.0
v -0.4986655005698091 19.0 0.0
v -0.4986655005698091 20.0 0.0
v -0.4986655005698091 21.0 0.0
v -0.4986655005698091 22.0 0.0
v -0.4986655005698091 23.0 0.0
v -0.4986655005698091 24.0 0.0
v -0.4986655005698091 25.0 0.0
v -0.4986655005698091 26.0 0.0
v -0.4986655005698091 27.0 0.0
v -0.4986655005698091 28.0 0.0
v -0.4986655005698091 29.0 0.0
v -0.4986655005698091 30.0 0.0
v -0.4986655005698091 31.0 0.0
v -0.4986655005698091 32.0 0.0
v -0.4986655005698091 33.0 0.0
v -0.4986655005698091 34.0 0.0
v -0.4986655005698091 35.0 0.0
v -0.4986655005698091 36.0 0.0
v -0.4986655005698091 37.0 0.0
v -0.4986655005698091 38.0 0.0
v -0.4986655005698091 39.0 0.0
v -0.4986655005698091 40.0 0.0
v -0.4986655005698091 41.0 0.0
v -0.4986655005698091 42.0 0.0
v -0.4986655005698091 43.0 0.0
v -0.4986655005698091 44.0 0.0
v -0.4986655005698091 45.0 0.0
v -0.4986655005698091 46.0 0.0
v -0.4986655005698091 47.0 0.0
v -0.4986655005698091 48.0 0.0
v -0.4986655005698091 49.0 0.0
v -0.4986655005698091 50.0 0.0
v 0.4986655005698091 -50.0 0.0
v 0.4986655005698091 -49.0 0.0
v 0.4986655005698091 -48.0 0.0
v 0.4986655005698091 -47.0 0.0
v 0.4986655005698091 -46.0 0.0
v 0.4986655005698091 -45.0 0.0
v 0.4986655005698091 -44.0 0.0
v 0.4986655005698091 -43.0 0.0
v 0.4986655005698091 -42.0 0.0
v 0.4986655005698091 -41.0 0.0
v 0.4986655005698091 -40.0 0.0
v 0.4986655005698091 -39.0 0.0
v 0.4986655005698091 -38.0 0.0
v 0.4986655005698091 -37.0 0.0
v 0.4986655005698091 -36.0 0.0
v 0.4986655005698091 -35.0 0.0
v 0.4986655005698091 -34.0 0.0
v 0.4986655005698091 -33.0 0.0
v 0.4986655005698091 -32.0 0.0
v 0.4986655005698091 -31.0 0.0
v 0.4986655005698091 -30.0 0.0
v 0.4986655005698091 -29.0 0.0
v 0.4986655005698091 -28.0 0.0
v 0.4986655005698091 -27.0 0.0
v 0.4986655005698091 -26.0 0.0
v 0.4986655005698091 -25.0 0.0
v 0.4986655005698091 -24.0 0.0
v 0.4986655005698091 -23.0 0.0
v 0.4986655005698091 -22.0 0.0
v 0.4986655005698091 -21.0 0.0
v 0.4986655005698091 -20.0 0.0
v 0.4986655005698091 -19.0 0.0
v 0.4986655005698091 -18.0 0.0
v 0.4986655005698091 -17.0 0.0
v 0.4986655005698091 -16.0 0.0
v 0.4986655005698091 -15.0 0.0
v 0.4986655005698091 -14.0 0.0
v 0.4986655005698091 -13.0 0.0
v 0.4986655005698091 -12.0 0.0
v 0.4986655005698091 -11.0 0.0
v 0.4986655005698091 -10.0 0.0
v 0.4986655005698091 -9.0 0.0
v 0.4986655005698091 -8.0 0.0
v 0.4986655005698091 -7.0 0.0
v 0.4986655005698091 -6.0 0.0
v 0.4986655005698091 -5.0 0.0
v 0.4986655005698091 -4.0 0.0
v 0.4986655005698091 -3.0 0.0
v 0.4986655005698091 -2.0 0.0
v 0.4986655005698091 -1.0 0.0
v 0.4986655005698091 0.0 0.0
v 0.4986655005698091 1.0 0.0
v 0.4986655005698091 2.0 0.0
v 0.4986655005698091 3.0 0.0
v 0.4986655005698091 4.0 0.0
v 0.4986655005698091 5.0 0.0
v 0.4986655005698091 6.0 0.0
v 0.4986655005698091 7.0 0.0
v 0.4986655005698091 8.0 0.0
v 0.4986655005698091 9.0 0.0
v 0.4986655005698091 10.0 0.0
v 0.4986655005698091 11.0 0.0
v 0.4986655005698091 12.0 0.0
v 0.4986655005698091 13.0 0.0
v 0.4986655005698091 14.0 0.0
v 0.4986655005698091 15.0 0.0
v 0.4986655005698091 16.0 0.0
v 0.4986655005698091 17.0 0.0
v 0.4986655005698091 18.0 0.0
v 0.4986655005698091 19.0 0.0
v 0.4986655005698091 20.0 0.0
v 0.4986655005698091 21.0 0.0
v 0.4986655005698091 22.0 0.0
v 0.4986655005698091 23.0 0.0
v 0.4986655005698091 24.0 0.0
v 0.4986655005698091 25.0 0.0
v 0.4986655005698091 26.0 0.0
v 0.4986655005698091 27.0 0.0
v 0.4986655005698091 28.0 0.0
v 0.4986655005698091 29.0 0.0
v 0.4986655005698091 30.0 0.0
v 0.4986655005698091 31.0 0.0
v 0.4986655005698091 32.0 0.0
v 0.4986655005698091 33.0 0.0
v 0.4986655005698091 34.0 0.0
v 0.4986655005698091 35.0 0.0
v 0.4986655005698091 36.0 0.0
v 0.4986655005698091 37.0 0.0
v 0.4986655005698091 38.0 0.0
v 0.4986655005698091 39.0 0.0
v 0.4986655005698091 40.0 0.0
v 0.4986655005698091 41.0 0.0
v 0.4986655005698091 42.0 0.0
v 0.4986655005698091 43.0 0.0
v 0.4986655005698091 44.0 0.0
v 0.4986655005698091 45.0 0.0
v 0.4986655005698091 46.0 0.0
v 0.4986655005698091 47.0 0.0
v 0.4986655005698091 48.0 0.0
v 0.4986655005698091 49.0 0.0
v 0.4986655005698091 50.0 0.0
v 1.4959965017094277 -50.0 0.0
v 1.4959965017094277 -49.0 0.0
v 1.4959965017094277 -48.0 0.0
v 1.4959965017094277 -47.0 0.0
v 1.4959965017094277 -46.0 0.0
v 1.4959965017094277 -45.0 0.0
v 1.4959965017094277 -44.0 0.0
v 1.4959965017094277 -43.0 0.0
v 1.4959965017094277 -42.0 0.0
v 1.4959965017094277 -41.0 0.0
v 1.4959965017094277 -40.0 0.0
v 1.4959965017094277 -39.0 0.0
v 1.4959965017094277 -38.0 0.0
v 1.4959965017094277 -37.0 0.0
v 1.4959965017094277 -36.0 0.0
v 1.4959965017094277 -35.0 0.0
v 1.4959965017094277 -34.0 0.0
v 1.4959965017094277 -33.0 0.0
v 1.4959965017094277 -32.0 0.0
v 1.4959965017094277 -31.0 0.0
v 1.4959965017094277 -30.0 0.0
v 1.4959965017094277 -29.0 0.0
v 1.4959965017094277 -28.0 0.0
v 1.4959965017094277 -27.0 0.0
v 1.4959965017094277 -26.0 0.0
v 1.4959965017094277 -25.0 0.0
v 1.4959965017094277 -24.0 0.0
v 1.4959965017094277 -23.0 0.0
v 1.4959965017094277 -22.0 0.0
v 1.4959965017094277 -21.0 0.0
v 1.4959965017094277 -20.0 0.0
v 1.4959965017094277 -19.0 0.0
v 1.4959965017094277 -18.0 0.0
v 1.4959965017094277 -17.0 0.0
v 1.4959965017094277 -16.0 0.0
v 1.4959965017094277 -15.0 0.0
v 1.4959965017094277 -14.0 0.0
v 1.4959965017094277 -13.0 0.0
v 1.4959965017094277 -12.0 0.0
v 1.4959965017094277 -11.0 0.0
v 1.4959965017094277 -10.0 0.0
v 1.4959965017094277 -9.0 0.0
v 1.4959965017094277 -8.0 0.0
v 1.4959965017094277 -7.0 0.0
v 1.4959965017094277 -6.0 0.0
v 1.4959965017094277 -5.0 0.0
v 1.4959965017094277 -4.0 0.0
v 1.4959965017094277 -3.0 0.0
v 1.4959965017094277 -2.0 0.0
v 1.4959965017094277 -1.0 0.0
v 1.4959965017094277 0.0 0.0
v 1.4959965017094277 1.0 0.0
v 1.4959965017094277 2.0 0.0
v 1.4959965017094277 3.0 0.0
v 1.4959965017094277 4.0 0.0
v 1.4959965017094277 5.0 0.0
v 1.4959965017094277 6.0 0.0
v 1.4959965017094277 7.0 0.0
v 1.4959965017094277 8.0 0.0
v 1.4959965017094277 9.0 0.0
v 1.4959965017094277 10.0 0.0
v 1.4959965017094277 11.0 0.0
v 1.4959965017094277 12.0 0.0
v 1.4959965017094277 13.0 0.0
v 1.4959965017094277 14.0 0.0
v 1.4959965017094277 15.0 0.0
v 1.4959965017094277 16.0 0.0
v 1.4959965017094277 17.0 0.0
v 1.4959965017094277 18.0 0.0
v 1.4959965017094277 19.0 0.0
v 1.4959965017094277 20.0 0.0
v 1.4959965017094277 21.0 0.0
v 1.4959965017094277 22.0 0.0
v 1.4959965017094277 23.0 0.0
v 1.4959965017094277 24.0 0.0
v 1.4959965017094277 25.0 0.0
v 1.4959965017094277 26.0 0.0
v 1.4959965017094277 27.0 0.0
v 1.4959965017094277 28.0 0.0
v 1.4959965017094277 29.0 0.0
v 1.4959965017094277 30.0 0.0
v 1.4959965017094277 31.0 0.0
v 1.4959965017094277 32.0 0.0
v 1.4959965017094277 33.0 0.0
v 1.4959965017094277 34.0 0.0
v 1.4959965017094277 35.0 0.0
v 1.4959965017094277 36.0 0.0
v 1.4959965017094277 37.0 0.0
v 1.4959965017094277 38.0 0.0
v 1.4959965017094277 39.0 0.0
v 1.4959965017094277 40.0 0.0
v 1.4959965017094277 41.0 0.0
v 1.4959965017094277 42.0 0.0
v 1.4959965017094277 43.0 0.0
v 1.4959965017094277 44.0 0.0
v 1.4959965017094277 45.0 0.0
v 1.4959965017094277 46.0 0.0
v 1.4959965017094277 47.0 0.0
v 1.4959965017094277 48.0 0.0
v 1.4959965017094277 49.0 0.0
v 1.4959965017094277 50.0 0.0
v 2.493327502849046 -50.0 0.0
v 2.493327502849046 -49.0 0.0
v 2.493327502849046 -48.0 0.0
v 2.493327502849046 -47.0 0.0
v 2.493327502849046 -46.0 0.0
v 2.493327502849046 -45.0 0.0
v 2.493327502849046 -44.0 0.0
v 2.493327502849046 -43.0 0.0
v 2.493327502849046 -42.0 0.0
v 2.493327502849046 -41.0 0.0
v 2.493327502849046 -40.0 0.0
v 2.493327502849046 -39.0 0.0
v 2.493327502849046 -38.0 0.0
v 2.493327502849046 -37.0 0.0
v 2.493327502849046 -36.0 0.0
v 2.493327502849046 -35.0 0.0
v 2.493327502849046 -34.0 0.0
v 2.493327502849046 -33.0 0.0
v 2.493327502849046 -32.0 0.0
v 2.493327502849046 -31.0 0.0
v 2.493327502849046 -30.0 0.0
v 2.493327502849046 -29.0 0.0
v 2.493327502849046 -28.0 0.0
v 2.493327502849046 -27.0 0.0
v 2.493327502849046 -26.0 0.0
v 2.493327502849046 -25.0 0.0
v 2.493327502849046 -24.0 0.0
v 2.493327502849046 -23.0 0.0
v 2.493327502849046 -22.0 0.0
v 2.493327502849046 -21.0 0.0
v 2.493327502849046 -20.0 0.0
v 2.493327502849046 -19.0 0.0
v 2.493327502849046 -18.0 0.0
v 2.493327502849046 -17.0 0.0
v 2.493327502849046 -16.0 0.0
v 2.493327502849046 -15.0 0.0
v 2.493327502849046 -14.0 0.0
v 2.493327502849046 -13.0 0.0
v 2.493327502849046 -12.0 0.0
v 2.493327502849046 -11.0 0.0
v 2.493327502849046 -10.0 0.0
v 2.493327502849046 -9.0 0.0
v 2.493327502849046 -8.0 0.0
v 2.493327502849046 -7.0 0.0
v 2.493327502849046 -6.0 0.0
v 2.493327502849046 -5.0 0.0
v 2.493327502849046 -4.0 0.0
v 2.493327502849046 -3.0 0.0
v 2.493327502849046 -2.0 0.0
v 2.493327502849046 -1.0 0.0
v 2.493327502849046 0.0 0.0
v 2.493327502849046 1.0 0.0
v 2.493327502849046 2.0 0.0
v 2.493327502849046 3.0 0.0
v 2.493327502849046 4.0 0.0
v 2.493327502849046 5.0 0.0
v 2.493327502849046 6.0 0.0
v 2.493327502849046 7.0 0.0
v 2.493327502849046 8.0 0.0
v 2.493327502849046 9.0 0.0
v 2.493327502849046 10.0 0.0
v 2.493327502849046 11.0 0.0
v 2.493327502849046 12.0 0.0
v 2.493327502849046 13.0 0.0
v 2.493327502849046 14.0 0.0
v 2.493327502849046 15.0 0.0
v 2.493327502849046 16.0 0.0
v 2.493327502849046 17.0 0.0
v 2.493327502849046 18.0 0.0
v 2.493327502849046 19.0 0.0
v 2.493327502849046 20.0 0.0
v 2.493327502849046 21.0 0.0
v 2.493327502849046 22.0 0.0
v 2.493327502849046 23.0 0.0
v 2.493327502849046 24.0 0.0
v 2.493327502849046 25.0 0.0
v 2.493327502849046 26.0 0.0
v 2.493327502849046 27.0 0.0
v 2.493327502849046 28.0 0.0
v 2.493327502849046 29.0 0.0
v 2.493327502849046 30.0 0.0
v 2.493327502849046 31.0 0.0
v 2.493327502849046 32.0 0.0
v 2.493327502849046 33.0 0.0
v 2.493327502849046 34.0 0.0
v 2.493327502849046 35.0 0.0
v 2.493327502849046 36.0 0.0
v 2.493327502849046 37.0 0.0
v 2.493327502849046 38.0 0.0
v 2.493327502849046 39.0 0.0
v 2.493327502849046 40.0 0.0
v 2.493327502849046 41.0 0.0
v 2.493327502849046 42.0 0.0
v 2.493327502849046 43.0 0.0
v 2.493327502849046 44.0 0.0
v 2.493327502849046 45.0 0.0
v 2.493327502849046 46.0 0.0
v 2.493327502849046 47.0 0.0
v 2.493327502849046 48.0 0.0
v 2.493327502849046 49.0 0.0
v 2.493327502849046 50.0 0.0
v 3.490658503988664 -50.0 0.0
v 3.490658503988664 -49.0 0.0
v 3.490658503988664 -48.0 0.0
v 3.490658503988664 -47.0 0.0
v 3.490658503988664 -46.0 0.0
v 3.490658503988664 -45.0 0.0
v 3.490658503988664 -44.0 0.0
v 3.490658503988664 -43.0 0.0
v 3.490658503988664 -42.0 0.0
v 3.490658503988664 -41.0 0.0
v 3.490658503988664 -40.0 0.0
v 3.490658503988664 -39.0 0.0
v 3.490658503988664 -38.0 0.0
v 3.490658503988664 -37.0 0.0
v 3.490658503988664 -36.0 0.0
v 3.490658503988664 -35.0 0.0
v 3.490658503988664 -34.0 0.0
v 3.490658503988664 -33.0 0.0
v 3.490658503988664 -32.0 0.0
v 3.490658503988664 -31.0 0.0
v 3.490658503988664 -30.0 0.0
v 3.490658503988664 -29.0 0.0
v 3.490658503988664 -28.0 0.0
v 3.490658503988664 -27.0 0.0
v 3.490658503988664 -26.0 0.0
v 3.490658503988664 -25.0 0.0
v 3.490658503988664 -24.0 0.0
v 3.490658503988664 -23.0 0.0
v 3.490658503988664 -22.0 0.0
v 3.490658503988664 -21.0 0.0
v 3.490658503988664 -20.0 0.0
v 3.490658503988664 -19.0 0.0
v 3.490658503988664 -18.0 0.0
v 3.490658503988664 -17.0 0.0
v 3.490658503988664 -16.0 0.0
v 3.490658503988664 -15.0 0.0
v 3.490658503988664 -14.0 0.0
v 3.490658503988664 -13.0 0.0
v 3.490658503988664 -12.0 0.0
v 3.490658503988664 -11.0 0.0
v 3.490658503988664 -10.0 0.0
v 3.490658503988664 -9.0 0.0
v 3.490658503988664 -8.0 0.0
v 3.490658503988664 -7.0 0.0
v 3.490658503988664 -6.0 0.0
v 3.490658503988664 -5.0 0.0
v 3.490658503988664 -4.0 0.0
v 3.490658503988664 -3.0 0.0
v 3.490658503988664 -2.0 0.0
v 3.490658503988664 -1.0 0.0
v 3.490658503988664 0.0 0.0
v 3.490658503988664 1.0 0.0
v 3.490658503988664 2.0 0.0
v 3.490658503988664 3.0 0.0
v 3.490658503988664 4.0 0.0
v 3.490658503988664 5.0 0.0
v 3.490658503988664 6.0 0.0
v 3.490658503988664 7.0 0.0
v 3.490658503988664 8.0 0.0
v 3.490658503988664 9.0 0.0
v 3.490658503988664 10.0 0.0
v 3.490658503988664 11.0 0.0
v 3.490658503988664 12.0 0.0
v 3.490658503988664 13.0 0.0
v 3.490658503988664 14.0 0.0
v 3.490658503988664 15.0 0.0
v 3.490658503988664 16.0 0.0
v 3.490658503988664 17.0 0.0
v 3.490658503988664 18.0 0.0
v 3.490658503988664 19.0 0.0
v 3.490658503988664 20.0 0.0
v 3.490658503988664 21.0 0.0
v 3.490658503988664 22.0 0.0
v 3.490658503988664 23.0 0.0
v 3.490658503988664 24.0 0.0
v 3.490658503988664 25.0 0.0
v 3.490658503988664 26.0 0.0
v 3.490658503988664 27.0 0.0
v 3.490658503988664 28.0 0.0
v 3.490658503988664 29.0 0.0
v 3.490658503988664 30.0 0.0
v 3.490658503988664 31.0 0.0
v 3.490658503988664 32.0 0.0
v 3.490658503988664 33.0 0.0
v 3.490658503988664 34.0 0.0
v 3.490658503988664 35.0 0.0
v 3.490658503988664 36.0 0.0
v 3.490658503988664 37.0 0.0
v 3.490658503988664 38.0 0.0
v 3.490658503988664 39.0 0.0
v 3.490658503988664 40.0 0.0
v 3.490658503988664 41.0 0.0
v 3.490658503988664 42.0 0.0
v 3.490658503988664 43.0 0.0
v 3.490658503988664 44.0 0.0
v 3.490658503988664 45.0 0.0
v 3.490658503988664 46.0 0.0
v 3.490658503988664 47.0 0.0
v 3.490658503988664 48.0 0.0
v 3.490658503988664 49.0 0.0
v 3.490658503988664 50.0 0.0
f 1 103 2
f 1 102 103
f 2 104 3
f 2 103 104
f 3 105 4
f 3 104 105
f 4 106 5
f 4 105 106
f 5 107 6
f 5 106 107
f 6 108 7
f 6 107 108
f 7 109 8
f 7 108 109
f 8 110 9
f 8 109 110
f 9 111 10
f 9 110 111
f 10 112 11
f 10 111 112
f 11 113 12
f 11 112 113
f 12 114 13
f 12 113 114
f 13 115 14
f 13 114 115
f 14 116 15
f 14 115 116
f 15 117 16
f 15 116 117
f 16 118 17
f 16 117 118
f 17 119 18
f 17 118 119
f 18 120 19
f 18 119 120
f 19 121 20
f 19 120 121
f 20 122 21
f 20 121 122
f 21 123 22
f 21 122 123
f 22 124 23
f 22 123 124
f 23 125 24
f 23 124 125
f 24 126 25
f 24 125 126
f 25 127 26
f 25 126 127
f 26 128 27
f 26 127 128
f 27 129 28
f 27 128 129
f 28 130 29
f 28 129 130
f 29 131 30
f 29 130 131
f 30 132 31
f 30 131 132
f 31 133 32
f 31 132 133
f 32 134 33
f 32 133 134
f 33 135 34
f 33 134 135
f 34 136 35
f 34 135 136
f 35 137 36
f 35 136 137
f 36 138 37
f 36 137 138
f 37 139 38
f 37 138 139
f 38 140 39
f 38 139 140
f 39 141 40
f 39 140 141
f 40 142 41
f 40 141 142
f 41 143 42
f 41 142 143
f 42 144 43
f 42 143 144
f 43 145 44
f 43 144 145
f 44 146 45
f 44 145 146
f 45 147 46
f 45 146 147
f 46 148 47
f 46 147 148
f 47 149 48
f 47 148 149
f 48 150 49
f 48 149 150
f 49 151 50
f 49 150 151
f 50 152 51
f 50 151 152
f 51 153 52
f 51 152 153
f 52 154 53
f 52 153 154
f 53 155 54
f 53 154 155
f 54 156 55
f 54 155 156
f 55 157 56
f 55 156 157
f 56 158 57
f 56 157 158
f 57 159 58
f 57 158 159
f 58 160 59
f 58 159 160
f 59 161 60
f 59 160 161
f 60 162 61
f 60 161 162
f 61 163 62
f 61 162 163
f 62 164 63
f 62 163 164
f 63 165 64
f 63 164 165
f 64 166 65
f 64 165 166
f 65 167 66
f 65 166 167
f 66 168 67
f 66 167 168
f 67 169 68
f 67 168 169
f 68 170 69
f 68 169 170
f 69 171 70
f 69 170 171
f 70 172 71
f 70 171 172
f 71 173 72
f 71 172 173
f 72 174 73
f 72 173 174
f 73 175 74
f 73 174 175
f 74 176 75
f 74 175 176
f 75 177 76
f 75 176 177
f 76 178 77
f 76 177 178
f 77 179 78
f 77 178 179
f 78 180 79
f 78 179 180
f 79 181 80
f 79 180 181
f 80 182 81
f 80 181 182
f 81 183 82
f 81 182 183
f 82 184 83
f 82 183 184
f 83 185 84
f 83 184 185
f 84 186 85
f 84 185 186
f 85 187 86
f 85 186 187
f 86 188 87
f 86 187 188
f 87 189 88
f 87 188 189
f 88 190 89
f 88 189 190
f 89 191 90
f 89 190 191
f 90 192 91
f 90 191 192
f 91 193 92
f 91 192 193
f 92 194 93
f 92 193 194
f 93 195 94
f 93 194 195
f 94 196 95
f 94 195 196
f 95 197 96
f 95 196 197
f 96 198 97
f 96 197 198
f 97 199 98
f 97 198 199
f 98 200 99
f 98 199 200
f 99 201 100
f 99 200 201
f 100 202 101
f 100 201 202
f 102 204 103
f 102 203 204
f 103 205 104
f 103 204 205
f 104 206 105
f 104 205 206
f 105 207 106
f 105 206 207
f 106 208 107
f 106 207 208
f 107 209 108
f 107 208 209
f 108 210 109
f 108 209 210
f 109 211 110
f 109 210 211
f 110 212 111
f 110 211 212
f 111 213 112
f 111 212 213
f 112 214 113
f 112 213 214
f 113 215 114
f 113 214 215
f 114 216 115
f 114 215 216
f 115 217 116
f 115 216 217
f 116 218 117
f 116 217 218
f 117 219 118
f 117 218 219
f 118 220 119
f 118 219 220
f 119 221 120
f 119 220 221
f 120 222 121
f 120 221 222
f 121 223 122
f 121 222 223
f 122 224 123
f 122 223 224
f 123 225 124
f 123 224 225
f 124 226 125
f 124 225 226
f 125 227 126
f 125 226 227
f 126 228 127
f 126 227 228
f 127 229 128
f 127 228 229
f 128 230 129
f 128 229 230
f 129 231 130
f 129 230 231
f 130 232 131
f 130 231 232
f 131 233 132
f 131 232 233
f 132 234 133
f 132 233 234
f 133 235 134
f 133 234 235
f 134 236 135
f 134 235 236
f 135 237 136
f 135 236 237
f 136 238 137
f 136 237 238
f 137 239 138
f 137 238 239
f 138 240 139
f 138 239 240
f 139 241 140
f 139 240 241
f 140 242 141
f 140 241 242
f 141 243 142
f 141 242 243
f 142 244 143
f 142 243 244
f 143 245 144
f 143 244 245
f 144 246 145
f 144 245 246
f 145 247 146
f 145 246 247
f 146 248 147
f 146 247 248
f 147 249 148
f 147 248 249
f 148 250 149
f 148 249 250
f 149 251 150
f 149 250 251
f 150 252 151
f 150 251 252
f 151 253 152
f 151 252 253
f 152 254 153
f 152 253 254
f 153 255 154
f 153 254 255
f 154 256 155
f 154 255 256
f 155 257 156
f 155 256 257
f 156 258 157
f 156 257 258
f 157 259 158
f 157 258 259
f 158 260 159
f 158 259 260
f 159 261 160
f 159 260 261
f 160 262 161
f 160 261 262
f 161 263 162
f 161 262 263
f 162 264 163
f 162 263 264
f 163 265 164
f 163 264 265
f 164 266 165
f 164 265 266
f 165 267 166
f 165 266 267
f 166 268 167
f 166 267 268
f 167 269 168
f 167 268 269
f 168 270 169
f 168 269 270
f 169 271 170
f 169 270 271
f 170 272 171
f 170 271 272
f 171 273 172
f 171 272 273
f 172 274 173
f 172 273 274
f 173 275 174
f 173 274 275
f 174 276 175
f 174 275 276
f 175 277 176
f 175 276 277
f 176 278 177
f 176 277 278
f 177 279 178
f 177 278 279
f 178 280 179
f 178 279 280
f 179 281 180
f 179 280 281
f 180 282 181
f 180 281 282
f 181 283 182
f 181 282 283
f 182 284 183
f 182 283 284
f 183 285 184
f 183 284 285
f 184 286 185
f 184 285 286
f 185 287 186
f 185 286 287
f 186 288 187
f 186 287 288
f 187 289 188
f 187 288 289
f 188 290 189
f 188 289 290
f 189 291 190
f 189 290 291
f 190 292 191
f 190 291 292
f 191 293 192
f 191 292 293
f 192 294 193
f 192 293 294
f 193 295 194
f 193 294 295
f 194 296 195
f 194 295 296
f 195 297 196
f 195 296 297
f 196 298 197
f 196 297 298
f 197 299 198
f 197 298 299
f 198 300 199
f 198 299 300
f 199 301 200
f 199 300 301
f 200 302 201
f 200 301 302
f 201 303 202
f 201 302 303
f 203 305 204
f 203 304 305
f 204 306 205
f 204 305 306
f 205 307 206
f 205 306 307
f 206 308 207
f 206 307 308
f 207 309 208
f 207 308 309
f 208 310 209
f 208 309 310
f 209 311 210
f 209 310 311
f 210 312 211
f 210 311 312
f 211 313 212
f 211 312 313
f 212 314 213
f 212 313 314
f 213 315 214
f 213 314 315
f 214 316 215
f 214 315 316
f 215 317 216
f 215 316 317
f 216 318 217
f 216 317 318
f 217 319 218
f 217 318 319
f 218 320 219
f 218 319 320
f 219 321 220
f 219 320 321
f 220 322 221
f 220 321 322
f 221 323 222
f 221 322 323
f 222 324 223
f 222 323 324
f 223 325 224
f 223 324 325
f 224 326 225
f 224 325 326
f 225 327 226
f 225 326 327
f 226 328 227
f 226 327 328
f 227 329 228
f 227 328 329
f 228 330 229
f 228 329 330
f 229 331 230
f 229 330 331
f 230 332 231
f 230 331 332
f 231 333 232
f 231 332 333
f 232 334 233
f 232 333 334
f 233 335 234
f 233 334 335
f 234 336 235
f 234 335 336
f 235 337 236
f 235 336 337
f 236 338 237
f 236 337 338
f 237 339 238
f 237 338 339
f 238 340 239
f 238 339 340
f 239 341 240
f 239 340 341
f 240 342 241
f 240 341 342
f 241 343 242
f 241 342 343
f 242 344 243
f 242 343 344
f 243 345 244
f 243 344 345
f 244 346 245
f 244 345 346
f 245 347 246
f 245 346 347
f 246 348 247
f 246 347 348
f 247 349 248
f 247 348 349
f 248 350 249
f 248 349 350
f 249 351 250
f 249 350 351
f 250 352 251
f 250 351 352
f 251 353 252
f 251 352 353
f 252 354 253
f 252 353 354
f 253 355 254
f 253 354 355
f 254 356 255
f 254 355 356
f 255 357 256
f 255 356 357
f 256 358 257
f 256 357 358
f 257 359 258
f 257 358 359
f 258 360 259
f 258 359 360
f 259 361 260
f 259 360 361
f 260 362 261
f 260 361 362
f 261 363 262
f 261 362 363
f 262 364 263
f 262 363 364
f 263 365 264
f 263 364 365
f 264 366 265
f 264 365 366
f 265 367 266
f 265 366 367
f 266 368 267
f 266 367 368
f 267 369 268
f 267 368 369
f 268 370 269
f 268 369 370
f 269 371 270
f 269 370 371
f 270 372 271
f 270 371 372
f 271 373 272
f 271 372 373
f 272 374 273
f 272 373 374
f 273 375 274
f 273 374 375
f 274 376 275
f 274 375 376
f 275 377 276
f 275 376 377
f 276 378 277
f 276 377 378
f 277 379 278
f 277 378 379
f 278 380 279
f 278 379 380
f 279 381 280
f 279 380 381
f 280 382 281
f 280 381 382
f 281 383 282
f 281 382 383
f 282 384 283
f 282 383 384
f 283 385 284
f 283 384 385
f 284 386 285
f 284 385 386
f 285 387 286
f 285 386 387
f 286 388 287
f 286 387 388
f 287 389 288
f 287 388 389
f 288 390 289
f 288 389 390
f 289 391 290
f 289 390 391
f 290 392 291
f 290 391 392
f 291 393 292
f 291 392 393
f 292 394 293
f 292 393 394
f 293 395 294
f 293 394 395
f 294 396 295
f 294 395 396
f 295 397 296
f 295 396 397
f 296 398 297
f 296 397 398
f 297 399 298
f 297 398 399
f 298 400 299
f 298 399 400
f 299 401 300
f 299 400 401
f 300 402 301
f 300 401 402
f 301 403 302
f 301 402 403
f 302 404 303
f 302 403 404
f 304 406 305
f 304 405 406
f 305 407 306
f 305 406 407
f 306 408 307
f 306 407 408
f 307 409 308
f 307 408 409
f 308 410 309
f 308 409 410
f 309 411 310
f 309 410 411
f 310 412 311
f 310 411 412
f 311 413 312
f 311 412 413
f 312 414 313
f 312 413 414
f 313 415 314
f 313 414 415
f 314 416 315
f 314 415 416
f 315 417 316
f 315 416 417
f 316 418 317
f 316 417 418
f 317 419 318
f 317 418 419
f 318 420 319
f 318 419 420
f 319 421 320
f 319 420 421
f 320 422 321
f 320 421 422
f 321 423 322
f 321 422 423
f 322 424 323
f 322 423 424
f 323 425 324
f 323 424 425
f 324 426 325
f 324 425 426
f 325 427 326
f 325 426 427
f 326 428 327
f 326 427 428
f 327 429 328
f 327 428 429
f 328 430 329
f 328 429 430
f 329 431 330
f 329 430 431
f 330 432 331
f 330 431 432
f 331 433 332
f 331 432 433
f 332 434 333
f 332 433 434
f 333 435 334
f 333 434 435
f 334 436 335
f 334 435 436
f 335 437 336
f 335 436 437
f 336 438 337
f 336 437 438
f 337 439 338
f 337 438 439
f 338 440 339
f 338 439 440
f 339 441 340
f 339 440 441
f 340 442 341
f 340 441 442
f 341 443 342
f 341 442 443
f 342 444 343
f 342 443 444
f 343 445 344
f 343 444 445
f 344 446 345
f 344 445 446
f 345 447 346
f 345 446 447
f 346 448 347
f 346 447 448
f 347 449 348
f 347 448 449
f 348 450 349
f 348 449 450
f 349 451 350
f 349 450 451
f 350 452 351
f 350 451 452
f 351 453 352
f 351 452 453
f 352 454 353
f 352 453 454
f 353 455 354
f 353 454 455
f 354 456 355
f 354 455 456
f 355 457 356
f 355 456 457
f 356 458 357
f 356 457 458
f 357 459 358
f 357 458 459
f 358 460 359
f 358 459 460
f 359 461 360
f 359 460 461
f 360 462 361
f 360 461 462
f 361 463 362
f 361 462 463
f 362 464 363
f 362 463 464
f 363 465 364
f 363 464 465
f 364 466 365
f 364 465 466
f 365 467 366
f 365 466 467
f 366 468 367
f 366 467 468
f 367 469 368
f 367 468 469
f 368 470 369
f 368 469 470
f 369 471 370
f 369 470 471
f 370 472 371
f 370 471 472
f 371 473 372
f 371 472 473
f 372 474 373
f 372 473 474
f 373 475 374
f 373 474 475
f 374 476 375
f 374 475 476
f 375 477 376
f 375 476 477
f 376 478 377
f 376 477 478
f 377 479 378
f 377 478 479
f 378 480 379
f 378 479 480
f 379 481 380
f 379 480 481
f 380 482 381
f 380 481 482
f 381 483 382
f 381 482 483
f 382 484 383
f 382 483 484
f 383 485 384
f 383 484 485
f 384 486 385
f 384 485 486
f 385 487 386
f 385 486 487
f 386 488 387
f 386 487 488
f 387 489 388
f 387 488 489
f 388 490 389
f 388 489 490
f 389 491 390
f 389 490 491
f 390 492 391
f 390 491 492
f 391 493 392
f 391 492 493
f 392 494 393
f 392 493 494
f 393 495 394
f 393 494 495
f 394 496 395
f 394 495 496
f 395 497 396
f 395 496 497
f 396 498 397
f 396 497 498
f 397 499 398
f 397 498 499
f 398 500 399
f 398 499 500
f 399 501 400
f 399 500 501
f 400 502 401
f 400 501 502
f 401 503 402
f 401 502 503
f 402 504 403
f 402 503 504
f 403 505 404
f 403 504 505
f 405 507 406
f 405 506 507
f 406 508 407
f 406 507 508
f 407 509 408
f 407 508 509
f 408 510 409
f 408 509 510
f 409 511 410
f 409 510 511
f 410 512 411
f 410 511 512
f 411 513 412
f 411 512 513
f 412 514 413
f 412 513 514
f 413 515 414
f 413 514 515
f 414 516 415
f 414 515 516
f 415 517 416
f 415 516 517
f 416 518 417
f 416 517 518
f 417 519 418
f 417 518 519
f 418 520 419
f 418 519 520
f 419 521 420
f 419 520 521
f 420 522 421
f 420 521 522
f 421 523 422
f 421 522 523
f 422 524 423
f 422 523 524
f 423 525 424
f 423 524 525
f 424 526 425
f 424 525 526
f 425 527 426
f 425 526 527
f 426 528 427
f 426 527 528
f 427 529 428
f 427 528 529
f 428 530 429
f 428 529 530
f 429 531 430
f 429 530 531
f 430 532 431
f 430 531 532
f 431 533 432
f 431 532 533
f 432 534 433
f 432 533 534
f 433 535 434
f 433 534 535
f 434 536 435
f 434 535 536
f 435 537 436
f 435 536 537
f 436 538 437
f 436 537 538
f 437 539 438
f 437 538 539
f 438 540 439
f 438 539 540
f 439 541 440
f 439 540 541
f 440 542 441
f 440 541 542
f 441 543 442
f 441 542 543
f 442 544 443
f 442 543 544
f 443 545 444
f 443 544 545
f 444 546 445
f 444 545 546
f 445 547 446
f 445 546 547
f 446 548 447
f 446 547 548
f 447 549 448
f 447 548 549
f 448 550 449
f 448 549 550
f 449 551 450
f 449 550 551
f 450 552 451
f 450 551 552
f 451 553 452
f 451 552 553
f 452 554 453
f 452 553 554
f 453 555 454
f 453 554 555
f 454 556 455
f 454 555 556
f 455 557 456
f 455 556 557
f 456 558 457
f 456 557 558
f 457 559 458
f 457 558 559
f 458 560 459
f 458 559 560
f 459 561 460
f 459 560 561
f 460 562 461
f 460 561 562
f 461 563 462
f 461 562 563
f 462 564 463
f 462 563 564
f 463 565 464
f 463 564 565
f 464 566 465
f 464 565 566
f 465 567 466
f 465 566 567
f 466 568 467
f 466 567 568
f 467 569 468
f 467 568 569
f 468 570 469
f 468 569 570
f 469 571 470
f 469 570 571
f 470 572 471
f 470 571 572
f 471 573 472
f 471 572 573
f 472 574 473
f 472 573 574
f 473 575 474
f 473 574 575
f 474 576 475
f 474 575 576
f 475 577 476
f 475 576 577
f 476 578 477
f 476 577 578
f 477 579 478
f 477 578 579
f 478 580 479
f 478 579 580
f 479 581 480
f 479 580 581
f 480 582 481
f 480 581 582
f 481 583 482
f 481 582 583
f 482 584 483
f 482 583 584
f 483 585 484
f 483 584 585
f 484 586 485
f 484 585 586
f 485 587 486
f 485 586 587
f 486 588 487
f 486 587 588
f 487 589 488
f 487 588 589
f 488 590 489
f 488 589 590
f 489 591 490
f 489 590 591
f 490 592 491
f 490 591 592
f 491 593 492
f 491 592 593
f 492 594 493
f 492 593 594
f 493 595 494
f 493 594 595
f 494 596 495
f 494 595 596
f 495 597 496
f 495 596 597
f 496 598 497
f 496 597 598
f 497 599 498
f 497 598 599
f 498 600 499
f 498 599 600
f 499 601 500
f 499 600 601
f 500 602 501
f 500 601 602
f 501 603 502
f 501 602 603
f 502 604 503
f 502 603 604
f 503 605 504
f 503 604 605
f 504 606 505
f 504 605 606
f 506 608 507
f 506 607 608
f 507 609 508
f 507 608 609
f 508 610 509
f 508 609 610
f 509 611 510
f 509 610 611
f 510 612 511
f 510 611 612
f 511 613 512
f 511 612 613
f 512 614 513
f 512 613 614
f 513 615 514
f 513 614 615
f 514 616 515
f 514 615 616
f 515 617 516
f 515 616 617
f 516 618 517
f 516 617 618
f 517 619 518
f 517 618 619
f 518 620 519
f 518 619 620
f 519 621 520
f 519 620 621
f 520 622 521
f 520 621 622
f 521 623 522
f 521 622 623
f 522 624 523
f 522 623 624
f 523 625 524
f 523 624 625
f 524 626 525
f 524 625 626
f 525 627 526
f 525 626 627
f 526 628 527
f 526 627 628
f 527 629 528
f 527 628 629
f 528 630 529
f 528 629 630
f 529 631 530
f 529 630 631
f 530 632 531
f 530 631 632
f 531 633 532
f 531 632 633
f 532 634 533
f 532 633 634
f 533 635 534
f 533 634 635
f 534 636 535
f 534 635 636
f 535 637 536
f 535 636 637
f 536 638 537
f 536 637 638
f 537 639 538
f 537 638 639
f 538 640 539
f 538 639 640
f 539 641 540
f 539 640 641
f 540 642 541
f 540 641 642
f 541 643 542
f 541 642 643
f 542 644 543
f 542 643 644
f 543 645 544
f 543 644 645
f 544 646 545
f 544 645 646
f 545 647 546
f 545 646 647
f 546 648 547
f 546 647 648
f 547 649 548
f 547 648 649
f 548 650 549
f 548 649 650
f 549 651 550
f 549 650 651
f 550 652 551
f 550 651 652
f 551 653 552
f 551 652 653
f 552 654 553
f 552 653 654
f 553 655 554
f 553 654 655
f 554 656 555
f 554 655 656
f 555 657 556
f 555 656 657
f 556 658 557
f 556 657 658
f 557 659 558
f 557 658 659
f 558 660 559
f 558 659 660
f 559 661 560
f 559 660 661
f 560 662 561
f 560 661 662
f 561 663 562
f 561 662 663
f 562 664 563
f 562 663 664
f 563 665 564
f 563 664 665
f 564 666 565
f 564 665 666
f 565 667 566
f 565 666 667
f 566 668 567
f 566 667 668
f 567 669 568
f 567 668 669
f 568 670 569
f 568 669 670
f 569 671 570
f 569 670 671
f 570 672 571
f 570 671 672
f 571 673 572
f 571 672 673
f 572 674 573
f 572 673 674
f 573 675 574
f 573 674 675
f 574 676 575
f 574 675 676
f 575 677 576
f 575 676 677
f 576 678 577
f 576 677 678
f 577 679 578
f 577 678 679
f 578 680 579
f 578 679 680
f 579 681 580
f 579 680 681
f 580 682 581
f 580 681 682
f 581 683 582
f 581 682 683
f 582 684 583
f 582 683 684
f 583 685 584
f 583 684 685
f 584 686 585
f 584 685 686
f 585 687 586
f 585 686 687
f 586 688 587
f 586 687 688
f 587 689 588
f 587 688 689
f 588 690 589
f 588 689 690
f 589 691 590
f 589 690 691
f 590 692 591
f 590 691 692
f 591 693 592
f 591 692 693
f 592 694 593
f 592 693 694
f 593 695 594
f 593 694 695
f 594 696 595
f 594 695 696
f 595 697 596
f 595 696 697
f 596 698 597
f 596 697 698
f 597 699 598
f 597 698 699
f 598 700 599
f 598 699 700
f 599 701 600
f 599 700 701
f 600 702 601
f 600 701 702
f 601 703 602
f 601 702 703
f 602 704 603
f 602 703 704
f 603 705 604
f 603 704 705
f 604 706 605
f 604 705 706
f 605 707 606
f 605 706 707
f 607 709 608
f 607 708 709
f 608 710 609
f 608 709 710
f 609 711 610
f 609 710 711
f 610 712 611
f 610 711 712
f 611 713 612
f 611 712 713
f 612 714 613
f 612 713 714
f 613 715 614
f 613 714 715
f 614 716 615
f 614 715 716
f 615 717 616
f 615 716 717
f 616 718 617
f 616 717 718
f 617 719 618
f 617 718 719
f 618 720 619
f 618 719 720
f 619 721 620
f 619 720 721
f 620 722 621
f 620 721 722
f 621 723 622
f 621 722 723
f 622 724 623
f 622 723 724
f 623 725 624
f 623 724 725
f 624 726 625
f 624 725 726
f 625 727 626
f 625 726 727
f 626 728 627
f 626 727 728
f 627 729 628
f 627 728 729
f 628 730 629
f 628 729 730
f 629 731 630
f 629 730 731
f 630 732 631
f 630 731 732
f 631 733 632
f 631 732 733
f 632 734 633
f 632 733 734
f 633 735 634
f 633 734 735
f 634 736 635
f 634 735 736
f 635 737 636
f 635 736 737
f 636 738 637
f 636 737 738
f 637 739 638
f 637 738 739
f 638 740 639
f 638 739 740
f 639 741 640
f 639 740 741
f 640 742 641
f 640 741 742
f 641 743 642
f 641 742 743
f 642 744 643
f 642 743 744
f 643 745 644
f 643 744 745
f 644 746 645
f 644 745 746
f 645 747 646
f 645 746 747
f 646 748 647
f 646 747 748
f 647 749 648
f 647 748 749
f 648 750 649
f 648 749 750
f 649 751 650
f 649 750 751
f 650 752 651
f 650 751 752
f 651 753 652
f 651 752 753
f 652 754 653
f 652 753 754
f 653 755 654
f 653 754 755
f 654 756 655
f 654 755 756
f 655 757 656
f 655 756 757
f 656 758 657
f 656 757 758
f 657 759 658
f 657 758 759
f 658 760 659
f 658 759 760
f 659 761 660
f 659 760 761
f 660 762 661
f 660 761 762
f 661 763 662
f 661 762 763
f 662 764 663
f 662 763 764
f 663 765 664
f 663 764 765
f 664 766 665
f 664 765 766
f 665 767 666
f 665 766 767
f 666 768 667
f 666 767 768
f 667 769 668
f 667 768 769
f 668 770 669
f 668 769 770
f 669 771 670
f 669 770 771
f 670 772 671
f 670 771 772
f 671 773 672
f 671 772 773
f 672 774 673
f 672 773 774
f 673 775 674
f 673 774 775
f 674 776 675
f 674 775 776
f 675 777 676
f 675 776 777
f 676 778 677
f 676 777 778
f 677 779 678
f 677 778 779
f 678 780 679
f 678 779 780
f 679 781 680
f 679 780 781
f 680 782 681
f 680 781 782
f 681 783 682
f 681 782 783
f 682 784 683
f 682 783 784
f 683 785 684
f 683 784 785
f 684 786 685
f 684 785 786
f 685 787 686
f 685 786 787
f 686 788 687
f 686 787 788
f 687 789 688
f 687 788 789
f 688 790 689
f 688 789 790
f 689 791 690
f 689 790 791
f 690 792 691
f 690 791 792
f 691 793 692
f 691 792 793
f 692 794 693
f 692 793 794
f 693 795 694
f 693 794 795
f 694 796 695
f 694 795 796
f 695 797 696
f 695 796 797
f 696 798 697
f 696 797 798
f 697 799 698
f 697 798 799
f 698 800 699
f 698 799 800
f 699 801 700
f 699 800 801
f 700 802 701
f 700 801 802
f 701 803 702
f 701 802 803
f 702 804 703
f 702 803 804
f 703 805 704
f 703 804 805
f 704 806 705
f 704 805 806
f 705 807 706
f 705 806 807
f 706 808 707
f 706 807 808
